<?xml version="1.0" encoding="UTF-8"?>
<svg width="12px" height="23px" viewBox="0 0 12 23" version="1.1" xmlns="http://www.w3.org/2000/svg" xmlns:xlink="http://www.w3.org/1999/xlink">
    <!-- Generator: Sketch 46.1 (44463) - http://www.bohemiancoding.com/sketch -->
    <title>ic-battery_inactive</title>
    <desc>Created with Sketch.</desc>
    <defs>
        <rect id="path-1" x="0" y="0" width="32" height="32"></rect>
    </defs>
    <g id="Welcome" stroke="none" stroke-width="1" fill="none" fill-rule="evenodd">
        <g id="GM-Cloud-Player---2560x1440-(Rotate-1)" transform="translate(-2345.000000, -441.000000)">
            <g id="BROWSER" transform="translate(0.000000, 23.000000)">
                <g id="TOOLBAR" transform="translate(2279.000000, 142.000000)">
                    <g transform="translate(36.000000, 0.000000)" id="Battery">
                        <g transform="translate(1.000000, 271.000000)">
                            <g id="widget" transform="translate(19.000000, 0.893916)">
                                <g id="ic-battery_inactive">
                                    <mask id="mask-2" fill="white">
                                        <use xlink:href="#path-1"></use>
                                    </mask>
                                    <g id="Mask"></g>
                                    <g id="ic-battery_inactive--copy" mask="url(#mask-2)" fill="#FFFFFF">
                                        <g transform="translate(10.000000, 5.000000)" id="Page-1">
                                            <path d="M1.96761619,20.0367483 L10.0329835,20.0367483 L10.0329835,4.09985007 L1.96761619,4.09985007 L1.96761619,20.0367483 Z M8.71368963,2.02154541 L8.71368963,-2.27373675e-13 L3.28943981,-2.27373675e-13 L3.28943981,2.02154541 L1.6011994,2.02154541 C0.713643178,2.02154541 0,2.85307346 0,3.66666667 L0,20.5267366 C0,21.3348326 0.713643178,21.9945027 1.6011994,21.9945027 L10.3988006,21.9945027 C11.2803598,21.9945027 12,21.3403298 12,20.5267366 L12,3.66666667 C11.994003,2.85307346 11.2803598,2.02154541 10.3928036,2.02154541 L8.71368963,2.02154541 Z"></path>
                                        </g>
                                    </g>
                                </g>
                            </g>
                        </g>
                    </g>
                </g>
            </g>
        </g>
    </g>
</svg>