<?xml version="1.0" encoding="UTF-8"?>
<svg width="32px" height="32px" viewBox="0 0 32 32" version="1.1" xmlns="http://www.w3.org/2000/svg" xmlns:xlink="http://www.w3.org/1999/xlink">
    <!-- Generator: Sketch 46.2 (44496) - http://www.bohemiancoding.com/sketch -->
    <title>ic-resolution_active_black</title>
    <desc>Created with Sketch.</desc>
    <defs></defs>
    <g id="Symbols" stroke="none" stroke-width="1" fill="none" fill-rule="evenodd">
        <g id="ic-resolution_active_black" fill="#000000">
            <path d="M7,23.01 L25,23.01 L25,8.99 L7,8.99 L7,23.01 Z M25,7 L7,7 C5.9,7 5,7.9 5,9 L5,23 C5,24.1 5.9,25 7,25 L25,25 C26.1,25 27,24.1 27,23 L27,9 C27,7.9 26.1,7 25,7 L25,7 Z M11,13 L14,13 L14,11 L9,11 L9,16 L11,16 L11,13 Z M23,16 L21,16 L21,19 L18,19 L18,21 L23,21 L23,16 Z" id="Page-1"></path>
        </g>
    </g>
</svg>