<?xml version="1.0" encoding="UTF-8"?>
<svg width="32px" height="32px" viewBox="0 0 32 32" version="1.1" xmlns="http://www.w3.org/2000/svg" xmlns:xlink="http://www.w3.org/1999/xlink">
    <!-- Generator: Sketch 46.2 (44496) - http://www.bohemiancoding.com/sketch -->
    <title>ic_arrow_rotation_right</title>
    <desc>Created with Sketch.</desc>
    <defs></defs>
    <g id="Symbols" stroke="none" stroke-width="1" fill="none" fill-rule="evenodd">
        <g id="ic_arrow_rotation_right" fill-rule="nonzero" fill="#FFFFFF">
            <g transform="translate(16.500000, 16.000000) scale(-1, 1) rotate(-360.000000) translate(-16.500000, -16.000000) translate(6.000000, 4.000000)" id="Shape">
                <path d="M3.8304,9.50526316 L2.0475,7.71789474 C0.9135,9.18315789 0.2142,10.8757895 0,12.6315789 L2.5452,12.6315789 C2.7279,11.5263158 3.1563,10.4589474 3.8304,9.50526316 L3.8304,9.50526316 Z M2.5452,15.1578947 L0,15.1578947 C0.2142,16.9136842 0.9135,18.6063158 2.0475,20.0715789 L3.8304,18.2842105 C3.1563,17.3305263 2.7279,16.2631579 2.5452,15.1578947 L2.5452,15.1578947 Z M3.8178,21.8715789 C5.2794,23.0147368 6.9804,23.6905263 8.7318,23.9052632 L8.7318,21.3536842 C7.6293,21.1705263 6.5709,20.7347368 5.6259,20.0589474 L3.8178,21.8715789 Z M11.2518,3.87789474 L11.2518,0 L5.5188,5.74736842 L11.2518,11.3684211 L11.2518,6.42947368 C14.8239,7.02947368 17.5518,10.1431579 17.5518,13.8947368 C17.5518,17.6463158 14.8239,20.76 11.2518,21.36 L11.2518,23.9115789 C16.2225,23.2863158 20.0718,19.0484211 20.0718,13.8947368 C20.0718,8.74105263 16.2225,4.50315789 11.2518,3.87789474 Z"></path>
            </g>
        </g>
    </g>
</svg>