<?xml version="1.0" encoding="UTF-8"?>
<svg width="32px" height="32px" viewBox="0 0 32 32" version="1.1" xmlns="http://www.w3.org/2000/svg" xmlns:xlink="http://www.w3.org/1999/xlink">
    <!-- Generator: Sketch 46.2 (44496) - http://www.bohemiancoding.com/sketch -->
    <title>ic_baseband_inactive</title>
    <desc>Created with Sketch.</desc>
    <defs></defs>
    <g id="Symbols" stroke="none" stroke-width="1" fill="none" fill-rule="evenodd">
        <g id="ic_baseband_inactive" fill-rule="nonzero" fill="#FFFFFF">
            <path d="M24.98875,7.25 C24.98875,6.0125 23.9875,5 22.75,5 L13.75,5 L7,11.75 L7,25.25 C7,26.4875 8.0125,27.5 9.25,27.5 L22.76125,27.5 C23.99875,27.5 25,26.4875 25,25.25 L24.98875,7.25 L24.98875,7.25 Z M12.625,24.125 L10.375,24.125 L10.375,21.875 L12.625,21.875 L12.625,24.125 Z M21.625,24.125 L19.375,24.125 L19.375,21.875 L21.625,21.875 L21.625,24.125 Z M12.625,19.625 L10.375,19.625 L10.375,15.125 L12.625,15.125 L12.625,19.625 Z M17.125,24.125 L14.875,24.125 L14.875,19.625 L17.125,19.625 L17.125,24.125 Z M17.125,17.375 L14.875,17.375 L14.875,15.125 L17.125,15.125 L17.125,17.375 Z M21.625,19.625 L19.375,19.625 L19.375,15.125 L21.625,15.125 L21.625,19.625 Z" id="Shape"></path>
        </g>
    </g>
</svg>