<svg width="38" height="38" viewBox="0 0 38 38" fill="none" xmlns="http://www.w3.org/2000/svg">
<path fill-rule="evenodd" clip-rule="evenodd" d="M22.381 5.45847H25.1989C26.4514 5.45847 27.4578 6.46487 27.466 7.71743V33.6676C27.466 34.9201 26.4514 35.9265 25.207 35.9265H12.7943C11.5418 35.9265 10.534 34.912 10.534 33.6676V7.71743C10.534 6.46487 11.5418 5.45847 12.7943 5.45847H15.6109V2.07343H22.381V5.45847ZM19.3228 21.8558L22.665 25.198L24.4328 23.4301L21.0906 20.0879L24.6439 16.5347L22.6738 14.5646L19.1205 18.1178L15.7959 14.7932L14.0281 16.5611L17.3527 19.8857L13.7906 23.4477L15.7607 25.4179L19.3228 21.8558Z" fill="currentColor"/>
</svg>
