<svg width="32" height="32" viewBox="0 0 32 32" fill="none" xmlns="http://www.w3.org/2000/svg">
<g clip-path="url(#clip0_926_3606)">
<path d="M15.9892 9.98303C18.4583 9.98409 20.5942 10.8627 22.3427 12.5885C24.0968 14.3245 24.9853 16.4712 24.9853 18.9782C24.9853 19.925 24.6557 20.7504 24.0019 21.4313C23.3436 22.1075 22.536 22.4498 21.5937 22.4498C20.6515 22.4497 19.8043 22.1068 19.1415 21.4576C18.4698 20.8039 18.127 19.9883 18.1269 19.0416C18.1269 18.415 17.9237 17.9051 17.4999 17.4723C17.0807 17.0395 16.5801 16.8317 15.9941 16.8317C15.4079 16.8317 14.9156 17.0439 14.4872 17.4723C14.0591 17.9051 13.8515 18.4196 13.8515 19.0416C13.8516 20.89 14.3753 22.4541 15.4033 23.694C16.4358 24.943 17.8381 25.8095 19.5741 26.2604C19.7725 26.301 19.9171 26.3999 19.9892 26.5621C20.0477 26.6928 20.0654 26.8325 20.0429 26.9811C20.0024 27.1747 19.9169 27.3192 19.7909 27.4049C19.7008 27.468 19.592 27.4996 19.4658 27.4996C19.4027 27.4996 19.3352 27.4952 19.2587 27.4772L18.8661 27.3961L18.8837 27.3785C17.0443 26.8781 15.5385 25.9039 14.4023 24.4928C13.1893 22.9868 12.5761 21.1469 12.5761 19.0367C12.5761 18.0673 12.9093 17.2326 13.5722 16.5563C14.2395 15.88 15.0607 15.5377 15.9941 15.5377C16.9273 15.5378 17.7432 15.8717 18.415 16.5299C19.0868 17.1882 19.4257 18.0085 19.4257 18.9733C19.4257 19.5865 19.6325 20.092 20.0654 20.5114C20.4982 20.9351 21.0079 21.1383 21.5986 21.1383C22.1893 21.1383 22.6581 20.9391 23.082 20.5153C23.5058 20.0959 23.7089 19.591 23.7089 18.9733C23.7089 16.8271 22.9424 15.0055 21.4365 13.5582C19.9259 12.1063 18.0903 11.3717 15.9755 11.3717C13.8608 11.3718 12.0298 12.1151 10.5283 13.5895C9.03132 15.0593 8.27443 16.8992 8.27434 19.0543C8.27434 19.636 8.32358 20.2632 8.42278 20.9215C8.52198 21.6023 8.70291 22.3144 8.95989 23.0358C9.03204 23.2432 9.02716 23.4194 8.95501 23.5592C8.88737 23.6945 8.78364 23.7939 8.64837 23.8571C8.49508 23.9247 8.33238 23.9377 8.16106 23.8971C8.02582 23.8655 7.84515 23.7661 7.74602 23.4733C7.53866 22.8511 7.37249 22.1791 7.23724 21.4127C7.09747 20.6463 7.02923 19.8483 7.02923 19.0367C7.02923 16.5749 7.92252 14.4243 9.68548 12.6569C11.4429 10.8859 13.5652 9.98417 15.9892 9.98303ZM16.0029 12.774C17.7028 12.774 19.1819 13.378 20.3993 14.5729C21.6167 15.7677 22.2391 17.2465 22.2392 18.9733C22.2392 19.167 22.1896 19.3295 22.0995 19.4557C22.0274 19.5594 21.8873 19.6813 21.6122 19.6813C21.3372 19.6813 21.1836 19.5686 21.1025 19.4694C20.9899 19.3386 20.9355 19.1716 20.9355 18.9733C20.9354 17.5712 20.4577 16.4308 19.4794 15.484C18.5145 14.5416 17.351 14.0631 15.9892 14.0631C14.6275 14.0631 13.4957 14.5365 12.5263 15.5104C11.5704 16.4663 11.0878 17.6525 11.0878 19.0367C11.0878 20.5202 11.3226 21.8142 11.787 22.8873L11.7958 22.8922C12.2648 23.9697 13.0084 25.0657 14.0048 26.1432C14.1852 26.3326 14.2124 26.508 14.2079 26.6207C14.2079 26.756 14.1538 26.8955 14.0546 27.0172C13.9915 27.1029 13.8521 27.2251 13.5908 27.2477H13.5361C13.3424 27.2476 13.1712 27.1618 13.0361 26.9996L12.9452 26.8912C11.9488 25.8046 11.1779 24.6319 10.6503 23.401C10.0958 22.1161 9.81635 20.6508 9.81634 19.0367C9.81634 17.3054 10.4252 15.8131 11.62 14.6002C12.815 13.3873 14.3029 12.774 16.0029 12.774ZM15.9892 18.2975C16.1875 18.2975 16.3501 18.3693 16.4628 18.5045C16.5664 18.6397 16.6209 18.8019 16.621 18.9821C16.621 20.5015 17.1032 21.6652 18.0995 22.5309C19.1006 23.4101 20.2554 23.8346 21.6171 23.8346C21.7568 23.8346 21.9325 23.8206 22.1533 23.7936C22.3696 23.7665 22.5863 23.7442 22.8027 23.7262L22.8075 23.7213C22.9968 23.7123 23.1546 23.762 23.2763 23.8746C23.4431 24.0234 23.4654 24.1863 23.4609 24.2946C23.4698 24.4477 23.4382 24.5829 23.3661 24.691C23.285 24.8126 23.1681 24.8936 23.0195 24.9342C22.7534 25.0289 22.4647 25.088 22.1806 25.1061C21.9236 25.1241 21.7338 25.1285 21.621 25.1285H21.6122C19.9124 25.1285 18.4289 24.5689 17.207 23.4733C15.9851 22.3776 15.3632 20.8671 15.3632 18.9869C15.3632 18.8021 15.4119 18.644 15.5156 18.5133C15.5877 18.4142 15.7324 18.2976 15.9892 18.2975ZM15.9941 7.27307C17.96 7.27309 19.7591 7.70146 21.495 8.58069C23.2085 9.45092 24.652 10.7176 25.7792 12.3453V12.3502C25.932 12.5886 25.9325 12.7688 25.9101 12.8815C25.874 13.0393 25.7968 13.1749 25.6796 13.274C25.558 13.3867 25.4003 13.4457 25.2245 13.4323C25.1028 13.4323 24.9087 13.3779 24.7509 13.1119C23.768 11.6737 22.4829 10.5463 20.9365 9.76624C19.3853 8.98167 17.7207 8.57994 15.9892 8.57092C14.2487 8.57096 12.5894 8.96804 11.0654 9.75257C9.54578 10.5371 8.26966 11.6735 7.28216 13.1344C7.1424 13.3147 6.99817 13.4229 6.83587 13.4635C6.7819 13.477 6.73688 13.482 6.68743 13.4821C6.5747 13.4821 6.46572 13.4502 6.37102 13.3961C6.20882 13.3104 6.11389 13.1659 6.08684 12.9811C6.06434 12.8144 6.09163 12.6612 6.15911 12.526C7.28633 10.8398 8.72057 9.53657 10.4384 8.63928C12.1699 7.73298 14.0281 7.27307 15.9941 7.27307ZM12.5038 4.95081C14.9296 4.33766 17.2787 4.36434 19.4745 4.94592C20.5927 5.23448 21.6931 5.67181 22.7392 6.23987C22.915 6.31652 23.041 6.47041 23.0771 6.65979C23.1041 6.82195 23.0862 6.97483 23.0097 7.10999C22.9331 7.23171 22.834 7.32669 22.6943 7.40784C22.5185 7.49799 22.3248 7.48898 22.1445 7.38538C21.2201 6.90743 20.2094 6.51552 19.1542 6.23596C18.1262 5.96096 17.0574 5.82092 15.9843 5.82092C14.8346 5.82094 13.9776 5.92458 12.8144 6.20862C11.6104 6.50628 9.85638 7.39026 9.85638 7.39026C9.72585 7.45323 9.61325 7.48494 9.5097 7.48499C9.45108 7.48499 9.39681 7.47531 9.3427 7.45276H9.33392C9.20766 7.40316 9.09867 7.31339 9.01751 7.18714C8.923 7.07441 8.92354 6.88948 8.93255 6.76331C8.95509 6.47924 9.11715 6.35723 9.21184 6.31214C10.2399 5.70344 11.354 5.24389 12.5038 4.95081Z" fill="currentColor"/>
</g>
<defs>
<clipPath id="clip0_926_3606">
<rect width="32" height="32" fill="currentColor"/>
</clipPath>
</defs>
</svg>
