<?xml version="1.0" encoding="utf-8"?>
<!-- Generator: Adobe Illustrator 27.8.1, SVG Export Plug-In . SVG Version: 6.00 Build 0)  -->
<svg version="1.1" id="Calque_2_00000023270762568587993370000003907931627912988316_"
	 xmlns="http://www.w3.org/2000/svg" xmlns:xlink="http://www.w3.org/1999/xlink" x="0px" y="0px" viewBox="0 0 48 48"
	 style="enable-background:new 0 0 48 48;" xml:space="preserve">
<style type="text/css">
	.st0{fill:#E6195E;}
</style>
<g id="Calque_1-2">
	<path class="st0" d="M6.1,19c-0.2-0.1-0.3-0.2-0.3-0.4c0-0.2,0-0.4,0.1-0.6c2-2.9,4.7-5.2,7.8-6.8S20.4,8.7,24,8.7s7,0.8,10.1,2.3
		c3.2,1.5,5.8,3.8,7.9,6.6c0.2,0.2,0.2,0.5,0.2,0.6s-0.1,0.4-0.3,0.5s-0.3,0.2-0.6,0.2c-0.2,0-0.4-0.1-0.5-0.4
		c-1.9-2.7-4.3-4.7-7.3-6.2c-3-1.4-6.1-2.2-9.5-2.2s-6.5,0.7-9.4,2.2c-2.9,1.4-5.3,3.5-7.3,6.2c-0.2,0.2-0.4,0.4-0.6,0.4
		C6.5,19.1,6.3,19.1,6.1,19L6.1,19z M30.2,44.2c-3.7-0.8-6.6-2.6-8.9-5.2S18,33.2,18,29.5c0-1.6,0.6-3,1.8-4.2
		c1.2-1.1,2.6-1.7,4.2-1.7s3.1,0.6,4.2,1.7s1.8,2.5,1.8,4.1c0,1.2,0.4,2.2,1.3,3.1c0.9,0.8,2,1.2,3.2,1.2s2.2-0.4,3.1-1.2
		c0.9-0.8,1.3-1.8,1.3-3.1c0-4-1.5-7.3-4.4-10s-6.4-4.1-10.5-4.1s-7.6,1.4-10.5,4.1s-4.4,6.1-4.4,10.1c0,1,0.1,2.2,0.3,3.4
		s0.5,2.5,1,3.9c0.1,0.3,0.1,0.5,0,0.6s-0.2,0.3-0.4,0.3c-0.2,0.1-0.4,0.1-0.6,0c-0.2,0-0.4-0.2-0.5-0.5c-0.4-1-0.7-2.2-0.9-3.5
		S7.6,31,7.6,29.5c0-4.3,1.6-8.1,4.9-11.2c3.2-3.1,7.1-4.7,11.5-4.7c4.5,0,8.4,1.5,11.6,4.6s4.8,6.8,4.8,11.2c0,1.6-0.6,3-1.7,4.1
		c-1.1,1.1-2.6,1.7-4.2,1.7s-3.1-0.6-4.3-1.7c-1.2-1.1-1.8-2.5-1.8-4.1c0-1.2-0.4-2.3-1.3-3.1C26.2,25.4,25.2,25,24,25
		s-2.2,0.4-3.1,1.3s-1.3,1.9-1.3,3.1c0,3.4,1,6.3,3,8.6s4.7,3.9,8.1,4.8c0.3,0,0.4,0.2,0.5,0.3s0.1,0.3,0.1,0.5S31.2,44,31,44.1
		S30.5,44.3,30.2,44.2L30.2,44.2z M12.3,8.2c-0.3,0.1-0.5,0.2-0.6,0.1S11.4,8.1,11.3,8c-0.1-0.1-0.1-0.3-0.1-0.5s0.1-0.4,0.3-0.5
		c1.9-1.1,4-1.9,6.1-2.4s4.3-0.8,6.4-0.8c2.2,0,4.3,0.3,6.4,0.8s4.1,1.3,6,2.3c0.2,0.1,0.4,0.3,0.4,0.5s0,0.4-0.1,0.5
		c-0.1,0.2-0.2,0.3-0.4,0.4c-0.2,0.1-0.4,0.1-0.6,0c-1.8-1-3.7-1.7-5.7-2.2s-4-0.8-6-0.8S19.9,5.5,17.9,6S14.1,7.2,12.3,8.2
		L12.3,8.2z M18.8,43.5c-1.9-2-3.4-4.1-4.4-6.4c-1-2.3-1.5-4.8-1.5-7.7c0-3,1.1-5.6,3.3-7.7s4.8-3.2,7.9-3.2s5.7,1,8,3.1
		c2.2,2.1,3.3,4.6,3.3,7.6c0,0.3-0.1,0.5-0.2,0.6C35.1,30,34.9,30,34.6,30s-0.5-0.1-0.6-0.2s-0.2-0.4-0.2-0.6c0-2.6-1-4.8-2.9-6.6
		c-1.9-1.8-4.2-2.7-6.8-2.7S19,21,17.2,22.8c-1.9,1.8-2.8,4-2.8,6.6c0,2.7,0.4,5.1,1.4,7.1c0.9,2,2.3,4,4.2,6
		c0.2,0.2,0.3,0.4,0.3,0.6c0,0.2-0.1,0.3-0.2,0.5s-0.3,0.2-0.6,0.3C19.2,43.8,18.9,43.7,18.8,43.5L18.8,43.5z M34.5,40
		c-3.1,0-5.8-1-8-2.9s-3.3-4.5-3.3-7.8c0-0.2,0.1-0.4,0.2-0.6s0.3-0.2,0.6-0.2s0.4,0.1,0.6,0.2c0.1,0.2,0.2,0.4,0.2,0.6
		c0,2.8,1,5.1,2.9,6.7c2,1.6,4.2,2.4,6.9,2.4c0.3,0,0.7,0,1.1-0.1c0.4,0,0.8-0.1,1.2-0.1c0.2,0,0.4,0,0.6,0.2s0.2,0.3,0.2,0.4
		c0,0.2,0,0.4-0.1,0.5s-0.2,0.2-0.4,0.3c-0.5,0.2-1,0.3-1.5,0.3C35.1,40,34.7,40,34.5,40L34.5,40z"/>
</g>
</svg>
