<?xml version="1.0" encoding="UTF-8"?>
<!DOCTYPE svg PUBLIC "-//W3C//DTD SVG 1.1//EN" "http://www.w3.org/Graphics/SVG/1.1/DTD/svg11.dtd">
<svg xmlns="http://www.w3.org/2000/svg" height="24" width="24"><path fill="#FFFFFF" d="M16.254 10.16H7.44V8.454h8.814m0 5.115H7.44v-1.705h8.814M13.6 16.98H7.44v-1.705h6.17m-1.763-10.23a.881.853 0 0 1 .881.853.881.853 0 0 1-.881.853.881.853 0 0 1-.881-.853.881.853 0 0 1 .881-.853m6.17 0h-3.684a2.65 2.65 0 0 0-2.485-1.705 2.65 2.65 0 0 0-2.485 1.705H5.678a1.763 1.705 0 0 0-1.763 1.705v11.936a1.763 1.705 0 0 0 1.763 1.705h12.34a1.763 1.705 0 0 0 1.763-1.705V6.75a1.763 1.705 0 0 0-1.763-1.705z"/></svg>
