<svg width="33" height="32" viewBox="0 0 33 32" fill="none" xmlns="http://www.w3.org/2000/svg">
<path d="M21.1316 22.5455H13.6053V12.3636H21.1316M21.1316 10.9091H13.6053C13.2423 10.9091 12.8943 11.0623 12.6376 11.3351C12.381 11.6079 12.2368 11.9779 12.2368 12.3636V22.5455C12.2368 22.9312 12.381 23.3012 12.6376 23.574C12.8943 23.8468 13.2423 24 13.6053 24H21.1316C21.4945 24 21.8426 23.8468 22.0992 23.574C22.3558 23.3012 22.5 22.9312 22.5 22.5455V12.3636C22.5 11.9779 22.3558 11.6079 22.0992 11.3351C21.8426 11.0623 21.4945 10.9091 21.1316 10.9091ZM19.0789 8H10.8684C10.5055 8 10.1574 8.15325 9.9008 8.42603C9.64417 8.69881 9.5 9.06878 9.5 9.45455V19.6364H10.8684V9.45455H19.0789V8Z" fill="currentColor"/>
</svg>
