<svg width="32" height="32" viewBox="0 0 32 32" xmlns="http://www.w3.org/2000/svg">
    <path d="M24.81 8.296h-3.49L19.956 6.81a2.19 2.19 0 0 0-1.617-.715h-4.667c-.616 0-1.21.264-1.629.715L10.69 8.296H7.2c-1.21 0-2.201.99-2.201 2.201v13.207c0 1.21.99 2.2 2.201 2.2h7.704v-2.3c-2.696-.461-4.853-2.552-5.382-5.227-.132-.671.418-1.276 1.09-1.276.54 0 .968.385 1.078.913a4.414 4.414 0 0 0 4.314 3.489 4.393 4.393 0 0 0 4.304-3.489c.11-.528.55-.913 1.078-.913.671 0 1.222.605 1.09 1.276a6.625 6.625 0 0 1-5.382 5.228v2.3h7.704c1.21 0 2.2-.99 2.2-2.201V10.497a2.191 2.191 0 0 0-2.19-2.2Zm-6.603 8.805c0 1.21-.99 2.2-2.202 2.2-1.21 0-2.2-.99-2.2-2.2v-4.403c0-1.21.99-2.2 2.2-2.2 1.211 0 2.202.99 2.202 2.2z" style="stroke-width:1.10055" fill="currentColor"/>
</svg>
