<svg width="32" height="32" viewBox="0 0 32 32" fill="none" xmlns="http://www.w3.org/2000/svg">
<path fill-rule="evenodd" clip-rule="evenodd" d="M11.3898 16.6232C11.3898 19.1682 13.4551 21.2337 15.9999 21.2337C18.5446 21.2337 20.6099 19.1682 20.6099 16.6232C20.6099 14.0782 18.5446 12.0127 15.9999 12.0127C13.4551 12.0127 11.3898 14.0782 11.3898 16.6232ZM11.5466 9.24642L13.2339 7.40222H18.7659L20.4532 9.24642H23.376C24.3948 9.24642 25.22 10.0717 25.22 11.0906V22.1558C25.22 23.1747 24.3948 24 23.376 24H8.62381C7.60498 24 6.77979 23.1747 6.77979 22.1558V11.0906C6.77979 10.0717 7.60498 9.24642 8.62381 9.24642H11.5466ZM18.9503 16.6233C18.9503 14.9934 17.6291 13.6725 15.9999 13.6725C14.3702 13.6725 13.0495 14.9934 13.0495 16.6233C13.0495 18.2526 14.3702 19.574 15.9999 19.574C17.6291 19.574 18.9503 18.2526 18.9503 16.6233Z" fill="currentColor"/>
</svg>
