<?xml version="1.0" encoding="utf-8"?>
<!-- Generator: Adobe Illustrator 22.0.1, SVG Export Plug-In . SVG Version: 6.00 Build 0)  -->
<svg version="1.1" id="Calque_1" xmlns="http://www.w3.org/2000/svg" xmlns:xlink="http://www.w3.org/1999/xlink" x="0px" y="0px"
	 viewBox="0 0 400 300" style="enable-background:new 0 0 400 300;" xml:space="preserve">
<style type="text/css">
	.st0{fill:#CDCCCC;}
</style>
<g>
	<path class="st0" d="M342,34.6H58.1C31.6,34.6,10,56.2,10,82.7v139.6c0,26.5,21.6,48.1,48.1,48.1H342c26.5,0,48.1-21.6,48.1-48.1
		V82.7C390.1,56.2,368.5,34.6,342,34.6z M342,262.6H58.1c-22.2,0-40.3-18.1-40.3-40.3V82.7c0-22.2,18.1-40.3,40.3-40.3H342
		c22.2,0,40.3,18.1,40.3,40.3v139.6C382.3,244.5,364.2,262.6,342,262.6z"/>
	<path class="st0" d="M162.5,91.8l-1.5,0l0.1-13.7l0,0c0,0,0-0.1,0-0.1c0,0,0.1-2.2-1.2-3.7c-1.3-1.5-2.5-1.8-2.5-1.8
		c-0.6-0.3-1.6-0.6-2.2-0.7c0,0-1.8-0.5-7.1-1.2c-3.1-0.4-8.1-0.9-10.9-1.1c-3.2-0.2-7.5-0.5-11.6-0.7c-4.7-0.2-9-0.1-10.3-0.1
		c-1.4,0-5.7-0.1-10.3,0c-4.1,0.1-8.4,0.4-11.6,0.5c-2.9,0.1-7.8,0.6-10.9,1c-5.3,0.7-7.1,1.2-7.1,1.2c-0.6,0.1-1.6,0.4-2.2,0.7
		c0,0-1.2,0.3-2.5,1.8c-1.3,1.5-1.3,3.7-1.3,3.7c0,0.1,0,0.1,0,0.1l-0.1,26l-1.6,0c-0.1,0-0.1,0.1-0.1,0.1l-0.2,28.8
		c0,0.1,0.1,0.1,0.1,0.1l1.6,0l-0.5,90.1c0,0,0,0.1,0,0.1c0,0-0.1,2.2,1.2,3.7c1.3,1.5,2.5,1.8,2.5,1.8c0.6,0.3,1.6,0.6,2.2,0.7
		c0,0,1.8,0.5,7.1,1.2c3.1,0.4,8,0.9,10.9,1.1c3.2,0.2,7.5,0.5,11.6,0.7c4.7,0.2,9,0.1,10.3,0.1c1.4,0,5.7,0.1,10.3,0
		c4.1-0.1,8.4-0.4,11.6-0.5c2.9-0.1,7.8-0.6,10.9-1c5.3-0.7,7.1-1.2,7.1-1.2c0.6-0.1,1.6-0.4,2.2-0.7c0,0,1.2-0.3,2.5-1.8
		c1.3-1.5,1.3-3.7,1.3-3.7c0,0,0-0.1,0-0.1l0,0l0.6-119.6l1.5,0c0.1,0,0.1-0.1,0.1-0.1l0.1-11.6C162.7,91.8,162.6,91.8,162.5,91.8z
		 M115.2,75.1c1.1,0,2,0.9,2,2.1c0,1.1-0.9,2-2.1,2c-1.1,0-2-0.9-2-2.1C113.2,76.1,114.1,75.1,115.2,75.1z M152.7,211.9l-76.4-0.4
		L77,84.4l76.4,0.4L152.7,211.9z"/>
	<path class="st0" d="M115.4,122c-14.6-0.1-26.4,11.7-26.5,26.2c-0.1,14.6,11.7,26.4,26.2,26.5c14.6,0.1,26.4-11.7,26.5-26.2
		C141.7,134,129.9,122.1,115.4,122z M125.9,149.8l-16.5,9.4c-0.9,0.5-2.1-0.1-2.1-1.2l0.1-19c0-1.1,1.2-1.7,2.1-1.2l16.4,9.6
		C126.8,147.9,126.8,149.2,125.9,149.8z"/>
	<g>
		<path class="st0" d="M207.2,132.7c0.3,0,0.5,0.1,0.7,0.3l1.9,2.1c-1.1,1.3-2.4,2.3-3.9,3c-1.5,0.7-3.4,1-5.5,1
			c-1.9,0-3.7-0.3-5.2-1c-1.5-0.7-2.8-1.6-3.9-2.8c-1.1-1.2-1.9-2.6-2.5-4.2c-0.6-1.6-0.9-3.4-0.8-5.3c0-2,0.3-3.7,1-5.4
			s1.6-3,2.8-4.2c1.2-1.2,2.6-2.1,4.2-2.7c1.6-0.6,3.4-1,5.4-1c1.9,0,3.6,0.3,5.1,1c1.4,0.6,2.7,1.5,3.7,2.5l-1.6,2.2
			c-0.1,0.1-0.2,0.3-0.4,0.4c-0.1,0.1-0.4,0.2-0.6,0.2c-0.3,0-0.6-0.1-0.8-0.3s-0.7-0.5-1.1-0.7c-0.4-0.3-1-0.5-1.7-0.7
			c-0.7-0.2-1.5-0.3-2.6-0.3c-1.2,0-2.3,0.2-3.4,0.6c-1,0.4-1.9,1-2.7,1.8c-0.7,0.8-1.3,1.7-1.7,2.9c-0.4,1.1-0.6,2.4-0.6,3.8
			c0,1.5,0.2,2.8,0.6,3.9c0.4,1.1,1,2.1,1.7,2.9c0.7,0.8,1.5,1.4,2.5,1.8c1,0.4,2,0.6,3.1,0.6c0.7,0,1.3,0,1.8-0.1
			c0.5-0.1,1-0.2,1.5-0.3c0.5-0.2,0.9-0.4,1.3-0.6c0.4-0.2,0.8-0.5,1.2-0.9c0.1-0.1,0.2-0.2,0.4-0.3
			C206.9,132.7,207,132.7,207.2,132.7z"/>
		<path class="st0" d="M218.2,134.9l10.4,0.1l0,4l-15.2-0.1l0.1-26l4.8,0L218.2,134.9z"/>
		<path class="st0" d="M237.4,139l-4.9,0l0.1-26l4.9,0L237.4,139z"/>
		<path class="st0" d="M261.1,133c0.3,0,0.5,0.1,0.7,0.3l1.9,2.1c-1.1,1.3-2.4,2.3-3.9,3c-1.5,0.7-3.4,1-5.5,1c-1.9,0-3.7-0.3-5.2-1
			s-2.8-1.6-3.9-2.8c-1.1-1.2-1.9-2.6-2.5-4.2s-0.9-3.4-0.8-5.3c0-2,0.3-3.7,1-5.4c0.7-1.6,1.6-3,2.8-4.2c1.2-1.2,2.6-2.1,4.2-2.7
			c1.6-0.6,3.4-1,5.4-1c1.9,0,3.6,0.3,5.1,1c1.4,0.6,2.7,1.5,3.7,2.5l-1.6,2.2c-0.1,0.1-0.2,0.3-0.4,0.4c-0.1,0.1-0.4,0.2-0.6,0.2
			c-0.3,0-0.6-0.1-0.8-0.3c-0.3-0.2-0.7-0.5-1.1-0.7c-0.4-0.3-1-0.5-1.7-0.7c-0.7-0.2-1.5-0.3-2.6-0.3c-1.2,0-2.3,0.2-3.4,0.6
			c-1,0.4-1.9,1-2.7,1.8c-0.7,0.8-1.3,1.7-1.7,2.9c-0.4,1.1-0.6,2.4-0.6,3.8c0,1.5,0.2,2.8,0.6,3.9c0.4,1.1,1,2.1,1.7,2.9
			s1.5,1.4,2.5,1.8c1,0.4,2,0.6,3.1,0.6c0.7,0,1.3,0,1.8-0.1c0.5-0.1,1-0.2,1.5-0.3c0.5-0.2,0.9-0.4,1.3-0.6
			c0.4-0.2,0.8-0.5,1.2-0.9c0.1-0.1,0.2-0.2,0.4-0.3C260.8,133,261,133,261.1,133z"/>
		<path class="st0" d="M272.4,124.1l1.1,0c0.5,0,0.8-0.1,1.1-0.2c0.3-0.1,0.6-0.3,0.8-0.6l7.2-9c0.3-0.4,0.6-0.6,0.9-0.8
			c0.3-0.1,0.7-0.2,1.3-0.2l4.2,0l-8.8,10.8c-0.3,0.3-0.5,0.6-0.8,0.8c-0.3,0.2-0.5,0.4-0.8,0.6c0.4,0.1,0.8,0.4,1.1,0.6
			c0.3,0.3,0.6,0.6,0.9,1l9,12.2l-4.3,0c-0.6,0-1-0.1-1.3-0.2c-0.3-0.2-0.5-0.4-0.7-0.7l-7.3-9.6c-0.2-0.3-0.5-0.5-0.8-0.7
			c-0.3-0.1-0.7-0.2-1.3-0.2l-1.5,0l-0.1,11.4l-4.8,0l0.1-26l4.8,0L272.4,124.1z"/>
		<path class="st0" d="M319.8,113.4l0,4l-7.8,0l-0.1,22l-4.8,0l0.1-22l-7.9,0l0-4L319.8,113.4z"/>
		<path class="st0" d="M346.3,126.6c0,1.9-0.3,3.7-1,5.3c-0.6,1.6-1.5,3-2.7,4.2c-1.2,1.2-2.5,2.1-4.2,2.8c-1.6,0.7-3.4,1-5.4,1
			c-2,0-3.8-0.4-5.4-1s-3-1.6-4.2-2.8c-1.2-1.2-2-2.6-2.7-4.2c-0.6-1.6-0.9-3.4-0.9-5.3c0-1.9,0.3-3.7,1-5.3c0.6-1.6,1.5-3,2.7-4.2
			c1.2-1.2,2.6-2.1,4.2-2.8c1.6-0.7,3.4-1,5.4-1c2,0,3.8,0.4,5.4,1c1.6,0.7,3,1.6,4.1,2.8c1.1,1.2,2,2.6,2.7,4.2
			C346,122.9,346.3,124.7,346.3,126.6z M341.3,126.5c0-1.4-0.2-2.7-0.5-3.8c-0.4-1.1-0.9-2.1-1.6-2.9c-0.7-0.8-1.6-1.4-2.6-1.8
			c-1-0.4-2.2-0.6-3.4-0.6c-1.3,0-2.4,0.2-3.4,0.6c-1,0.4-1.9,1-2.6,1.8c-0.7,0.8-1.3,1.7-1.7,2.9c-0.4,1.1-0.6,2.4-0.6,3.8
			c0,1.4,0.2,2.7,0.6,3.8c0.4,1.1,0.9,2.1,1.6,2.9c0.7,0.8,1.6,1.4,2.6,1.8c1,0.4,2.2,0.6,3.4,0.6c1.3,0,2.4-0.2,3.4-0.6
			c1-0.4,1.9-1,2.6-1.8c0.7-0.8,1.3-1.7,1.6-2.9C341.1,129.3,341.3,128,341.3,126.5z"/>
		<path class="st0" d="M214.6,171.9c0,2.1-0.4,4-1.1,5.7c-0.7,1.7-1.7,3.2-3,4.5c-1.3,1.3-2.8,2.2-4.6,2.9c-1.8,0.7-3.7,1-5.9,1
			l-10.9-0.1l0.2-28.5l10.9,0.1c2.2,0,4.1,0.4,5.9,1.1c1.8,0.7,3.3,1.7,4.5,3c1.3,1.3,2.2,2.8,2.9,4.5
			C214.3,167.9,214.6,169.8,214.6,171.9z M209.2,171.8c0-1.6-0.2-3-0.6-4.2c-0.4-1.2-1-2.3-1.8-3.2c-0.8-0.9-1.7-1.5-2.8-2
			c-1.1-0.5-2.4-0.7-3.7-0.7l-5.5,0l-0.1,20l5.5,0c1.4,0,2.6-0.2,3.8-0.7c1.1-0.5,2.1-1.1,2.8-2c0.8-0.9,1.4-1.9,1.8-3.1
			C209,174.8,209.2,173.4,209.2,171.8z"/>
		<path class="st0" d="M224.7,186.2l-5.3,0l0.2-28.5l5.3,0L224.7,186.2z"/>
		<path class="st0" d="M246.4,163c-0.1,0.3-0.3,0.5-0.5,0.6c-0.2,0.1-0.4,0.2-0.7,0.2c-0.3,0-0.6-0.1-0.9-0.3
			c-0.3-0.2-0.7-0.4-1.2-0.7c-0.4-0.3-1-0.5-1.6-0.7c-0.6-0.2-1.3-0.3-2.1-0.3c-0.7,0-1.4,0.1-1.9,0.3c-0.5,0.2-1,0.4-1.4,0.7
			c-0.4,0.3-0.7,0.7-0.8,1.1s-0.3,0.9-0.3,1.4c0,0.7,0.2,1.2,0.6,1.7c0.4,0.4,0.9,0.8,1.5,1.1c0.6,0.3,1.3,0.6,2.1,0.9
			c0.8,0.3,1.6,0.5,2.4,0.8c0.8,0.3,1.6,0.6,2.4,1c0.8,0.4,1.5,0.9,2.1,1.4c0.6,0.6,1.1,1.3,1.5,2.1c0.4,0.8,0.6,1.8,0.5,3
			c0,1.3-0.2,2.5-0.7,3.6c-0.4,1.1-1.1,2.1-1.9,2.9c-0.9,0.8-1.9,1.5-3.1,2c-1.2,0.5-2.6,0.7-4.2,0.7c-0.9,0-1.8-0.1-2.7-0.3
			c-0.9-0.2-1.7-0.4-2.5-0.8c-0.8-0.3-1.6-0.7-2.3-1.2c-0.7-0.5-1.3-1-1.9-1.5l1.5-2.5c0.1-0.2,0.3-0.3,0.5-0.5
			c0.2-0.1,0.4-0.2,0.7-0.2c0.3,0,0.7,0.1,1.1,0.4c0.4,0.3,0.8,0.6,1.3,0.9c0.5,0.3,1.1,0.6,1.8,0.9c0.7,0.3,1.5,0.4,2.5,0.4
			c1.5,0,2.7-0.3,3.5-1.1c0.8-0.7,1.2-1.7,1.3-3.1c0-0.7-0.2-1.4-0.6-1.8c-0.4-0.5-0.9-0.9-1.5-1.2c-0.6-0.3-1.3-0.6-2.1-0.8
			c-0.8-0.2-1.6-0.5-2.4-0.7c-0.8-0.3-1.6-0.6-2.4-1c-0.8-0.4-1.5-0.9-2.1-1.4s-1.1-1.3-1.5-2.2c-0.4-0.9-0.6-2-0.5-3.3
			c0-1,0.2-2,0.6-3s1-1.9,1.8-2.6s1.8-1.4,2.9-1.8s2.5-0.7,4-0.7c1.7,0,3.2,0.3,4.6,0.8c1.4,0.5,2.6,1.3,3.6,2.2L246.4,163z"/>
		<path class="st0" d="M257.7,176.3l-0.1,10l-5.3,0l0.2-28.5l9.3,0c1.9,0,3.5,0.2,4.9,0.7c1.4,0.5,2.5,1.1,3.4,1.9
			c0.9,0.8,1.6,1.8,2,2.9c0.4,1.1,0.6,2.3,0.6,3.7c0,1.4-0.2,2.6-0.7,3.8c-0.5,1.1-1.2,2.1-2.1,3c-0.9,0.8-2.1,1.5-3.5,1.9
			c-1.4,0.5-3,0.7-4.8,0.7L257.7,176.3z M257.7,172.2l4,0c1,0,1.8-0.1,2.5-0.4c0.7-0.2,1.3-0.6,1.8-1c0.5-0.5,0.8-1,1.1-1.6
			c0.2-0.6,0.4-1.4,0.4-2.2c0-0.8-0.1-1.5-0.3-2.1c-0.2-0.6-0.6-1.1-1.1-1.6c-0.5-0.4-1.1-0.8-1.8-1c-0.7-0.2-1.6-0.4-2.5-0.4l-4,0
			L257.7,172.2z"/>
		<path class="st0" d="M282.1,182.1l11.4,0.1l0,4.4l-16.7-0.1l0.2-28.5l5.3,0L282.1,182.1z"/>
		<path class="st0" d="M324.8,186.7l-4.1,0c-0.5,0-0.8-0.1-1.1-0.4c-0.3-0.2-0.5-0.5-0.6-0.9l-2.1-5.8l-11.8-0.1l-2.2,5.8
			c-0.1,0.3-0.3,0.6-0.6,0.8c-0.3,0.2-0.7,0.4-1.1,0.4l-4.1,0l11.3-28.4l5.4,0L324.8,186.7z M306.5,175.8l9.1,0l-3.4-9.5
			c-0.2-0.4-0.3-0.9-0.5-1.5c-0.2-0.6-0.4-1.2-0.5-1.9c-0.2,0.7-0.4,1.3-0.6,1.9c-0.2,0.6-0.4,1.1-0.5,1.5L306.5,175.8z"/>
		<path class="st0" d="M336.9,175.7l-0.1,11.1l-5.3,0l0.1-11.1l-10.3-17.5l4.7,0c0.5,0,0.8,0.1,1.1,0.3c0.3,0.2,0.5,0.5,0.7,0.8
			l5.2,9.5c0.3,0.6,0.6,1.1,0.8,1.6c0.2,0.5,0.4,1,0.6,1.5c0.2-0.5,0.4-1,0.6-1.5c0.2-0.5,0.5-1,0.8-1.6l5.2-9.5
			c0.1-0.3,0.4-0.6,0.7-0.8c0.3-0.2,0.7-0.4,1.1-0.4l4.7,0L336.9,175.7z"/>
	</g>
</g>
</svg>
