<svg width="62" height="62" viewBox="0 0 62 62" fill="none" xmlns="http://www.w3.org/2000/svg">
<path d="M56.8333 45.2084L46.5 34.8751V39.2022L41.3333 34.0355V15.5001H22.7979L17.6313 10.3334H41.3333C42.7542 10.3334 43.9705 10.8393 44.9823 11.8511C45.9941 12.8629 46.5 14.0792 46.5 15.5001V27.1251L56.8333 16.7917V45.2084ZM53.0875 60.3209L1.67917 8.91257L5.29584 5.2959L56.7042 56.7042L53.0875 60.3209ZM10.3333 10.3334L15.5 15.5001H10.3333V46.5001H41.3333V41.3334L46.5 46.5001C46.5 47.9209 45.9941 49.1372 44.9823 50.149C43.9705 51.1608 42.7542 51.6667 41.3333 51.6667H10.3333C8.9125 51.6667 7.69618 51.1608 6.68438 50.149C5.67257 49.1372 5.16667 47.9209 5.16667 46.5001V15.5001C5.16667 14.0792 5.67257 12.8629 6.68438 11.8511C7.69618 10.8393 8.9125 10.3334 10.3333 10.3334Z" fill="#C4C4C4" fill-opacity="0.3"/>
</svg>
