<?xml version="1.0" encoding="utf-8"?>
<!-- Generator: Adobe Illustrator 22.0.0, SVG Export Plug-In . SVG Version: 6.00 Build 0)  -->
<svg version="1.1" id="Layer_1" xmlns="http://www.w3.org/2000/svg" xmlns:xlink="http://www.w3.org/1999/xlink" x="0px" y="0px"
	 viewBox="0 0 58 39" style="enable-background:new 0 0 58 39;" xml:space="preserve">
<style type="text/css">
	.st0{fill:#FFFFFF;}
</style>
<title>Group 5</title>
<desc>Created with Sketch.</desc>
<g id="Page-1">
	<g id="G-APPS--2560x1440_4" transform="translate(-1251.000000, -681.000000)">
		<g id="Group-2" transform="translate(1196.000000, 681.000000)">
			<g id="Group-3" transform="translate(29.000000, 0.000000)">
				<g id="Group-4">
					<g>
						<path class="st0" d="M72.8,14.7C71.1,6.3,63.8,0,55,0c-7,0-13,4-16.1,9.8c-7.3,0.8-12.9,7-12.9,14.5C26,32.5,32.5,39,40.5,39
							h31.4C78.6,39,84,33.5,84,26.8C84,20.4,79,15.2,72.8,14.7z M51.4,31.1l-7.4-7.3l2.7-2.6l4.7,4.7l12-11.8l2.7,2.6L51.4,31.1z"
							/>
					</g>
				</g>
			</g>
		</g>
	</g>
</g>
</svg>
