<svg width="32" height="32" viewBox="0 0 32 32" fill="none" xmlns="http://www.w3.org/2000/svg">
<path d="M22.6226 14.3425V9.37251C22.6226 8.76751 22.4076 8.24751 21.9726 7.81251C21.5376 7.37751 21.0176 7.16251 20.4126 7.16251H7.16264C6.55764 7.16251 6.03264 7.37751 5.60264 7.81251C5.16764 8.24751 4.95264 8.76751 4.95264 9.37251V22.6275C4.95264 23.2325 5.16764 23.7525 5.60264 24.1875C6.03764 24.6225 6.55764 24.8375 7.16264 24.8375H20.4176C21.0226 24.8375 21.5476 24.6225 21.9776 24.1875C22.4126 23.7525 22.6276 23.2325 22.6276 22.6275V17.6575L27.0476 22.0775V9.92751L22.6276 14.3475L22.6226 14.3425ZM12.2976 12.0375C12.2976 11.6275 12.4426 11.2775 12.7376 10.9875C13.0276 10.6975 13.3776 10.5475 13.7876 10.5475C14.1976 10.5475 14.5476 10.6925 14.8376 10.9875C15.1276 11.2775 15.2776 11.6275 15.2776 12.0375V15.0175C15.2776 15.4275 15.1326 15.7775 14.8376 16.0675C14.5476 16.3575 14.1976 16.5075 13.7876 16.5075C13.3776 16.5075 13.0276 16.3625 12.7376 16.0675C12.4476 15.7775 12.2976 15.4275 12.2976 15.0175V12.0375ZM17.1976 17.9125C16.4876 18.7375 15.6026 19.2375 14.5326 19.4125V21.7225H13.0426V19.4125C11.9726 19.2375 11.0876 18.7375 10.3776 17.9125C9.66764 17.0875 9.31764 16.1225 9.31764 15.0175H10.8076C10.8076 15.8375 11.0976 16.5375 11.6826 17.1225C12.2676 17.7075 12.9676 17.9975 13.7876 17.9975C14.6076 17.9975 15.3076 17.7075 15.8926 17.1225C16.4776 16.5375 16.7676 15.8375 16.7676 15.0175H18.2576C18.2576 16.1225 17.9026 17.0875 17.1976 17.9125Z" fill="currentColor"/>
</svg>
