<?xml version="1.0" encoding="UTF-8"?>
<svg width="58px" height="39px" viewBox="0 0 58 39" version="1.1" xmlns="http://www.w3.org/2000/svg" xmlns:xlink="http://www.w3.org/1999/xlink">
    <!-- Generator: Sketch 47.1 (45422) - http://www.bohemiancoding.com/sketch -->
    <title>Group 2</title>
    <desc>Created with Sketch.</desc>
    <defs></defs>
    <g id="Page-1" stroke="none" stroke-width="1" fill="none" fill-rule="evenodd">
        <g id="G-APPS--2560x1440_5" transform="translate(-1251.000000, -681.000000)">
            <g id="Group-6" transform="translate(1182.000000, 681.000000)">
                <g id="Group-3">
                    <g id="Group-4">
                        <g id="Group-2" transform="translate(69.000000, 0.000000)">
                            <g id="ic_cloud_upload_48px-copy" fill-rule="nonzero" fill="#FFFFFF">
                                <path d="M46.7745833,14.7103125 C45.13125,6.3253125 37.7966667,0 29,0 C22.0158333,0 15.9620833,3.9975 12.9291667,9.8353125 C5.66708333,10.6275 0,16.8309375 0,24.375 C0,32.4553125 6.48875,39 14.5,39 L45.9166667,39 C52.5866667,39 58,33.54 58,26.8125 C58,20.3775 53.03375,15.16125 46.7745833,14.7103125 Z" id="Shape"></path>
                            </g>
                            <polygon id="Shape-Copy-2" stroke="#E6195E" stroke-width="3" fill="#E6195E" points="37 16.5 35.5 15 29.5 21 23.5 15 22 16.5 28 22.5 22 28.5 23.5 30 29.5 24 35.5 30 37 28.5 31 22.5"></polygon>
                        </g>
                    </g>
                </g>
            </g>
        </g>
    </g>
</svg>