<?xml version="1.0" encoding="UTF-8"?>
<svg width="32px" height="32px" viewBox="0 0 32 32" version="1.1" xmlns="http://www.w3.org/2000/svg" xmlns:xlink="http://www.w3.org/1999/xlink">
    <!-- Generator: Sketch 46.2 (44496) - http://www.bohemiancoding.com/sketch -->
    <title>ic_camera_active</title>
    <desc>Created with Sketch.</desc>
    <defs></defs>
    <g id="Symbols" stroke="none" stroke-width="1" fill="none" fill-rule="evenodd">
        <g id="ic_camera_inactive" fill="#FFFFFF">
            <g id="Page-1" transform="translate(5.000000, 5.900000)">
                <path d="M11,7.480055 C12.9437,7.480055 14.52,9.055805 14.52,11.000055 C14.52,12.943755 12.9437,14.520055 11,14.520055 C9.05575,14.520055 7.48,12.943755 7.48,11.000055 C7.48,9.055805 9.05575,7.480055 11,7.480055" id="Fill-1"></path>
                <path d="M11,16.5 C7.964,16.5 5.5,14.036 5.5,11 C5.5,7.964 7.964,5.5 11,5.5 C14.036,5.5 16.5,7.964 16.5,11 C16.5,14.036 14.036,16.5 11,16.5 L11,16.5 Z M7.7,0 L5.687,2.2 L2.2,2.2 C0.9845,2.2 0,3.1845 0,4.4 L0,17.6 C0,18.8155 0.9845,19.8 2.2,19.8 L19.8,19.8 C21.0155,19.8 22,18.8155 22,17.6 L22,4.4 C22,3.1845 21.0155,2.2 19.8,2.2 L16.313,2.2 L14.3,0 L7.7,0 Z" id="Fill-3"></path>
            </g>
        </g>
    </g>
</svg>
