<svg width="32" height="32" viewBox="0 0 32 32" fill="none" xmlns="http://www.w3.org/2000/svg">
<path fill-rule="evenodd" clip-rule="evenodd" d="M25.8996 25.8997C20.4323 31.3668 11.5679 31.3668 6.09962 25.8997C0.633462 20.4326 0.633462 11.5685 6.09962 6.10031C11.5679 0.633231 20.4323 0.633231 25.8996 6.10031C31.3668 11.5685 31.3668 20.4326 25.8996 25.8997Z" stroke="currentColor"/>
<path fill-rule="evenodd" clip-rule="evenodd" d="M15.9997 17.644C15.0959 17.644 14.3562 16.9043 14.3562 16.0005C14.3562 15.0956 15.0959 14.356 15.9997 14.356C16.9121 14.356 17.6443 15.0956 17.6443 16.0005C17.6443 16.9043 16.9121 17.644 15.9997 17.644ZM22.3578 8.2464L12.7267 12.7265L7.03052 24.9683L19.2738 19.2745L23.7626 9.62424C23.0737 9.46442 22.5327 8.92992 22.3578 8.2464Z" fill="currentColor"/>
<path fill-rule="evenodd" clip-rule="evenodd" d="M22.3574 8.24634C22.5324 8.92986 23.0734 9.46437 23.7634 9.62418L24.9696 7.03156L22.3574 8.24634Z" stroke="red" fill="red"/>
</svg>
