<svg width="50" height="49" viewBox="0 0 50 49" fill="none" xmlns="http://www.w3.org/2000/svg">
<g clip-path="url(#clip0_1412_9775)">
<path d="M13.2595 37.8345C9.9909 37.8345 7.08347 35.7417 6.02772 32.626L5.95632 32.3912C5.70733 31.5661 5.60303 30.8723 5.60303 30.178V16.2574L0.649896 32.7912C0.0128561 35.2231 1.46451 37.7444 3.90014 38.4162L35.4714 46.8712C35.8654 46.9732 36.2594 47.0222 36.6475 47.0222C38.6809 47.0222 40.5389 45.6726 41.0597 43.6837L42.899 37.8345H13.2595Z" fill="#C4C4C4"/>
<path d="M49.5 6.69803V30.178C49.5 32.7097 47.4378 34.7719 44.9061 34.7719H13.2594C13.0553 34.7719 12.8511 34.7513 12.6672 34.7308C10.5236 34.4657 8.84946 32.7097 8.68609 30.5455C8.66553 30.4229 8.66553 30.3003 8.66553 30.178V6.69803C8.66553 4.16633 10.7277 2.10417 13.2594 2.10417H44.9061C47.4378 2.10417 49.5 4.16633 49.5 6.69803Z" fill="white"/>
<path d="M22.9578 12.3129C22.9578 14.5679 21.1296 16.3964 18.8746 16.3964C16.6191 16.3964 14.791 14.5679 14.791 12.3129C14.791 10.0578 16.6191 8.22932 18.8746 8.22932C21.1296 8.22932 22.9578 10.0578 22.9578 12.3129Z" fill="#E6195E"/>
<path d="M49.5003 24.4406V30.178C49.5003 32.7097 47.4381 34.7719 44.9064 34.7719H13.2597C13.0555 34.7719 12.8514 34.7513 12.6675 34.7308L33.6973 13.7014C35.0857 12.3129 37.3722 12.3129 38.7607 13.7014L49.5003 24.4406Z" fill="#E6195E" fill-opacity="0.2"/>
<path d="M37.3719 34.7719H13.2593C13.0552 34.7719 12.8511 34.7513 12.6672 34.7308C10.5235 34.4657 8.84941 32.7097 8.68604 30.5455L18.3841 20.8471C19.7725 19.459 22.059 19.459 23.4475 20.8471L37.3719 34.7719Z" fill="#E6195E"/>
</g>
<defs>
<clipPath id="clip0_1412_9775">
<rect width="49" height="49" fill="white" transform="translate(0.5)"/>
</clipPath>
</defs>
</svg>
