<svg width="32" height="32" viewBox="0 0 32 32" fill="none" xmlns="http://www.w3.org/2000/svg">
<path d="M15.4805 5.5C20.1187 5.50009 24.0533 8.50722 25.4424 12.6748C24.7146 12.7129 24.0436 13.0412 23.5869 13.5977L18.8008 19.4307C18.0634 20.3394 18.0441 21.6052 18.7529 22.5234C19.1002 22.9706 19.5715 23.2791 20.0947 23.4219L19.6338 24.7881C19.5339 25.083 19.4955 25.392 19.5098 25.7012C18.2682 26.215 16.9076 26.5 15.4805 26.5C9.68137 26.5 4.98145 21.7995 4.98145 16C4.9817 10.2007 9.68153 5.5 15.4805 5.5ZM25.6377 15.0537C25.7186 15.0823 25.7612 15.1442 25.7422 15.2061L24.2441 19.7402H26.8369C26.9033 19.7403 26.9599 19.764 26.9932 19.8066C27.0265 19.8447 27.0264 19.8965 26.9932 19.9346L22.208 25.6484C22.1747 25.6865 22.1174 25.7109 22.0557 25.7109C22.0367 25.7109 22.0129 25.7059 21.9893 25.7012C21.9084 25.6726 21.8648 25.6107 21.8838 25.5488L22.4648 23.8408L23.3828 21.1338H20.7949C20.7283 21.1338 20.671 21.1102 20.6377 21.0674C20.6044 21.0293 20.6044 20.9765 20.6377 20.9385L25.4189 15.1064C25.4522 15.0684 25.5094 15.0439 25.5713 15.0439C25.595 15.044 25.614 15.049 25.6377 15.0537ZM15.4805 13.374C14.0297 13.374 12.8547 14.5491 12.8545 16C12.8545 17.4511 14.0295 18.627 15.4805 18.627C16.9313 18.6268 18.1064 17.451 18.1064 16C18.1062 14.5492 16.9312 13.3741 15.4805 13.374Z" fill="currentColor"/>
</svg>
