<svg width="32" height="32" viewBox="0 0 32 32" fill="none" xmlns="http://www.w3.org/2000/svg">
<path fill-rule="evenodd" clip-rule="evenodd" d="M17.6945 20.9762C17.9595 21.3174 18.3188 21.5533 18.7181 21.6622L18.366 22.7039C18.2898 22.9289 18.2608 23.1649 18.2717 23.4008C17.3243 23.7928 16.2862 24.0106 15.1974 24.0106C10.7728 24.0106 7.18677 20.4245 7.18677 16C7.18677 11.5755 10.7728 7.98938 15.1974 7.98938C18.7362 7.98938 21.7379 10.2833 22.7978 13.4629C22.2425 13.4919 21.7307 13.7423 21.3822 14.167L17.7308 18.6169C17.1682 19.3102 17.1537 20.2757 17.6945 20.9762ZM13.1938 16C13.1938 17.107 14.0903 18.0035 15.1974 18.0035C16.3044 18.0035 17.2009 17.107 17.2009 16C17.2009 14.8929 16.3044 13.9964 15.1974 13.9964C14.0903 13.9964 13.1938 14.8929 13.1938 16ZM23.8613 18.8529C23.9121 18.8529 23.9556 18.871 23.981 18.9037C24.0065 18.9327 24.0065 18.9726 23.981 19.0017L20.3296 23.3609C20.3042 23.3899 20.2607 23.408 20.2135 23.408C20.199 23.408 20.1808 23.4044 20.1627 23.4008C20.101 23.379 20.0683 23.3318 20.0828 23.2846L20.5256 21.9816L21.2262 19.9163H19.2516C19.2008 19.9163 19.1573 19.8982 19.1319 19.8655C19.1065 19.8365 19.1065 19.7966 19.1319 19.7675L22.7796 15.3176C22.805 15.2886 22.8486 15.2704 22.8958 15.2704C22.9113 15.2704 22.9241 15.2731 22.9389 15.2761C22.9414 15.2766 22.944 15.2771 22.9466 15.2777C23.0083 15.2995 23.041 15.3466 23.0265 15.3938L21.8831 18.8529H23.8613Z" fill="currentColor"/>
</svg>
