<svg width="32" height="32" viewBox="0 0 32 32" fill="none" xmlns="http://www.w3.org/2000/svg">
<path fill-rule="evenodd" clip-rule="evenodd" d="M5.1001 20.4032C5.23343 18.6365 5.7751 16.999 6.7251 15.4907C7.6751 13.9823 8.93343 12.7865 10.5001 11.9032L8.6251 8.67817C8.5751 8.52817 8.57093 8.37817 8.6126 8.22817C8.65426 8.07817 8.74176 7.96151 8.8751 7.87817C9.0251 7.79484 9.1876 7.77817 9.3626 7.82817C9.5376 7.87817 9.66676 7.97817 9.7501 8.12817L11.6001 11.3032C13.0334 10.6865 14.5334 10.3782 16.1001 10.3782C17.6668 10.3782 19.1668 10.6865 20.6001 11.3032L22.4751 8.12817C22.5584 7.97817 22.6876 7.87817 22.8626 7.82817C23.0376 7.77817 23.2001 7.79484 23.3501 7.87817C23.4834 7.96151 23.5793 8.08234 23.6376 8.24067C23.6959 8.39901 23.6834 8.54484 23.6001 8.67817L21.7001 11.9032C23.2668 12.7865 24.5251 13.9823 25.4751 15.4907C26.4251 16.999 26.9668 18.6365 27.1001 20.4032H5.1001ZM11.1001 17.6531C11.4334 17.6531 11.7251 17.5281 11.9751 17.2781C12.2251 17.0281 12.3501 16.7365 12.3501 16.4031C12.3501 16.0698 12.2251 15.7781 11.9751 15.5281C11.7251 15.2781 11.4334 15.1531 11.1001 15.1531C10.7668 15.1531 10.4751 15.2781 10.2251 15.5281C9.9751 15.7781 9.8501 16.0698 9.8501 16.4031C9.8501 16.7365 9.9751 17.0281 10.2251 17.2781C10.4751 17.5281 10.7668 17.6531 11.1001 17.6531ZM21.9751 17.2781C21.7251 17.5281 21.4334 17.6531 21.1001 17.6531C20.7668 17.6531 20.4751 17.5281 20.2251 17.2781C19.9751 17.0281 19.8501 16.7365 19.8501 16.4031C19.8501 16.0698 19.9751 15.7781 20.2251 15.5281C20.4751 15.2781 20.7668 15.1531 21.1001 15.1531C21.4334 15.1531 21.7251 15.2781 21.9751 15.5281C22.2251 15.7781 22.3501 16.0698 22.3501 16.4031C22.3501 16.7365 22.2251 17.0281 21.9751 17.2781Z" fill="white"/>
</svg>
