<?xml version="1.0" encoding="UTF-8"?>
<svg width="38px" height="32px" viewBox="0 0 38 32" version="1.1" xmlns="http://www.w3.org/2000/svg" xmlns:xlink="http://www.w3.org/1999/xlink">
    <!-- Generator: Sketch 46.2 (44496) - http://www.bohemiancoding.com/sketch -->
    <title>ic_diskIO_inactive</title>
    <desc>Created with Sketch.</desc>
    <defs>
        <polygon id="path-1" points="19.1146778 19.3899614 29.8459981 19.3899614 29.8459981 0.27522973 1.33946605e-14 0.27522973 1.33946605e-14 19.3899614 19.1146778 19.3899614 19.1146778 0.275283591 -5.38610038e-05 0.275283591 -5.38610038e-05 19.3900153 19.1146778 19.3900153"></polygon>
        <polygon id="path-3" points="8.30159653 0.0702949786 8.30159653 13.1317975 0.457069238 13.1317975 0.457069238 0.0702949786 8.30159653 0.0702949786"></polygon>
    </defs>
    <g id="Symbols" stroke="none" stroke-width="1" fill="none" fill-rule="evenodd">
        <g id="ic_diskIO_inactive">
            <g id="Group" transform="translate(8.000000, 5.000000)">
                <g id="Group-2">
                    <g id="Page-1" transform="translate(1.000000, 1.000000)">
                        <g id="Group-3" transform="translate(0.000000, 0.263273)">
                            <mask id="mask-2" fill="white">
                                <use xlink:href="#path-1"></use>
                            </mask>
                            <g id="Clip-2"></g>
                        </g>
                        <g id="Group-6" transform="translate(20.544402, 3.494933)">
                            <mask id="mask-4" fill="white">
                                <use xlink:href="#path-3"></use>
                            </mask>
                            <g id="Clip-5"></g>
                        </g>
                    </g>
                    <path d="M11.00031,13.7502325 C9.48090958,13.7502325 8.24976753,12.5197103 8.24976753,10.99969 C8.24976753,9.48028967 9.48090958,8.24976753 11.00031,8.24976753 C12.5190904,8.24976753 13.7502325,9.48028967 13.7502325,10.99969 C13.7502325,12.5197103 12.5190904,13.7502325 11.00031,13.7502325 M11.00031,0 C4.92208853,0 0,4.92270844 0,10.99969 C0,17.0772916 4.92208853,22 11.00031,22 C17.0779115,22 22,17.0772916 22,10.99969 C22,4.92270844 17.0779115,0 11.00031,0" id="Fill-1" fill="#FFFFFF"></path>
                </g>
            </g>
            <path d="M37.8137798,16.6086198 L35.0991042,16.6086198 L36.6696919,11.8600103 C36.6908787,11.7946075 36.6438993,11.7282836 36.5586914,11.7029515 C36.4739442,11.67808 36.3763006,11.7015697 36.3288606,11.7591426 L31.3177187,17.8664717 C31.2836356,17.9083848 31.283175,17.95997 31.3158764,18.0023437 C31.3490384,18.0447173 31.4107565,18.0705099 31.4780016,18.0705099 L34.1912954,18.0705099 L32.62255,22.6947622 C32.6004421,22.7592438 32.6469609,22.8264889 32.7312476,22.8518209 C32.7547373,22.8587297 32.7791482,22.8624143 32.8030985,22.8624143 C32.8657378,22.8624143 32.9269953,22.838464 32.9615391,22.7970116 L37.9731415,16.8140398 C38.0076852,16.7721268 38.0090669,16.7200809 37.9763656,16.6772467 C37.9432036,16.6348731 37.8810249,16.6086198 37.8137798,16.6086198 Z" id="Fill-4" fill="#FFFFFF"></path>
        </g>
    </g>
</svg>