<svg id="Calque_1" xmlns="http://www.w3.org/2000/svg" viewBox="0 0 70 70"><style>.st0{fill:#212121}.st1{fill:#333}.st4{fill:#3d3d3d}</style><ellipse class="st0" cx="34.9" cy="59.1" rx="34.5" ry="2.9" id="Oval-7"/><path class="st1" d="M46 7.3h-2l.1-.3c0-.4-.3-.7-.7-.7h-7c-.4 0-.7.3-.7.7 0 .4.3.7.6.7l-.1.4.1.3H36c-.4 0-.7.3-.7.7v.1h-.9c-.4 0-.7.3-.7.7s.3.7.7.7h7c.4 0 .7-.3.7-.7v-.1h.9c.4 0 .7-.3.7-.7l-.1-.3h.3l.4-.1H46c.4 0 .7-.3.7-.7 0-.4-.3-.7-.7-.7" id="Fill-1"/><path class="st1" d="M2.1 28.3h2l-.1.3c0 .4.3.7.7.7h7c.4 0 .7-.3.7-.7 0-.4-.3-.7-.6-.7l.1-.4-.1-.3h.3c.4 0 .7-.3.7-.7v-.1h.9c.4 0 .7-.3.7-.7 0-.4-.3-.7-.7-.7h-7c-.4 0-.7.3-.7.7v.1h-.9c-.4 0-.7.3-.7.7l.1.3h-.3l-.4.1H2.1c-.4 0-.7.3-.7.7 0 .4.3.7.7.7" id="Fill-3"/><path class="st1" d="M65.8 35.4h-2l.1-.3c0-.4-.3-.7-.7-.7h-7c-.4 0-.7.3-.7.7s.3.7.6.7l-.1.4.1.3h-.3c-.4 0-.7.3-.7.7v.1h-.9c-.4 0-.7.3-.7.7s.3.7.7.7h7c.4 0 .7-.3.7-.7v-.1h.9c.4 0 .7-.3.7-.7l-.1-.3h.3l.4-.1h1.7c.4 0 .7-.3.7-.7s-.3-.7-.7-.7" id="Fill-5"/><path d="M52.3 20.9c0-.2.1-.4.3-.4l.8-.3.1-.3-.3-.1-.6.2c-.2.1-.3.1-.3-.2l-.2-2.6v-1.5c0-.3.1-.5.4-.6l.1-.2-.2-.1-.3.1c-.3.1-.5.1-.7-.1-.3-.3-.7-.5-1.1-.5-.5 0-.5 0-.5-.5v-.1l-.2-.7h-.1l-.1.3v.9l-.2.3c-.8.4-1.6 1-2 1.8-.1.2-.2.2-.4.1l-.8-.7h-.3l.1.3.6.7c.4.3.4.7.3 1.1l-.2 2.8-.7-.2-.2.1.1.2.3.2c.5.2.6.6.5 1l-.1 1.3-.3 2.3c0 .2-.2.2-.3.1l-.4-.3h-.3l.1.3.5.4.1.3-.5.9a5 5 0 0 1-1.9 1.3l-.7.1v-.1l.3-.7v-.4l-.3.2-.4.7c-.1.3-.3.4-.6.4h-.8c-.6 0-.6 0-.6-.6v-2.5c0-.3.1-.4.4-.4h.4l.3-.2-.3-.2h-.6l-.3-.3-.1-2.9c0-.3.1-.5.4-.5l.7-.3.2-.3-.3-.1-.9.3-.1-.3-.1-.8-.3-2.8-.2-2.1c0-.3.1-.4.3-.4l.9-.3.2-.2-.3-.1-.7.2c-.4.1-.5 0-.6-.4l-.7-3.2c-.5-.8-.5-.8 0-1 .2-.1.3-.2.1-.4l-.5.2c-.2.1-.4.1-.6-.2l-1.1-1.4a4 4 0 0 0-2.4-1.6h-1.3c-.3 0-.4-.1-.4-.4v-.7l-.2-.2-.2.2v.7c0 .3-.1.5-.4.5l-.7.2a3.7 3.7 0 0 0-2.4 2c-.3.6-.3.6-.9.3h-.4l.2.3c.6.4.6.4.4 1.2l-.1.2c-.4 1.4-.7 2.8-.7 4.2 0 .3-.1.4-.4.3h-.3l.2.3.2.1c.2.1.3.2.3.5v2.9c0 .5 0 .5-.5.4h-.1l-.3.1.1.3.5.3.2.4v1.7c0 .3-.1.4-.4.4-.7 0-1.3-.2-1.9-.6-.3-.2-.3-.3 0-.5l.7-.5.1-.3h-.3l-.2.1-.7.5c-.1.1-.2.1-.4 0a4 4 0 0 1-1-1.8l-.8-3.6c-.1-.2 0-.4.2-.5l.5-.2.2-.3-.3-.1-.5.2c-.2.1-.3 0-.4-.2l-.9-1.5-.7-.7c-.3-.2-.7-.3-.8-.5-.1-.2.1-.6.2-.9l-.1-.3-.3.1-.2.6c-.1.3-.2.5-.5.6-.7.4-1.4.9-1.5 1.8 0 .2-.1.3-.4.3l-.3.2.1.2c.3.1.3.3.3.6l-.1 3.7c0 .6 0 .6-.6.6h-.1l-.2.2.2.2.5.1c.2 0 .3.1.3.3l.1.7.5 2.1c.1.6.1.6-.4.8h-.1l-.1.3.2.1h.4c.2-.1.3 0 .4.2l.7 1.5c.1.2.1.3-.1.3l-.7.3-.2.3.4.1.7-.3c.3-.1.5-.1.7.2.4.5.9.8 1.5.9l1.9.6c.3.1.3.2.2.4l-.1.6.2.2.2-.2.1-.5c0-.3.2-.4.4-.3l1.8.2c.8.1.8.1.8.9l.1 1.1c0 .3 0 .5-.4.5l-.5.2-.3.3c0 .2.2.2.4.1.8-.2.8-.2.8.6v4.3c0 .4 0 .4-.4.4l-.4.2.3.3.2.1c.2.1.3.2.3.4V41c0 .1-.1.3-.3.3l-.5.2-.1.3.2.1h.2c.4-.1.5-.1.5.4v4.5a3 3 0 0 0-.8-.2l-.3.1.2.3c.2.1.5.1.6.3l.3.4v3.4c0 .2-.1.3-.3.4l-.7.3-.1.3.3.1.4-.2c.2-.1.4 0 .4.3v2.3h-.4c-.2 0-.4-.1-.5.1-.1.3.2.3.4.3.3.1.5.2.5.5v.7c0 .3-.1.4-.5.4h-4.6l-.5.1-.1.1.1.1.9.1 10.7.1h11c.2 0 .3 0 .4-.2 0-.2-.2-.3-.4-.3h-3.4c-.3 0-.5-.1-.5-.4v-1.7l.1-.4.4.2h.4l-.1-.4-.5-.4c-.1-.1-.3-.3-.3-.5v-2.6c0-.3.1-.4.4-.4l.6-.2.2-.3-.3-.2-.9.1-.1-.4v-2.3V45c0-.3.1-.3.3-.2l.4.1.2-.1-.1-.2-.5-.3a.5.5 0 0 1-.3-.5v-3.4c0-.2.1-.3.3-.4l1-.3c.2 0 .3-.1.3-.3l-.4-.2-.8.2c-.3.1-.4 0-.4-.3l-.1-2.6c0-.6 0-.7.7-.7l2.3-.1 1.1-.2v.8l.2.3.2-.2.1-.7.2-.4 2.8-1c.2-.1.4 0 .4.2l.1.4.3.2.1-.3-.1-.4c-.1-.3-.1-.5.3-.6.9-.4 1.6-1 2.1-1.9l.5-.7c.1-.2.2-.2.3-.1l.6.4c.1.1.3 0 .4 0l-.1-.3-.7-.5c-.2-.1-.2-.2-.2-.4l.9-3.8c0-.2.1-.3.3-.3l.5-.1.2-.2-.3-.2h-.2c-.4.1-.5 0-.5-.4l.1-3.4c.6-.2.6-.6.6-1" fill="#595959" id="Fill-7"/><path class="st1" d="M21.2 64.3H7.1c-.2 0-.4-.2-.4-.4s.2-.4.4-.4h14.1c.2 0 .4.2.4.4s-.2.4-.4.4z" id="Stroke-105"/><path class="st1" d="M58.7 66.4H38.9c-.2 0-.4-.2-.4-.4s.2-.4.4-.4h19.8c.2 0 .4.2.4.4s-.2.4-.4.4z" id="Stroke-105-Copy"/><path class="st1" d="M21 37.4c-.3 1.3-.6 2.6-1.2 3.9l-1 1.8-1.4 1.5c-1.1.9-2.3 1.5-3.6 1.9a11 11 0 0 1-4 .8c-.7 0-1.4-.1-2-.3-.6-.2-1.3-.6-1.8-1-1-.9-1.7-2.2-2.1-3.5a5 5 0 0 1 .8-3.9c.8-1.1 2-1.9 3.4-2a4.7 4.7 0 0 0-3.3 2.1c-.7 1.1-1 2.5-.7 3.8s1 2.5 2 3.4c.5.4 1.1.8 1.7 1 .6.2 1.3.3 1.9.3a13 13 0 0 0 7.4-2.7 7.3 7.3 0 0 0 2.4-3.1c.8-1.4 1.1-2.7 1.5-4" id="Fill-116"/><path d="M64.6 60.5c0 .3-3.8.5-8.6.5-4.7 0-8.6-.2-8.6-.5s3.8-.5 8.6-.5 8.6.2 8.6.5" fill="#1c1c1c" id="Fill-118"/><path class="st1" d="M9.6 38l-.6.4c-.5.4-.8.9-.8 1.2-.1.4 0 .8.3 1.1l.3.4.8-3.1z" id="Fill-122"/><path class="st1" d="M9.6 38l.3.7c.2.6.2 1.1.1 1.5-.1.4-.4.7-.8.9l-.5.2.9-3.3z" id="Fill-124"/><path class="st0" d="M45.7 32.8l-.2-.2.2-.2 1.7-.3.2.1-.1.3-.4.1-1.4.2" id="Fill-9"/><path class="st0" d="M34.3 17.8l-.1-.1.1-.2 1.6-.6.3.2-.2.2-1.5.4-.2.1" id="Fill-11"/><path class="st0" d="M33.5 50.9l1.1-.5.5-.2.3.1-.1.3-.6.3-.7.3h-.4l-.1-.3" id="Fill-13"/><path class="st0" d="M38.6 33v-.3l.6-.4.9-.5h.3l-.1.3-1.5.9h-.2" id="Fill-15"/><path class="st0" d="M33.8 8l.3.1 1.2 1.2.1.3h-.3l-.3-.3-.9-1c-.2-.1-.2-.2-.1-.3-.1 0 0 0 0 0" id="Fill-17"/><path class="st0" d="M33.8 10.9l-.1.2-.6 1-.3.2-.1-.3.7-1.2.2-.1.2.2" id="Fill-19"/><path class="st0" d="M18 14.8l1 1.2.1.4-.3-.1-.9-1.1c-.1-.1 0-.3.1-.4-.1 0-.1 0 0 0" id="Fill-21"/><path class="st0" d="M36.9 42.5l-1.4 1.1h-.2v-.3l.2-.2 1.1-.7h.3v.1" id="Fill-23"/><path class="st0" d="M31.8 35.7l.2.2.9 1.5v.2s-.1.1-.2 0a.2.2 0 0 1-.2-.2l-.8-1.5.1-.2z" id="Fill-25"/><path class="st0" d="M35.1 34l-.2.2-.3-.1-.8-1.2v-.2h.2l.7.8.4.5" id="Fill-27"/><path class="st0" d="M30.1 38c0 .2-.2.3-.3.2l-1-1v-.3l.3.1.8.7.2.3" id="Fill-29"/><path class="st0" d="M29.2 42.9l.5.2.9.6.1.2-.2.1c-.4-.3-.9-.6-1.3-1.1 0 .2 0 .1 0 0" id="Fill-31"/><path class="st0" d="M29.5 53.3l.1-.1 1.5-.5.2.1-.1.2c-.5.2-1 .4-1.6.4l-.1-.1" id="Fill-33"/><path class="st0" d="M31 30.3l-.3.9-.4.7-.2.1-.1-.2.8-1.4c0-.2.1-.1.2-.1" id="Fill-35"/><path class="st0" d="M30.2 25.3l-.3-.2-.7-.9-.1-.3h.3l.9 1-.1.4" id="Fill-37"/><path class="st0" d="M48.2 26.3l.2.2.5 1.5-.1.4-.3-.3-.4-1.5.1-.3" id="Fill-39"/><path class="st0" d="M35.4 27.3l.3.1.7 1c.1.1 0 .3 0 .4l-.3-.2-.7-1.3c-.1.1 0 .1 0 0" id="Fill-41"/><path class="st0" d="M32.8 47.9l.4-1.2.2-.2.1.3-.2 1.2-.2.3c-.2-.1-.2-.3-.3-.4" id="Fill-43"/><path class="st0" d="M30.4 47.8l-.5.6-.4.7-.3.1-.1-.3c.2-.5.5-.9.9-1.2h.3l.1.1" id="Fill-45"/><path class="st0" d="M35.7 54.5l-.1.2-.2-.1-.6-1.2.1-.2h.2c.3.4.5.8.6 1.3" id="Fill-47"/><path class="st0" d="M32.7 40.9l-.2-.1v-.2a3 3 0 0 1 1.3-.5l.2.1-.1.2-1.2.5" id="Fill-49"/><path class="st0" d="M30.9 20.7c.6.3 1 .8 1.2 1.4l-.1.2h-.2l-.1-.2L31 21l-.1-.3" id="Fill-51"/><path class="st0" d="M22.4 22.5l1.2.5.1.2c-.1.1-.2.2-.3.1l-1.2-.6-.1-.2h.3" id="Fill-53"/><path class="st0" d="M25.6 25.7l.2.2-.1.3-1.2.3-.2-.1.1-.2 1.2-.5" id="Fill-55"/><path class="st0" d="M36.5 37.3c0 .1 0 .1 0 0l-.8 1-.3.1-.1-.3.8-1h.2l.2.2" id="Fill-57"/><path class="st0" d="M36.3 47.3l.5-1.3.2-.1.1.2-.3 1.3-.3.1c-.1.1-.1-.1-.2-.2" id="Fill-59"/><path class="st0" d="M45.9 29.5c0 .4-.2.6-.5.9l-.5.4h-.3v-.2l1.1-1.1h.2" id="Fill-61"/><path class="st0" d="M42.7 34h-.3l-.6-1.3.1-.1h.2c.3.4.5.9.6 1.4" id="Fill-63"/><path class="st0" d="M31 9.6l-.3 1.1-.3.2-.1-.3c.1-.3.1-.7.3-1l.2-.3.2.3" id="Fill-65"/><path class="st0" d="M29.3 27.3l.1.2-.3 1.3-.2.1-.1-.2.3-1.2.2-.2c-.1 0-.1 0 0 0" id="Fill-67"/><path class="st0" d="M29.2 18.3v.3l-.3 1.2-.2.2-.1-.3.3-1.3.3-.1c-.1 0 0 0 0 0" id="Fill-69"/><path class="st0" d="M47.5 30.3l.5-.2h.8l.2.2-.1.2c-.5 0-.9.1-1.4-.1v-.1" id="Fill-71"/><path class="st0" d="M48.8 19.1l.7.8.4.6v.2h-.3l-.8-1.4c-.1 0-.1-.1 0-.2 0 .1 0 0 0 0" id="Fill-73"/><path class="st0" d="M38.1 25l-.1.2-1 .7h-.3l.1-.3.8-.7.3-.1.2.2" id="Fill-75"/><path class="st0" d="M19.1 21.8l.3 1.4-.1.2-.2-.1-.2-.7-.1-.5.1-.3h.2" id="Fill-77"/><path class="st0" d="M19.7 19.9l.7-1.1h.2s.1.1 0 .2l-.5 1.2-.2.1-.2-.4" id="Fill-79"/><path class="st0" d="M33.7 25.9l-.2.2-.8.7h-.3v-.3c.4-.3.8-.5 1.3-.6z" id="Fill-81"/><path class="st0" d="M30.1 16.6l-.1-.1-.6-.8v-.2l.2.1.6.7c.2.1.1.3-.1.3" id="Fill-83"/><path class="st0" d="M36 21.5l-.8 1H35l-.1-.2.9-.9.2.1" id="Fill-85"/><path class="st0" d="M47.3 23.8l.8-1.1h.3l.1.1-1 1.1-.2-.1z" id="Fill-87"/><path class="st0" d="M48.9 23.8l.3.1.6.7v.3s-.2.1-.2 0a7 7 0 0 1-.8-1l.1-.1" id="Fill-89"/><path class="st0" d="M48.7 17c-.1.4-.4.8-.8 1h-.2s-.1-.2 0-.2c.2-.4.6-.6 1-.8" id="Fill-91"/><path class="st0" d="M21.8 24.1l-.2.7-.3.1-.1-.3.2-.5.2-.2.2.2" id="Fill-93"/><path class="st0" d="M50.3 17.6l-.1.4-.1.1-.1-.1v-.9l.2-.1.1.2v.4" id="Fill-95"/><path class="st0" d="M46.6 26.7l.4 1-.1.1h-.2a.8.8 0 0 1-.2-1l.1-.1z" id="Fill-97"/><path class="st0" d="M32.8 55l.1.3-.6.6h-.2l-.1-.2c0-.2.5-.7.8-.7" id="Fill-99"/><path class="st0" d="M35.4 14.6l.2-.2.8-.3.2.1v.2c-.4.2-.8.3-1.2.2" id="Fill-101"/><path class="st0" d="M41.9 30.6c.3 0 .7.4.7.6l-.1.1h-.2c-.2-.1-.3-.4-.4-.7" id="Fill-103"/><g><path class="st4" d="M52.3 53.1l-.7 1c-.2.4-.2.8-.2 1.2 0 .8.4 1.6.9 2.3l.8 1 .5.4.5.4c.3.2.7.4 1.1.3.4-.1.7-.4.9-.7l.5-1.1.3-1.2c.2-.8.3-1.7.3-2.5.1-1.7.2-3.4.1-5.1l.1.2-2.2-.3H53c-.7.1-1.5.2-2.1.6l-.8.7c-.2.3-.3.6-.3 1 0 .7.2 1.4.5 2.1l1.1 1.9.8.8.9.6c.6.4 1.3.6 2.1.7a3 3 0 0 0 2.9-1.3l.5-1 .4-2.2.1-2.2c0-.7-.1-1.5-.3-2.2l-.3-1.1-.5-1-.4-.4-.5-.1c-.3 0-.6.2-.9.5l-1.7 1.5-1.5 1.6-.6.9-.2.5v.6c0 .3.3.6.5.9l.9.6 2.1.7 2.2.6 1.1.4 1 .5.4.4c.1.2.2.4.1.6v.2l-.1.1-.2.3-.4.4a2 2 0 0 1-1 .6l-1.1.4c-1.4.5-3 .7-4.5.7a9 9 0 0 1-3.4-.7c-.3-.2-.7-.4-.9-.8l-.3-.5-.1-.6c0-.4 0-.8.2-1.1l.4-1.1.5-1 1.1-2 .8-.8c.3-.2.7-.4 1.1-.4.4 0 .8.1 1.1.3l.9.7c.5.5 1 1.1 1.4 1.8l1.2 1.9.9 2.1.2 1.1c0 .4 0 .8-.2 1.1l-.4.4-.6.2H56c-.8-.1-1.5-.3-2.2-.6l-2.1-.9c-1.4-.7-2.7-1.5-3.8-2.5l-.8-.9-.2-.2-.1-.3-.1-.3v-.3c0-.4.2-.8.4-1.1l.8-.9 1.8-1.4 2-1.1a18 18 0 0 1 2.1-.8c.7-.2 1.5-.3 2.3-.2h.6l.3.1.3.1.3.1.3.1.2.1.2.2.2.2.2.2.2.2.2.2.5 1 1.1 2 1.2 1.9.5 1c.1.3.3.7.2 1.1 0 .4-.3.7-.6.9l-1 .5-.5.2-.5.2a2 2 0 0 1-1.1 0l-1-.5a3 3 0 0 1-.8-.8c-.5-.6-.8-1.3-1.2-1.9L55 53l-.9-2.1-1-2-.7-.9a2 2 0 0 0-1-.6c-.7-.2-1.5-.3-2.2-.1l-1 .4c-.3.2-.5.6-.6.9v1.1l.4 1.1-.4-1.1a2 2 0 0 1 0-1.1c.1-.4.3-.7.6-.9s.7-.4 1-.4c.7-.1 1.5 0 2.2.1.4.1.7.3 1 .6l.7.9 1 2L55 53l.9 2.1a7.6 7.6 0 0 0 2 2.7l1 .5H60l.5-.2.5-.2 1-.5c.3-.2.6-.5.6-.9.1-.4-.1-.7-.2-1.1l-.5-1-1.2-1.9-1.1-2-.5-1-.2-.2-.2-.2-.2-.2-.2-.2-.2-.2-.3-.1-.3-.1-.3-.1-.3-.1h-.6a9 9 0 0 0-4.3 1.1l-2 1.1-1.8 1.4-.7.8c-.2.3-.4.6-.4 1v.3l.1.3.1.2.1.2.7.8c1.1 1 2.4 1.8 3.8 2.5l2.1.9c.7.2 1.4.5 2.2.6h1.1c.4 0 .7-.2.9-.5s.2-.7.1-1.1l-.2-1.1-.9-2.1c-.4-.7-.7-1.3-1.2-1.9l-1.4-1.7-.9-.7a2 2 0 0 0-1-.3c-.4 0-.7.2-1 .4l-.8.8-1.1 1.9-.5 1-.4 1c-.1.4-.2.7-.1 1.1 0 .4.2.7.4 1l.8.7 1 .4c.7.2 1.5.3 2.2.3 1.5 0 3-.2 4.4-.7l1-.4.9-.6.4-.4.1-.2v-.1-.2l-.1-.5-.4-.4-1-.5-1.1-.3-2.2-.6-2.2-.7c-.3-.2-.7-.3-1-.6s-.6-.6-.6-1V51v-.3l.2-.6.6-1 1.5-1.7 1.7-1.5c.3-.3.6-.5 1.1-.5l.6.2.4.4.5 1 .3 1.1.3 2.3-.1 2.3-.4 2.3-.5 1.1a3 3 0 0 1-.8.8c-.7.4-1.5.6-2.2.5-.8-.1-1.5-.3-2.2-.7l-.9-.7-.8-.8c-.5-.6-.9-1.3-1.2-2l-.2-.5-.2-.6-.1-.6v-.6c0-.4.1-.8.4-1.1.2-.3.5-.6.9-.8.7-.4 1.5-.5 2.2-.6h2.3a9 9 0 0 1 2.3.3h.1v.1c.1 1.7 0 3.5-.1 5.2l-.3 2.6-.3 1.3-.5 1.2-.4.5a1 1 0 0 1-.7.3l-.7-.1-.6-.3-.5-.4-.5-.5-.9-1c-.5-.7-.9-1.6-.9-2.5l.2-1.3.3-.6.5-.5.5.4z" id="Fill-110"/><path class="st4" d="M55.1 52.5c-.5.1-1.1.4-1.6.7s-.9.7-.9 1.3l.1.8.4.7c.3.5.7.9 1.2 1.2s1.1.4 1.6.3c.6-.1 1.1-.3 1.6-.6s.9-.7 1.2-1.2l.2-.4.1-.4.2-.9a5 5 0 0 0 .3-1.7c0-.3-.1-.5-.3-.7s-.5-.3-.7-.3l-.8-.1-.4.1-.2.2-.1.8v.9l-.1.9-.2.9-.5 1.7a8 8 0 0 1-.8 1.6l-.7.7-.9.3-.9-.3c-.3-.2-.5-.4-.6-.7-.3-.6-.4-1.2-.3-1.8a3 3 0 0 1 .8-1.7l.8-.5.9-.1.9.3.7.6c.4.5.6 1.1.8 1.6l.3.9.3.8.2.3h.4l.8-.3c.6-.2 1.1-.4 1.6-.8l.6-.6.2-.8-.1-.4-.1-.2-.1-.2-.4-.8c-.2-.5-.5-1.1-1-1.2l-.9-.1-.9-.1-.8-.4-.7-.6-1.4-1.1-.4-.2-.4-.2-.7-.2-.2-.1H53c-.6-.1-1.1.1-1.6.4-.5.3-.9.7-1.2 1.2-.6 1-1 2.2-.7 3.3.1.6.4 1.1.7 1.6l.3.3.3.3.7.5c.5.2 1.1.3 1.7.2.6-.1 1.1-.3 1.6-.6l1.4-1.1c.4-.4.8-.8 1.1-1.4l.7-1.6a5 5 0 0 0 .3-1.7c0-.6-.1-1.2-.4-1.7l-.6-.6h-.2l-.2-.1-.4-.2-.8-.4a3 3 0 0 0-.8-.4l-.8-.1-.9.2c-.6.2-1.1.4-1.5.8-.4.4-.8.9-1 1.4-.2.6-.2 1.1-.1 1.7v.4l.1.4.6.6 1.6.7 1.7.4c1.2.2 2.4.3 3.5.2l1.8-.2.8-.2.8-.4c.4-.4.8-.9 1-1.4s.2-1.1.1-1.7c-.1-.6-.4-1.1-.8-1.5-.4-.4-.9-.7-1.5-.9-1.1-.3-2.3-.5-3.5-.5-.5.2-1.1.4-1.5.7-.2.2-.5.3-.5.6l-.3.8-.7 3.3c-.1 1.1-.2 2.3 0 3.4.1.6.3 1.1.6 1.6l.3.3.2.1.2.1.4.2.2.1.2.1 1.7.3h1.7l1.6-.4c.5-.2 1-.6 1.3-1.1s.3-1.1.2-1.6c0-.3-.3-.5-.5-.6l-.8-.2h-1.7l-1.7.2-3.4.4c-1.1.1-2.3.2-3.4.1l-.8-.2-.8-.3-.6-.7-.1-.9c0-.6.4-1.1.9-1.4.5-.4 1-.6 1.5-.8 2.2-.8 4.5-1 6.7-1.5l.8-.3.8-.4.3-.3.2-.4.4-.8.3-.8-.1-.8-.6-.6-.7-.4.7.4c.2.2.5.3.6.6.2.2.2.5.1.8 0 .3-.1.6-.3.8l-.3.8-.2.4-.3.3-.8.4-.8.3c-2.2.6-4.5.8-6.7 1.6-.5.2-1.1.4-1.5.8a2 2 0 0 0-.9 1.4l.1.8c.1.3.3.5.5.6.5.3 1.1.4 1.6.5 1.1.1 2.3 0 3.4-.1l3.4-.4 1.7-.2h1.7l.8.2.4.2.2.4c.1.6.1 1.2-.2 1.7s-.8.9-1.3 1.1c-.5.2-1.1.4-1.7.4h-1.7a5 5 0 0 1-1.7-.3l-.2-.1-.2-.1-.4-.2-.2-.1-.2-.2-.3-.3c-.3-.5-.5-1.1-.6-1.6-.2-1.1-.1-2.3 0-3.4s.4-2.3.7-3.4l.3-.8.2-.4.3-.3 1.6-.7c1.2.1 2.4.2 3.5.5.6.2 1.1.4 1.6.9.4.4.7 1 .9 1.6s.1 1.2-.1 1.8a4 4 0 0 1-1 1.5l-.8.4-.9.2-1.8.2c-1.2 0-2.4 0-3.6-.2l-1.8-.4-1.7-.7-.7-.6-.2-.4v-.4c-.1-.6 0-1.2.2-1.8s.5-1.1 1-1.5 1-.7 1.6-.8l.9-.2.9.1.8.4.8.4.4.2.2.1.2.1c.3.1.5.4.7.6.3.5.4 1.2.4 1.8l-.3 1.8-.7 1.7a7.6 7.6 0 0 1-2.5 2.5 5 5 0 0 1-1.7.6c-.6.1-1.2 0-1.8-.2l-.8-.5-.3-.3-.3-.3c-.4-.5-.7-1-.8-1.6l-.1-.9.1-.9c.1-.6.4-1.2.7-1.7s.8-1 1.3-1.3 1.1-.5 1.8-.4c1.2.3 2.2 1.1 3 1.9l.7.5c.2.2.5.3.8.3h.9l.9.1.2.1.2.1.2.2.1.2.4.8.4.8.2.2.1.2.1.5-.2.9-.7.7c-.5.4-1.1.6-1.6.8l-.8.3h-.2H57.4c-.2-.1-.3-.3-.3-.4l-.3-.9-.3-.8c-.2-.6-.4-1.1-.8-1.5-.4-.4-.9-.7-1.4-.8l-.8.1-.7.4c-.4.4-.6.9-.7 1.5-.1.6 0 1.1.3 1.6l.5.6c.2.2.5.3.7.3l.7-.2.6-.6.8-1.6.5-1.7.2-.9.1-.9v-.9l.1-.9.4-.4.5-.1.9.1.9.4c.3.2.4.6.5.9v.9l-.2.9a3 3 0 0 0-.2.8l-.1.4-.2.5c-.3.6-.8 1-1.3 1.3s-1.1.6-1.7.7c-.6.1-1.3 0-1.8-.3-.6-.3-1-.8-1.4-1.3a3 3 0 0 1-.4-.8c-.1-.3-.2-.6-.1-1 0-.3.2-.6.4-.9.2-.3.4-.5.7-.6l.8-.4.9-.3-.1.4z" id="Fill-112"/><path class="st4" d="M52.1 53.6c.6.1 1.1.2 1.6.5l.7.5.4.8-.1.9a3 3 0 0 1-.4.8c-.3.5-.7.9-1.2 1.2l-.8.4-.4.1h-.5l-.1-.1h-.1l-.1-.2-.1-.3.1-.5.4-.8 1.3-1.1 1.4-.8.7-.4.6-.5.2-.3v-.3l-.2-.3-.3-.3-.9-1.4-.5-.6-.3-.1-.3.1c-.4.2-.8.7-1.2 1.1l-1.1 1.2-.9 1.4-.2.7.2.7c.1.2.3.4.6.5l.7.3c.5.1 1.1.2 1.6.1l1.6-.2.8-.1h.4l.4.2.2.4v1.2c-.1.6-.4 1.1-.9 1.5l-.7.4-.2.1H53.9l-.9-.1a.8.8 0 0 1-.4-.2l-.4-.2-1.6-.4-.8-.2a3 3 0 0 1-.8-.4l-.3-.4a.9.9 0 0 1-.1-.5l.1-.4.2-.4.6-.6c.2-.1.5-.3.8-.3 1.1-.3 2.2-.4 3.3-.5l.8-.1c.3-.1.5-.1.7-.3l.1-.1.1-.1.1-.1.3-.3.7-.4.7-.4.2-.2v-.3l-.2-.3-.3-.2-.7-.5-.6-.5-.3-.3-.3-.2h-.4l-.4.1-.8.2c-1.1.3-2.1.5-3.1 1l-.4.1-.4.1H49.1 49l-.2.3-.1.8v.8c.1 1.1.6 2.1 1.3 2.9l1.3 1 1.5.6c1.1.3 2.2.2 3.2.1l1.6-.3.7-.3c.2-.1.4-.3.4-.6l-.2-.7-.5-.6-1.3-1-2.8-1.7-2.9-1.6-1.4-.8-.7-.5-.3-.4v-.2-.1l.1-.2.4-1.6c.1-.3.1-.6.3-.8l.4-.2h.4l.8.3.8.3 1.6.3 1.6.3.8.2.7.4c.2.2.4.5.4.8l-.1.8c-.1.3-.3.5-.6.6l-.7.4c-1 .5-2.1.8-3.1 1.2l-3.1 1-.7.3-.6.5-.1.2-.1.2-.1.4-.1.8v.8l.1.8.3.7c.2.2.3.4.6.5l.8.2h.8l1.6-.5.4-.2.4-.2.7-.4 1.4-.9a41.9 41.9 0 0 1 4.3-2.4l.4-.1.4.1.1.2v1.4l-.1.8c-.1.5-.3 1.1-.6 1.6-.1.2-.3.5-.6.6-.2.2-.5.2-.8.2s-.6-.1-.8-.3l-.7-.4-1.3-1-1.3-1.1-1.2-1.1-1.1-1.2-.1-.2-.1-.2-.2-.4-.4-.7c-.3-.5-.5-1-.9-1.4a3 3 0 0 0-1.2-1l-.8-.1-.8.2-.7.4c-.2.2-.4.4-.4.7s.1.5.3.7l.7.5 2.8 1.7c1 .5 2 .8 3.1 1s2.2.2 3.3-.1 2-.9 2.8-1.6l1.1-1.2.1-.2.1-.2.1-.4-.1-.8c-.2-.5-.7-.8-1.1-1.1l-1.5-.6-1.6-.4c-.5-.1-1.1-.2-1.6-.1l-1.6.3c-.5.1-1.1.1-1.6 0l-.4-.1-.4-.1-.7-.4-1.2-1.2c-.2-.2-.3-.5-.3-.8-.1-.3-.1-.6 0-.8.1-.3.3-.4.6-.6l.8-.2h1.7c.5.1 1.1.1 1.6.4l.6.5c.1.2.2.5.1.8l-.4.7-.6.6-.3.2c-.1.1-.1.3 0 .4 0 .3.1.5.3.8.2.5.6.9.9 1.4.7.8 1.7 1.5 2.8 1.7.5.1 1.1.2 1.6.1s1.1-.2 1.6-.5c.5-.2 1-.5 1.3-1 .2-.2.3-.5.3-.8l-.1-.8a6.4 6.4 0 0 0-1-1.3c.4.4.8.8 1 1.3.1.3.2.5.1.8 0 .3-.1.5-.3.8-.3.5-.8.8-1.3 1l-1.6.5c-.5.1-1.1 0-1.6-.1-1.1-.3-2-.9-2.8-1.7-.4-.4-.7-.9-.9-1.4l-.3-.8v-.4l.1-.1.2-.1.6-.6.4-.7c.1-.3 0-.6-.1-.8l-.6-.5-1.6-.4c-.5 0-1.1-.1-1.6 0l-.8.2-.6.5c-.1.2-.1.5 0 .8l.3.7c.6.9 1.6 1.6 2.6 1.8.5.1 1.1.1 1.6 0l1.6-.3c.5-.1 1.1 0 1.6.1l1.6.4 1.5.6c.5.3.9.6 1.2 1.2.1.3.2.5.1.8l-.1.4-.1.2-.1.2a6.9 6.9 0 0 1-4 2.9c-1.1.3-2.2.3-3.3.2a16 16 0 0 1-3.1-1l-2.8-1.7-.7-.5c-.2-.2-.4-.5-.4-.8s.2-.6.4-.7l.7-.4.8-.2c.3-.1.6 0 .8.1l.7.4.6.6.9 1.4.4.7.4.7 1.1 1.2 1.2 1.1 1.3 1 1.3 1 .7.4.7.3c.3 0 .5 0 .7-.2l.5-.6.6-1.5.1-.8v-.4-.4-.4l-.1-.3c-.1-.1-.2-.1-.4 0l-.4.1-1.5.7-2.8 1.7-1.4.9-.7.4-.4.2-.4.2-1.6.5H49.3l.7.5h-.2l-.2-.1-.2-.1-.2-.1c-.2-.1-.5-.3-.6-.6-.2-.2-.3-.5-.3-.8l-.1-.8v-.8l.1-.8.1-.4.1-.2.1-.2.7-.5.8-.4 3.1-1c1-.3 2.1-.6 3.1-1.1l.7-.4.5-.6c.1-.2.2-.5.1-.8 0-.3-.2-.5-.4-.7l-.7-.4-.8-.2-1.6-.3-1.6-.3-.8-.3-.4-.2-.4-.1a.6.6 0 0 0-.7.1l-.3.7-.4 1.6-.1.2v.1l.2.3.6.5 1.4.8 2.9 1.6 2.8 1.7 1.3 1 .6.6c.2.2.3.5.3.8l-.2.4-.3.3c-.2.2-.5.3-.8.3-.5.2-1.1.3-1.6.3-1.1.1-2.2.2-3.3-.1-.5-.1-1.1-.3-1.6-.6s-.9-.6-1.3-1.1a5.6 5.6 0 0 1-1.4-3c0-.3-.1-.6 0-.8 0-.3 0-.6.2-.8l.3-.4.1-.1H49.9l.4-.1.4-.1 3.2-1 .8-.2.4-.1h.6l.1.1.2.1.3.3.6.5.7.5.3.3.3.3.1.2v.3l-.3.3-.7.4-.7.4-.3.3-.1.1-.2.4-.2.1-.8.3-.8.1c-1.1.3-2.2.3-3.2.6l-.7.3-.5.5c-.2.4-.3 1.1 0 1.4l.7.4.8.2 1.6.5.4.2.4.1.8.1h.6l.2-.1.7-.4c.4-.3.7-.8.8-1.3v-.4-.4c0-.3 0-.5-.2-.7-.1-.2-.4-.2-.7-.2l-.8.1-1.6.2-1.7-.1-.8-.3-.7-.6a1 1 0 0 1-.2-.9l.2-.8c.2-.5.6-1 .9-1.4l1.1-1.3.6-.6.7-.5.5-.1.5.2c.3.2.4.4.5.7l.8 1.4.2.3.1.2.1.1v.1l-.1.5-.3.4-.7.5-.7.4-1.4.8a4 4 0 0 0-1.2 1l-.4.7v.3l.2.2c.2.1.5 0 .7-.1l.7-.3 1.1-1.1c.3-.4.5-.9.5-1.4 0-.2-.1-.5-.3-.6l-.6-.5c-.5-.2-1-.4-1.5-.4l-.2-.5z" id="Fill-114"/></g><g id="Fill-128"><path class="st1" d="M17.1 49.7l.8-.1c.6-.1 1.1-.4 1.4-.6.3-.3.4-.7.4-1.1l-.1-.5-2.5 2.3z"/></g><g id="Fill-130"><path class="st0" d="M17.1 49.7l.1-.8c.2-.6.4-1.1.7-1.3.3-.3.7-.4 1.1-.3l.5.1-2.4 2.3z"/></g></svg>