<?xml version="1.0" encoding="utf-8"?>
<!-- Generator: Adobe Illustrator 27.8.1, SVG Export Plug-In . SVG Version: 6.00 Build 0)  -->
<svg version="1.1" id="Calque_2_00000099629094756898722650000017104636671699174294_"
	 xmlns="http://www.w3.org/2000/svg" xmlns:xlink="http://www.w3.org/1999/xlink" x="0px" y="0px" viewBox="0 0 48 48"
	 style="enable-background:new 0 0 48 48;" xml:space="preserve">
<style type="text/css">
	.st0{fill:#FFFFFF;}
</style>
<g id="Calque_1-2">
	<path class="st0" d="M13.4,12.4c2.9-1.4,6.1-2.2,9.4-2.2c3.3,0,6.5,0.8,9.5,2.2c0.1,0.1,0.2,0.1,0.4,0.2l1.1-1.2
		c-0.3-0.1-0.6-0.3-0.8-0.4c-3.2-1.5-6.5-2.3-10.1-2.3s-7.1,0.8-10.2,2.4C9.4,12.7,6.8,15,4.8,18c-0.1,0.2-0.1,0.4-0.1,0.6
		S4.8,18.9,5,19c0.2,0.1,0.4,0.1,0.6,0.1c0.2,0,0.4-0.2,0.6-0.4C8.1,16,10.5,13.9,13.4,12.4L13.4,12.4z"/>
	<path class="st0" d="M32.3,27.2c0.2,0.7,0.2,1.4,0.2,2.1c0,0.3,0.1,0.5,0.2,0.6s0.3,0.2,0.6,0.2c0.3,0,0.5-0.1,0.6-0.2
		c0.1-0.2,0.2-0.4,0.2-0.6c0-1.2-0.2-2.4-0.5-3.4L32.3,27.2L32.3,27.2z"/>
	<path class="st0" d="M29.4,42.8c-3.4-0.8-6-2.4-8-4.7l-0.1,0.1l-2.1-2.1l-1.6-1.5c0.6,1.6,1.4,3.2,2.5,4.5c2.2,2.7,5.2,4.4,8.9,5.2
		c0.3,0.1,0.5,0.1,0.7-0.1c0.1-0.1,0.2-0.3,0.3-0.5c0-0.2,0-0.4-0.1-0.5C29.9,43,29.7,42.9,29.4,42.8L29.4,42.8z"/>
	<path class="st0" d="M30.1,15.2c-2.2-1.1-4.6-1.6-7.3-1.6c-3.4,0-6.5,0.9-9.2,2.8l0.7,0.7l0.4,0.4c2.4-1.5,5-2.2,8-2.2
		c2.2,0,4.2,0.4,6.1,1.2L30.1,15.2L30.1,15.2z"/>
	<path class="st0" d="M8.2,32.9c-0.2-1.2-0.3-2.4-0.3-3.4c0-1.5,0.2-2.8,0.6-4.1l-1.2-1.2c-0.6,1.6-0.9,3.4-0.9,5.2
		c0,1.5,0.1,2.9,0.4,4.2c0.2,1.3,0.6,2.6,0.9,3.7c0.1,0.3,0.3,0.5,0.5,0.5c0.2,0.1,0.4,0,0.6,0c0.2-0.1,0.3-0.2,0.4-0.3
		c0.1-0.2,0.1-0.3,0-0.6C8.7,35.4,8.4,34.1,8.2,32.9L8.2,32.9z"/>
	<path class="st0" d="M18.4,21.1c1.3-0.7,2.8-1,4.4-1c0.7,0,1.5,0.1,2.1,0.2l1.2-1.2c-1.1-0.3-2.2-0.5-3.4-0.5c-2,0-3.9,0.5-5.5,1.4
		L18.4,21.1L18.4,21.1z"/>
	<path class="st0" d="M37.5,22l-1.2,1.2c0.9,1.9,1.4,3.9,1.4,6.2c0,1.2-0.4,2.2-1.3,3.1c-0.9,0.8-1.9,1.2-3.1,1.2
		c-1.2,0-2.3-0.4-3.2-1.2c-0.6-0.6-1-1.2-1.2-1.9l-1.3,1.3c0.3,0.7,0.7,1.2,1.3,1.8c1.2,1.1,2.6,1.7,4.3,1.7c1.7,0,3.1-0.6,4.2-1.7
		c1.2-1.1,1.7-2.5,1.7-4.1C39.3,26.6,38.7,24.2,37.5,22L37.5,22z"/>
	<path class="st0" d="M10.5,8.3c0.2,0.1,0.4,0,0.6-0.1c1.8-1,3.7-1.7,5.7-2.2c2-0.5,4-0.7,6-0.7s4.1,0.2,6.1,0.8s3.9,1.2,5.7,2.1
		c0.2,0.1,0.4,0.1,0.6,0s0.3-0.2,0.4-0.4c0.1-0.2,0.1-0.3,0.1-0.6s-0.2-0.4-0.4-0.5c-1.9-1-3.9-1.8-6-2.3S25,3.7,22.8,3.7
		S18.5,4,16.4,4.5c-2.1,0.5-4.2,1.3-6.1,2.4C10.1,7,10,7.2,10,7.4c0,0.2,0,0.4,0.1,0.5C10.2,8.1,10.4,8.2,10.5,8.3L10.5,8.3z"/>
	<path class="st0" d="M35.6,38.3c-0.4,0-0.8,0.1-1.2,0.1c-0.4,0-0.8,0.1-1.1,0.1c-2.6,0-4.9-0.8-6.9-2.4c-0.6-0.5-1-1-1.5-1.6
		l-1.1,1.1c0.4,0.6,0.9,1.1,1.5,1.6c2.2,1.9,4.9,2.9,8,2.9c0.2,0,0.5,0,1,0s1-0.1,1.5-0.3c0.2-0.1,0.3-0.1,0.4-0.3
		c0.1-0.1,0.1-0.3,0.1-0.5c0-0.2-0.1-0.3-0.2-0.4C36,38.3,35.8,38.3,35.6,38.3L35.6,38.3z"/>
	<path class="st0" d="M14.6,36.6c-0.8-1.8-1.2-4-1.3-6.4l-1.6-1.5c0,0.3,0,0.6,0,0.9c0,2.9,0.5,5.4,1.5,7.7c1,2.3,2.5,4.4,4.4,6.4
		c0.2,0.2,0.4,0.3,0.7,0.3c0.3,0,0.5-0.1,0.6-0.3c0.1-0.1,0.2-0.3,0.2-0.5c0-0.2-0.1-0.4-0.3-0.6C16.9,40.5,15.5,38.5,14.6,36.6
		L14.6,36.6z"/>
	<polygon class="st0" points="40.5,9.1 36.4,13.1 35.3,14.2 32.8,16.8 31.6,17.9 29.1,20.4 28,21.5 25.4,24.1 24.2,25.3 21.3,28.2 
		19.6,26.5 18.5,25.4 16,22.9 14.9,21.8 12.4,19.3 12.3,19.2 9.4,22.1 9.8,22.4 12.5,25.2 13.7,26.4 16.8,29.5 18.5,31.1 21.3,33.9 
		22.5,32.7 23.8,31.5 27.1,28.2 28.3,26.9 31,24.3 32.1,23.2 34.6,20.6 35.8,19.5 38.3,17 39.4,15.9 43.3,11.9 	"/>
</g>
</svg>
