<?xml version="1.0" encoding="utf-8"?>
<!-- Generator: Adobe Illustrator 27.8.1, SVG Export Plug-In . SVG Version: 6.00 Build 0)  -->
<svg version="1.1" id="Calque_2_00000081630289206055175390000004980540053931021963_"
	 xmlns="http://www.w3.org/2000/svg" xmlns:xlink="http://www.w3.org/1999/xlink" x="0px" y="0px" viewBox="0 0 48 48"
	 style="enable-background:new 0 0 48 48;" xml:space="preserve">
<style type="text/css">
	.st0{fill:#FFFFFF;}
</style>
<g id="Calque_1-2">
	<path class="st0" d="M18.3,39.5v-1.9c-0.8-1-1.4-2.1-1.8-3.1c-0.9-2-1.4-4.4-1.4-7.1s0.9-4.8,2.8-6.6s4.1-2.7,6.8-2.7
		s4.9,0.9,6.8,2.7c1.9,1.8,2.9,4,2.9,6.6c0,0.3,0.1,0.5,0.2,0.6s0.3,0.2,0.6,0.2s0.5-0.1,0.6-0.2s0.2-0.4,0.2-0.6
		c0-3-1.1-5.5-3.3-7.6s-4.9-3.1-7.9-3.1s-5.7,1.1-7.9,3.2c-0.1,0-0.1,0.1-0.1,0.1v1.6h-1.3c-1.2,1.7-1.8,3.7-1.8,5.9
		c0,2.9,0.5,5.4,1.5,7.7c0.8,1.8,1.9,3.4,3.2,5L18.3,39.5L18.3,39.5z"/>
	<path class="st0" d="M25.3,26.7c-0.1-0.2-0.3-0.2-0.6-0.2s-0.4,0.1-0.6,0.2c0,0.1-0.1,0.3-0.1,0.6c0,1,0.1,1.9,0.3,2.7l0.8,0.8l1,1
		c0.1,0,0.3,0,0.5,0c-0.7-1.3-1.1-2.8-1.1-4.5C25.5,27,25.4,26.8,25.3,26.7L25.3,26.7z"/>
	<path class="st0" d="M13.1,6.1c1.8-1,3.7-1.7,5.7-2.2s4-0.7,6-0.7s4.1,0.2,6.1,0.8c0.1,0,0.2,0,0.4,0.1V3.6H34l-0.5-0.5
		c-0.8-0.3-1.5-0.5-2.3-0.7c-2.1-0.5-4.2-0.8-6.4-0.8s-4.3,0.3-6.4,0.8s-4.2,1.3-6.1,2.4C12.1,4.9,12,5,12,5.3c0,0.1,0,0.1,0,0.2
		l0.6,0.6C12.7,6.2,12.9,6.2,13.1,6.1z"/>
	<path class="st0" d="M14.7,9.8h1.8c2.6-1.1,5.3-1.6,8.3-1.6c2.2,0,4.4,0.4,6.5,1V7.5c-2.1-0.6-4.3-0.9-6.5-0.9
		c-3.6,0-7,0.8-10.2,2.4l-0.8,0.8H14.7L14.7,9.8z"/>
	<path class="st0" d="M34.4,15.3h-1.6c0.9,0.5,1.7,1.2,2.5,1.9c2.9,2.7,4.4,6,4.4,10c0,1.2-0.4,2.2-1.3,3.1s-1.9,1.2-3.1,1.2
		s-2.3-0.4-3.2-1.2c-0.9-0.8-1.3-1.9-1.3-3.1c0-1.6-0.6-3-1.8-4.1c-1.2-1.1-2.6-1.7-4.2-1.7s-3.1,0.6-4.2,1.7
		c-1.2,1.1-1.8,2.5-1.8,4.2c0,2.5,0.5,4.8,1.5,6.8h0.8l-1.1-1l1.1-1c-0.5-1.4-0.7-3-0.7-4.7c0-1.2,0.4-2.3,1.3-3.1s1.9-1.3,3.1-1.3
		s2.3,0.4,3.1,1.3c0.9,0.9,1.3,1.9,1.3,3.1c0,0.7,0.1,1.4,0.4,2l0,0l1.4,1.4l0.9,0.9l1,1c0.7,0.3,1.5,0.4,2.4,0.4
		c1.7,0,3.1-0.6,4.2-1.7c1.1-1.1,1.7-2.5,1.7-4.1c0-3.7-1.2-6.9-3.4-9.7c-0.7-0.2-1.3-0.4-1.8-0.8C35.3,16.4,34.8,15.9,34.4,15.3
		L34.4,15.3z"/>
	<path class="st0" d="M35,37.9c0.1,0,0.2,0,0.3,0c0.2,0,0.5,0,1,0s1-0.1,1.5-0.3c0.2,0,0.3-0.1,0.4-0.3c0.1-0.1,0.1-0.3,0.1-0.5
		s-0.1-0.3-0.2-0.4c-0.1-0.1-0.3-0.2-0.6-0.2c-0.4,0-0.8,0.1-1.2,0.1s-0.8,0.1-1.1,0.1c-0.1,0-0.2,0-0.3,0L35,37.9L35,37.9z"/>
	<path class="st0" d="M16.7,13.6v1.8c2.4-1.5,5-2.2,8-2.2c2.4,0,4.6,0.5,6.5,1.4v-1.8c-2-0.8-4.2-1.2-6.5-1.2
		C21.8,11.5,19.1,12.2,16.7,13.6L16.7,13.6z"/>
	<path class="st0" d="M8.4,27.4c0,1.5,0.1,2.9,0.4,4.2c0.3,1.3,0.6,2.5,0.9,3.7c0.1,0.3,0.3,0.4,0.5,0.5c0.2,0,0.4,0,0.6-0.1
		c0.2-0.1,0.3-0.2,0.4-0.3c0.1-0.1,0.1-0.3,0-0.6c-0.5-1.4-0.9-2.6-1-3.9c-0.2-1.2-0.3-2.4-0.3-3.4c0-1.3,0.2-2.6,0.5-3.8
		c-0.5,0.1-1,0.2-1.6,0.3C8.5,25,8.4,26.2,8.4,27.4L8.4,27.4z"/>
	<path class="st0" d="M12.5,11.8c-0.2-0.3-0.4-0.7-0.8-1l0,0c-0.3-0.3-0.6-0.6-0.9-0.7l1.4-1.4l-0.9-0.8L9.5,9.5
		C9.2,9.4,8.9,9.4,8.4,9.4l0,0C8,9.4,7.6,9.5,7.2,9.6L5.4,7.8L4.5,8.6L6,10.1c-0.3,0.1-0.6,0.4-1,0.7c-0.3,0.3-0.6,0.6-0.7,1H2V13
		h1.8c-0.1,0.3-0.1,0.7-0.1,1v1H2v1.3h1.6v0.9c0,0.3,0,0.7,0.1,0.9H2v1.3h2.2c0.3,0.7,0.8,1.3,1.6,1.8s1.6,0.7,2.6,0.7
		c0.4,0,0.7,0,1.1-0.1c0.6-0.1,1.1-0.3,1.5-0.6c0.2-0.1,0.4-0.3,0.5-0.4c0.5-0.4,0.8-0.9,1-1.4h2.2v-1.3H13c0.1-0.3,0.1-0.6,0.1-0.9
		v-0.9h1.6V15h-1.6c0-0.3,0-0.6,0-1S13,13.3,13,13h1.8v-1.2H12.5L12.5,11.8z M6.8,13.4h3v1.3h-3C6.8,14.6,6.8,13.4,6.8,13.4z
		 M6.8,17.9v-1.3h3v1.3C9.9,17.9,6.8,17.9,6.8,17.9z"/>
	<path class="st0" d="M30,35.2c-0.1-0.2-0.3-0.3-0.4-0.4c-0.2-0.2-0.4-0.3-0.6-0.4l1.4-1.4l-0.9-0.8L28,33.7L27.8,34
		c-0.3-0.1-0.7-0.2-1.1-0.2l0,0c-0.2,0-0.3,0-0.5,0s-0.5,0.1-0.7,0.2l-1.8-1.8L22.8,33l1.5,1.4c-0.3,0.2-0.6,0.4-1,0.7
		c-0.1,0.1-0.2,0.2-0.3,0.4c-0.1,0.2-0.3,0.4-0.4,0.6h-2.3v1.3h1.8c-0.1,0.3-0.1,0.7-0.1,1v1h-1.6v1.3H22v0.9c0,0.3,0,0.7,0.1,0.9
		h-1.7v1.3h2.2c0.3,0.7,0.8,1.3,1.6,1.8c0.8,0.5,1.6,0.7,2.6,0.7s1.8-0.2,2.6-0.7c0.8-0.5,1.3-1.1,1.6-1.8h2v-1.3h-1.8
		c0-0.1,0.1-0.3,0.1-0.4c0-0.2,0-0.3,0-0.5v-0.9l0,0H33v-1.3h-1.6c0-0.3,0-0.6,0-1s0-0.7-0.1-1H33v-1.2h-2.2
		C30.6,35.9,30.4,35.5,30,35.2L30,35.2z M28.2,42.4h-3v-1.3h3V42.4z M25.1,39.1v-1.3h3v1.3H25.1z"/>
	<path class="st0" d="M46,5.7h-2.2c-0.2-0.3-0.4-0.7-0.8-1c-0.3-0.3-0.7-0.6-1-0.8l1.4-1.4l-0.8-0.8l-1.8,1.8
		c-0.3-0.1-0.7-0.2-1.1-0.2l0,0c-0.5,0-0.8,0.1-1.2,0.2l-1.8-1.8l-0.9,0.8L37.3,4c-0.2,0.1-0.4,0.3-0.7,0.4
		c-0.1,0.1-0.2,0.2-0.3,0.3C36,5,35.7,5.3,35.6,5.6l0,0h-2.3v1.3h1.8C35,7.2,35,7.6,35,7.9v1h-1.6v1.3H35v0.9c0,0.3,0,0.7,0.1,0.9
		h-1.7v1.3h2.2c0.3,0.7,0.8,1.3,1.6,1.8s1.6,0.7,2.6,0.7c0.5,0,0.9-0.1,1.3-0.2c0.5-0.1,0.9-0.3,1.3-0.6l0.1-0.1
		c0.7-0.5,1.2-1,1.4-1.6H46V12h-1.8c0.1-0.3,0.1-0.6,0.1-0.9v-0.9H46V8.9h-1.7c0-0.3,0-0.6,0-1c0-0.4,0-0.7-0.2-1H46V5.7L46,5.7z
		 M38.1,7.3h3v1.3h-3C38.1,8.5,38.1,7.3,38.1,7.3z M38.1,10.6h3v1.3h-3V10.6z"/>
</g>
</svg>
