<?xml version="1.0" encoding="utf-8"?>
<!-- Generator: Adobe Illustrator 27.8.1, SVG Export Plug-In . SVG Version: 6.00 Build 0)  -->
<svg version="1.1" id="Calque_2_00000174579282719256688360000012195694580199915683_"
	 xmlns="http://www.w3.org/2000/svg" xmlns:xlink="http://www.w3.org/1999/xlink" x="0px" y="0px" viewBox="0 0 48 48"
	 style="enable-background:new 0 0 48 48;" xml:space="preserve">
<style type="text/css">
	.st0{fill:#FFFFFF;}
</style>
<g id="Calque_1-2">
	<path class="st0" d="M5.9,17.9c-0.1,0.2-0.1,0.4-0.1,0.6c0,0.2,0.1,0.4,0.3,0.5c0.2,0.1,0.4,0.1,0.6,0.1c0.2,0,0.4-0.2,0.6-0.4
		c1.5-2.1,3.2-3.8,5.3-5.1c0.1-0.7,0.3-1.5,0.6-2.1C10.3,13,7.8,15.2,5.9,17.9L5.9,17.9z"/>
	<path class="st0" d="M11.7,8.3c0.2,0.1,0.4,0,0.6-0.1c1.8-1,3.7-1.7,5.7-2.2c2-0.5,4-0.7,6-0.7S28.1,5.5,30,6s3.9,1.2,5.7,2.1
		c0.2,0.1,0.4,0.1,0.6,0c0.2-0.1,0.3-0.2,0.4-0.4c0.1-0.2,0.1-0.3,0.1-0.6s-0.2-0.4-0.4-0.5c-1.9-1-3.9-1.8-6-2.3S26.2,3.7,24,3.7
		S19.7,4,17.5,4.5c-2.1,0.5-4.2,1.3-6.1,2.4c-0.2,0.1-0.3,0.2-0.3,0.5c0,0.2,0,0.4,0.1,0.5C11.4,8.1,11.5,8.2,11.7,8.3L11.7,8.3z"/>
	<path class="st0" d="M33.5,27.4c0.1,0.6,0.2,1.3,0.2,1.9c0,0.3,0.1,0.5,0.2,0.6s0.3,0.2,0.6,0.2c0.3,0,0.5-0.1,0.6-0.2
		c0.1-0.2,0.2-0.4,0.2-0.6c0-1.1-0.2-2.2-0.5-3.3c-0.2,0.3-0.5,0.5-0.7,0.8C33.9,27.1,33.7,27.2,33.5,27.4L33.5,27.4z"/>
	<path class="st0" d="M17.3,20.7c-0.4,0.3-0.8,0.6-1.2,1c-2.2,2.1-3.3,4.7-3.3,7.7c0,2.9,0.5,5.4,1.5,7.7c1,2.3,2.5,4.4,4.4,6.4
		c0.2,0.2,0.4,0.3,0.7,0.3s0.5-0.1,0.6-0.3c0.1-0.1,0.2-0.3,0.2-0.5c0-0.2-0.1-0.4-0.3-0.6c-1.9-2-3.3-4-4.2-6
		c-0.9-2-1.4-4.4-1.4-7.1s0.9-4.8,2.8-6.6c0.1-0.1,0.2-0.1,0.3-0.2c0.2-0.6,0.4-1.1,0.8-1.6C17.9,20.9,17.6,20.8,17.3,20.7
		L17.3,20.7z"/>
	<path class="st0" d="M34.5,40c0.2,0,0.5,0,1,0c0.5,0,1-0.1,1.5-0.3c0.2,0,0.3-0.1,0.4-0.3s0.1-0.3,0.1-0.5c0-0.2-0.1-0.3-0.2-0.4
		s-0.3-0.2-0.6-0.2c-0.4,0-0.8,0.1-1.2,0.1s-0.8,0.1-1.1,0.1c-1.4,0-2.7-0.2-3.8-0.7c-0.1,0.5-0.3,1-0.5,1.4
		C31.5,39.8,32.9,40,34.5,40L34.5,40z"/>
	<path class="st0" d="M12.5,18.3c-3.2,3.1-4.9,6.9-4.9,11.2c0,1.5,0.1,2.9,0.4,4.2s0.6,2.5,0.9,3.7c0.1,0.3,0.3,0.5,0.5,0.5
		s0.4,0,0.6,0c0.2-0.1,0.3-0.2,0.4-0.3s0.1-0.3,0-0.6c-0.5-1.4-0.9-2.6-1-3.9c-0.2-1.2-0.3-2.4-0.3-3.4c0-4,1.4-7.4,4.4-10.1
		c0.2-0.2,0.5-0.4,0.8-0.6c-0.3-0.4-0.6-0.8-0.9-1.2C13,17.7,12.7,18,12.5,18.3L12.5,18.3z"/>
	<path class="st0" d="M30.2,44.2c0.3,0.1,0.5,0,0.7-0.1c0.1-0.1,0.2-0.3,0.3-0.5c0-0.2,0-0.4-0.1-0.5c-0.1-0.2-0.2-0.3-0.5-0.3
		c-1-0.2-1.9-0.6-2.8-1c-0.6,0.4-1.2,0.6-1.9,0.8C27.2,43.4,28.6,43.9,30.2,44.2z"/>
	<path class="st0" d="M38.9,29.3c0,1.2-0.4,2.2-1.3,3.1c-0.9,0.8-1.9,1.2-3.1,1.2c-1.2,0-2.3-0.4-3.2-1.2c-0.4-0.4-0.7-0.8-0.9-1.2
		c-0.1,0.4-0.2,0.7-0.3,1c0.2,0.5,0.4,1,0.6,1.7c1.1,0.8,2.3,1.3,3.8,1.3c1.7,0,3.1-0.6,4.2-1.7c1.2-1.1,1.7-2.5,1.7-4.1
		c0-3.5-1-6.6-3.1-9.3c-0.1,0.7-0.3,1.4-0.5,2.1C38.2,24.3,38.9,26.7,38.9,29.3L38.9,29.3z"/>
	<path class="st0" d="M42,17.7c-1.7-2.3-3.7-4.2-6-5.6c0.5,0.8,0.8,1.7,1.1,2.6c1.4,1.1,2.7,2.4,3.7,3.9c0.2,0.2,0.3,0.4,0.5,0.4
		c0.2,0,0.4-0.1,0.6-0.2s0.2-0.3,0.3-0.5S42.2,17.9,42,17.7L42,17.7z"/>
	<path class="st0" d="M32.5,17.7c0-0.8-0.2-1.5-0.4-2.2c-0.2-0.5-0.4-1-0.6-1.4c-0.7-1.2-1.7-2.1-2.9-2.8c-1.2-0.7-2.6-1-4.1-1
		c-1.3,0-2.5,0.2-3.6,0.8c-1.1,0.5-2.1,1.2-2.9,2.1c-0.4,0.4-0.6,0.9-0.5,1.3c0,0.1,0,0.2,0.1,0.4c0.1,0.3,0.3,0.6,0.7,0.9
		c0.3,0.2,0.6,0.3,0.8,0.3c0,0,0.1,0,0.1,0c0.1,0,0.2,0,0.4-0.1c0.2-0.1,0.4-0.2,0.6-0.3c0.2-0.1,0.3-0.2,0.4-0.3
		c0.5-0.5,1.1-0.9,1.7-1.2s1.3-0.4,2.1-0.4c0.9,0,1.6,0.2,2.3,0.6s1.2,0.9,1.6,1.6l0,0c0.4,0.6,0.6,1.4,0.6,2.3c0,0.5-0.1,1-0.2,1.4
		c-0.1,0.4-0.3,0.8-0.5,1.1c0,0.1-0.1,0.1-0.2,0.2c-0.4,0.6-1,1-1.7,1.3c-0.8,0.3-1.7,0.5-2.6,0.5c-0.5,0-0.9,0.2-1.2,0.5
		c-0.1,0.1-0.2,0.3-0.3,0.4c-0.1,0.2-0.2,0.5-0.2,0.8v5.3c0,0.5,0.2,0.9,0.5,1.2c0.2,0.2,0.5,0.4,0.8,0.5c0.1,0,0.3,0.1,0.5,0.1
		c0.4,0,0.7-0.1,1-0.4c0.1,0,0.1-0.1,0.2-0.1c0.3-0.3,0.5-0.7,0.5-1.2v-4.2h-0.1c0,0,0,0,0,0c0.2,0,0.3-0.1,0.5-0.1
		c0.7-0.1,1.3-0.3,1.9-0.5c0.1,0,0.2-0.1,0.3-0.1c0.8-0.4,1.6-0.9,2.2-1.5c0.2-0.2,0.3-0.3,0.4-0.5c0.3-0.4,0.6-0.8,0.8-1.3
		c0.1-0.2,0.2-0.3,0.2-0.5c0.3-0.9,0.5-1.8,0.5-2.9C32.5,18.1,32.4,17.9,32.5,17.7L32.5,17.7z"/>
	<path class="st0" d="M24.1,33.6h-0.3c-0.6,0-1,0.2-1.3,0.5c-0.3,0.3-0.5,0.8-0.5,1.4v0.6c0,0.6,0.1,1,0.5,1.3s0.8,0.5,1.3,0.5h0.3
		c0.6,0,1-0.2,1.3-0.5c0.2-0.2,0.3-0.6,0.4-1c0-0.1,0.1-0.2,0.1-0.4v-0.6c0-0.6-0.1-1-0.5-1.4C25.1,33.8,24.7,33.6,24.1,33.6z"/>
</g>
</svg>
