<?xml version="1.0" encoding="utf-8"?>
<!-- Generator: Adobe Illustrator 27.8.1, SVG Export Plug-In . SVG Version: 6.00 Build 0)  -->
<svg version="1.1" id="Calque_2_00000125600393887293587530000005355384609425998504_"
	 xmlns="http://www.w3.org/2000/svg" xmlns:xlink="http://www.w3.org/1999/xlink" x="0px" y="0px" viewBox="0 0 48 48"
	 style="enable-background:new 0 0 48 48;" xml:space="preserve">
<style type="text/css">
	.st0{fill:#FFFFFF;}
	.st1{opacity:0.3;}
</style>
<path class="st0" d="M9.4,32.9c-0.2-1.2-0.3-2.4-0.3-3.4c0-4,1.4-7.4,4.4-10.1s6.4-4.1,10.5-4.1c1.5,0,2.9,0.2,4.2,0.5l1.3-1.4
	c-1.7-0.6-3.5-0.9-5.5-0.9c-4.4,0-8.3,1.6-11.5,4.7s-4.9,6.9-4.9,11.2c0,1.5,0.1,2.9,0.4,4.2c0.2,1.1,0.5,2,0.7,2.9l1.2-1.3
	C9.7,34.5,9.5,33.7,9.4,32.9L9.4,32.9z"/>
<path class="st0" d="M36.4,6.8c-1.9-1-3.9-1.8-6-2.3S26.2,3.7,24,3.7S19.7,4,17.5,4.5c-2.1,0.5-4.2,1.3-6.1,2.4
	c-0.2,0.1-0.3,0.2-0.3,0.5c0,0.2,0,0.4,0.1,0.5c0.1,0.2,0.2,0.3,0.4,0.3c0.2,0.1,0.4,0,0.6-0.1c1.8-1,3.7-1.7,5.6-2.2
	c2-0.5,4-0.7,6-0.7S28.1,5.5,30,6c1.9,0.5,3.7,1.2,5.5,2l1.1-1.1C36.6,6.9,36.5,6.8,36.4,6.8L36.4,6.8z"/>
<path class="st0" d="M24,8.7c-3.6,0-7,0.8-10.2,2.4C10.6,12.7,8,15,5.9,17.9c-0.1,0.2-0.1,0.4-0.1,0.6S6,18.9,6.1,19
	c0.2,0.1,0.4,0.1,0.6,0.1c0.2,0,0.4-0.2,0.6-0.4c1.9-2.7,4.3-4.8,7.3-6.2s6.1-2.2,9.4-2.2c2.8,0,5.4,0.5,8,1.5l1.1-1.2
	C30.2,9.3,27.2,8.7,24,8.7L24,8.7z"/>
<g class="st1">
	<path class="st0" d="M14.3,37.1c1,2.3,2.5,4.4,4.4,6.4c0.2,0.2,0.4,0.3,0.7,0.3c0.3,0,0.5-0.1,0.6-0.3c0.1-0.1,0.2-0.3,0.2-0.5
		c0-0.2-0.1-0.4-0.3-0.6c-1.9-2-3.3-4-4.2-6c-0.3-0.7-0.6-1.5-0.8-2.2l-1.2,1.3C13.9,36.1,14.1,36.6,14.3,37.1L14.3,37.1z"/>
	<path class="st0" d="M34.5,19.3c2.9,2.7,4.4,6,4.4,10c0,1.2-0.4,2.2-1.3,3.1c-0.9,0.8-1.9,1.2-3.1,1.2c-1.2,0-2.3-0.4-3.2-1.2
		c-0.9-0.8-1.3-1.9-1.3-3.1c0-1.6-0.6-3-1.8-4.1c-0.9-0.9-2-1.4-3.3-1.6l-1.4,1.5c0.1,0,0.3,0,0.4,0c1.2,0,2.3,0.4,3.1,1.3
		c0.9,0.9,1.3,1.9,1.3,3.1c0,1.6,0.6,2.9,1.8,4.1c1.2,1.1,2.6,1.7,4.3,1.7s3.1-0.6,4.2-1.7c1.2-1.1,1.7-2.5,1.7-4.1
		c0-4.4-1.6-8.1-4.8-11.2c-1-1-2.1-1.8-3.2-2.4L31.2,17C32.4,17.6,33.5,18.4,34.5,19.3L34.5,19.3z"/>
	<path class="st0" d="M33.7,29.3c0,0.3,0.1,0.5,0.2,0.6s0.3,0.2,0.6,0.2c0.3,0,0.5-0.1,0.6-0.2c0.1-0.2,0.2-0.4,0.2-0.6
		c0-3-1.1-5.6-3.3-7.6c-1-0.9-2-1.6-3.2-2.1l-1.1,1.2c1.1,0.4,2.2,1.1,3.2,2C32.7,24.6,33.7,26.7,33.7,29.3L33.7,29.3z"/>
	<path class="st0" d="M35.9,12l-1.1,1.2c2.4,1.4,4.4,3.2,6,5.4c0.2,0.2,0.3,0.4,0.5,0.4c0.2,0,0.4,0,0.6-0.2s0.2-0.3,0.3-0.5
		s0-0.4-0.2-0.6C40.3,15.4,38.3,13.5,35.9,12L35.9,12z"/>
	<path class="st0" d="M36.8,38.3c-0.4,0-0.8,0.1-1.2,0.1c-0.4,0-0.8,0.1-1.1,0.1c-2.6,0-4.9-0.8-6.9-2.4s-2.9-3.9-2.9-6.7
		c0-0.2-0.1-0.4-0.2-0.6c-0.1-0.2-0.3-0.2-0.6-0.2s-0.4,0.1-0.6,0.2c-0.1,0.2-0.2,0.4-0.2,0.6c0,3.3,1.1,5.9,3.3,7.8
		c2.2,1.9,4.9,2.9,8,2.9c0.2,0,0.6,0,1,0c0.5,0,1-0.1,1.5-0.3c0.2,0,0.3-0.1,0.4-0.3c0.1-0.1,0.1-0.3,0.1-0.5c0-0.2-0.1-0.3-0.2-0.4
		C37.2,38.3,37,38.3,36.8,38.3L36.8,38.3z"/>
	<path class="st0" d="M21.3,39c2.2,2.7,5.2,4.4,8.9,5.2c0.3,0.1,0.5,0.1,0.7-0.1c0.1-0.1,0.2-0.3,0.3-0.5c0-0.2,0-0.4-0.1-0.5
		c-0.1-0.2-0.2-0.3-0.5-0.3c-3.4-0.8-6-2.4-8.1-4.8s-3-5.2-3-8.6c0,0,0,0,0,0L18.1,31C18.3,34,19.4,36.7,21.3,39L21.3,39z"/>
</g>
<path class="st0" d="M24,18.6c-3.1,0-5.7,1-7.9,3.2c-2.2,2.1-3.3,4.7-3.3,7.7c0,0.9,0.1,1.7,0.2,2.6l1.4-1.5c0-0.3,0-0.7,0-1
	c0-2.6,0.9-4.8,2.8-6.6c1.9-1.8,4.1-2.7,6.8-2.7c0.1,0,0.1,0,0.2,0l1.3-1.4C25,18.6,24.5,18.6,24,18.6L24,18.6z"/>
</svg>
