<?xml version="1.0" encoding="utf-8"?>
<!-- Generator: Adobe Illustrator 27.8.1, SVG Export Plug-In . SVG Version: 6.00 Build 0)  -->
<svg version="1.1" id="Calque_2_00000088815426356638830700000001252429290895630759_"
	 xmlns="http://www.w3.org/2000/svg" xmlns:xlink="http://www.w3.org/1999/xlink" x="0px" y="0px" viewBox="0 0 48 48"
	 style="enable-background:new 0 0 48 48;" xml:space="preserve">
<style type="text/css">
	.st0{fill:#FFFFFF;}
</style>
<g id="Calque_1-2">
	<path class="st0" d="M30.9,39.6c-0.6-0.2-1-0.3-1.5-0.6l-0.1,0v-2l0.2,0.1c0.5,0.3,1,0.5,1.5,0.7l0.1,0v1.8L30.9,39.6L30.9,39.6z"
		/>
	<path class="st0" d="M20.4,8.9l0.1,0c0.5-0.1,1-0.1,1.5-0.2h0.1v1.8H22c-0.5,0.1-1,0.1-1.5,0.2l-0.1,0L20.4,8.9L20.4,8.9z"/>
	<path class="st0" d="M26.4,37c-0.6-0.5-1.1-1.1-1.5-1.8l0-4.4l0.2,0c0.2,1.4,0.7,2.7,1.5,3.7l0,2.6C26.6,37.2,26.4,37,26.4,37z"/>
	<path class="st0" d="M22.6,8.6h0.1c0.5,0,0.9-0.1,1.4-0.1h0.1l0.1,0.1v1.7h-0.2c-0.5,0-0.9,0-1.4,0h-0.1L22.6,8.6L22.6,8.6z"/>
	<path class="st0" d="M15.9,10.1L15.9,10.1c0.6-0.2,1.1-0.4,1.6-0.5l0.2-0.1v1.9l-0.1,0c-0.5,0.2-1,0.3-1.5,0.5L15.9,12L15.9,10.1
		L15.9,10.1z"/>
	<path class="st0" d="M18.1,20.1L18.1,20.1c0.6-0.4,1.1-0.6,1.6-0.8l0.2-0.1v2l-0.1,0c-0.5,0.2-1,0.6-1.5,0.9l-0.2,0.1
		C18.1,22.3,18.1,20.1,18.1,20.1z"/>
	<path class="st0" d="M22.6,23.6l0.1,0c0.5-0.1,1-0.2,1.4-0.2h0.1l0.1,0.1v1.6c0,0-0.2,0-0.2,0c-0.5,0-0.9,0.1-1.4,0.2l-0.2,0
		L22.6,23.6L22.6,23.6z"/>
	<path class="st0" d="M35.3,13.5c-0.5-0.3-1-0.6-1.5-0.8l-0.1,0v-2l0.5,0.2c0.4,0.2,0.8,0.4,1.1,0.6l0.1,0v2.1L35.3,13.5z"/>
	<path class="st0" d="M13.7,17.1L13.7,17.1c0.5-0.4,1-0.8,1.5-1.1l0.2-0.1V18l-0.1,0c-0.5,0.4-1,0.8-1.5,1.2l-0.2,0.2
		C13.7,19.5,13.7,17.1,13.7,17.1z"/>
	<path class="st0" d="M34.6,30.3c-0.3,0-0.6-0.1-0.7-0.3c-0.1-0.1-0.1-0.2-0.1-0.2v-6.3l0.2,0.4c0.9,1.5,1.4,3.3,1.5,5.1v0.4
		c0,0.3-0.1,0.5-0.2,0.6C35.2,30.2,34.9,30.3,34.6,30.3z"/>
	<path class="st0" d="M20.4,19.1L20.4,19.1c0.6-0.2,1.1-0.3,1.6-0.4l0.1,0v1.8l-0.1,0c-0.5,0.1-1,0.2-1.5,0.4l-0.2,0.1L20.4,19.1
		L20.4,19.1z"/>
	<path class="st0" d="M26.4,25.8c-0.5-0.3-0.9-0.5-1.4-0.6l-0.1,0v-1.8l0.1,0c0.6,0.1,1.1,0.2,1.5,0.4l0.1,0v2L26.4,25.8L26.4,25.8z
		"/>
	<path class="st0" d="M11.4,12.4L11.4,12.4c0.5-0.3,1-0.6,1.6-0.9l0.2-0.1v2l-0.1,0c-0.6,0.4-1,0.7-1.5,1l-0.2,0.1L11.4,12.4
		L11.4,12.4z"/>
	<path class="st0" d="M28.6,30.7c-0.1-0.4-0.1-0.8-0.1-1.2c0-1.2-0.4-2.2-1.3-3l0,0l0-0.1v-2.1l0.2,0.1c0.5,0.3,0.9,0.5,1.2,0.9
		c0.1,0.1,0.1,0.1,0.2,0.2l0.1,0.1l0,5.2v1.2L28.6,30.7L28.6,30.7z"/>
	<path class="st0" d="M28.6,10.9c-0.5-0.1-1-0.2-1.5-0.3l-0.1,0V8.8l0.1,0c0.5,0.1,1,0.1,1.5,0.2l0.1,0v1.8L28.6,10.9L28.6,10.9z"/>
	<path class="st0" d="M34.6,35.3c-0.2,0-0.4,0-0.6,0l-0.3,0v-1.8l0.1,0c0.2,0,0.5,0.1,0.7,0.1s0.5,0,0.7-0.1l0.1,0v1.8l-0.3,0
		C35,35.3,34.8,35.3,34.6,35.3L34.6,35.3z"/>
	<path class="st0" d="M30.9,11.5c-0.5-0.2-1-0.3-1.5-0.4l-0.1,0V9.2l0.1,0c0.5,0.1,1,0.3,1.5,0.4l0.1,0v1.9L30.9,11.5L30.9,11.5z"/>
	<path class="st0" d="M19.6,36.5c-0.8-1.5-1.3-3.1-1.5-4.9v-3.4c0.2-1.1,0.7-2,1.5-2.8l0.2-0.2v3.4c-0.1,0.3-0.1,0.6-0.1,0.9
		c0,0.5,0,1,0.1,1.6V37C19.9,37,19.6,36.5,19.6,36.5z"/>
	<path class="st0" d="M33.1,35.1c-0.5-0.1-1-0.3-1.5-0.6l-0.1,0v-2.2l0.2,0.2c0.4,0.4,0.9,0.6,1.4,0.8l0.1,0v1.8L33.1,35.1
		L33.1,35.1z"/>
	<path class="st0" d="M35.2,20.1c-0.2-0.2-0.5-0.5-0.7-0.7c-0.2-0.2-0.4-0.3-0.6-0.5l-0.2-0.1v-2.4l0.2,0.1c0.5,0.4,1,0.8,1.5,1.2
		l0,0v2.6C35.5,20.4,35.2,20.1,35.2,20.1z"/>
	<path class="st0" d="M24.1,33.9c-0.6-1.3-0.9-2.9-0.9-4.5c0-0.3,0.1-0.5,0.2-0.7c0.1-0.2,0.4-0.3,0.6-0.3l0.2,0l0,0.1v5.9
		L24.1,33.9z"/>
	<path class="st0" d="M19.5,43.9c-0.3,0-0.5-0.1-0.7-0.3c-0.1-0.1-0.3-0.3-0.4-0.4l-0.2-0.2l0-2.5v-0.4l0.2,0.3
		c0.5,0.6,1,1.2,1.5,1.7l0,1.8l-0.1,0C19.7,43.9,19.6,43.9,19.5,43.9L19.5,43.9L19.5,43.9z"/>
	<path class="st0" d="M24.1,41.7c-0.5-0.3-1-0.8-1.5-1.2l0-2.3v-0.3l0.2,0.2c0.5,0.5,0.9,1,1.5,1.5l0,0v2.3L24.1,41.7L24.1,41.7z"/>
	<path class="st0" d="M28.6,43.9c-0.5-0.2-1-0.3-1.5-0.6l-0.1,0v-1.9l0.2,0.1c0.4,0.2,0.9,0.4,1.5,0.6l0.1,0V44L28.6,43.9L28.6,43.9
		z"/>
	<path class="st0" d="M11.4,19.3c0.3-0.4,0.7-0.8,1.1-1.2c0.1-0.1,0.2-0.2,0.3-0.3l0.4-0.4v2.3c-0.6,0.7-1.1,1.3-1.5,1.9l-0.2,0.3
		V19.3z"/>
	<path class="st0" d="M9.2,14.2L9.2,14.2c0.5-0.5,1-0.9,1.5-1.2l0.2-0.1V15l0,0c-0.5,0.4-1,0.9-1.5,1.4l-0.2,0.2V14.2L9.2,14.2z"/>
	<path class="st0" d="M18.1,14.5L18.1,14.5c0.6-0.2,1.1-0.4,1.6-0.5l0.2,0v1.9l-0.1,0c-0.5,0.1-1,0.3-1.5,0.5l-0.2,0.1
		C18.1,16.5,18.1,14.5,18.1,14.5z"/>
	<path class="st0" d="M15.2,38.8c-0.3-0.5-0.6-1.1-0.8-1.6c-0.2-0.6-0.5-1.2-0.7-1.8V25.2c0.4-0.9,0.9-1.7,1.5-2.5l0.2-0.3v3.3
		c-0.5,1.2-0.8,2.4-0.8,3.8c0,2,0.3,3.9,0.8,5.6v4.2C15.4,39.2,15.2,38.8,15.2,38.8z"/>
	<path class="st0" d="M36,38.3l0.3,0c0.2,0,0.4,0,0.6-0.1h0c0.3,0,0.5,0.1,0.6,0.2c0.1,0.1,0.1,0.1,0.2,0.2l0,0.7
		c0,0.1-0.1,0.2-0.1,0.2c-0.1,0.2-0.3,0.3-0.5,0.3c-0.3,0.1-0.7,0.2-1,0.2l-0.1,0L36,38.3L36,38.3z"/>
	<path class="st0" d="M12,8.4c-0.1,0-0.1,0-0.2,0c-0.1,0-0.2-0.1-0.3-0.1l0,0V6.9l0.1,0C12,6.5,12.5,6.3,13,6L13.2,6v1.9L12.9,8
		c-0.1,0.1-0.3,0.1-0.4,0.2C12.3,8.3,12.1,8.4,12,8.4L12,8.4z"/>
	<path class="st0" d="M38.2,31.6c0.4-0.7,0.7-1.5,0.7-2.3c0-1.5-0.2-3-0.7-4.3v-4.1l0.2,0.4c0.6,1,1.2,2.1,1.5,3.2v7.7
		c-0.3,0.6-0.6,1-1,1.4c-0.1,0.1-0.2,0.2-0.3,0.3l-0.4,0.3L38.2,31.6L38.2,31.6z"/>
	<path class="st0" d="M6.3,19.1l0-0.1L6.3,19.1C6,19,5.9,18.8,5.8,18.6c0-0.2,0-0.5,0.1-0.6c0.1-0.1,0.1-0.2,0.2-0.3l0.3-0.5v2.1
		C6.5,19.2,6.3,19.1,6.3,19.1z"/>
	<path class="st0" d="M8.5,35.8c-0.2-0.7-0.4-1.4-0.5-2.1c-0.2-1.3-0.4-2.8-0.4-4.2c0-1.8,0.3-3.5,0.9-5.1l0.2-0.7v13.1L8.5,35.8
		L8.5,35.8z"/>
	<path class="st0" d="M12.9,31.7c-0.1-0.8-0.1-1.5-0.1-2.2c0-0.5,0-1,0.1-1.5l0.2,0v3.7L12.9,31.7L12.9,31.7z"/>
	<path class="st0" d="M9.8,38c-0.1,0-0.2,0-0.3,0c-0.1,0-0.1-0.1-0.2-0.1l0,0l0-0.1v-6.1h0.2c0,0.4,0.1,0.9,0.2,1.3
		c0.2,1.2,0.5,2.5,1,3.8c0.1,0.3,0.1,0.5,0,0.7c-0.1,0.2-0.2,0.3-0.4,0.4C10.1,37.9,9.9,38,9.8,38L9.8,38z"/>
	<path class="st0" d="M36.3,8.4c0,0-0.1,0-0.2,0l-0.1,0v-2c0,0,0.5,0.3,0.6,0.3c0.3,0.1,0.4,0.3,0.5,0.6c0,0.2,0,0.4-0.1,0.6
		c-0.1,0.2-0.3,0.3-0.5,0.4C36.5,8.3,36.4,8.4,36.3,8.4z"/>
	<path class="st0" d="M30.6,44.4c-0.1,0-0.2,0-0.3,0c-0.3-0.1-0.5-0.1-0.8-0.2l-0.2-0.1v-1.8l0.2,0.1c0.4,0.1,0.8,0.3,1.3,0.4
		c0.1,0,0.1,0,0.2,0.1l0.1,0l0,0.1v1.4l-0.1,0C30.8,44.4,30.7,44.4,30.6,44.4L30.6,44.4L30.6,44.4z"/>
	<path class="st0" d="M41.5,19.1c-0.3,0-0.5-0.2-0.7-0.4c-0.1-0.1-0.3-0.4-0.3-0.4l0-2.8l0.2,0.2c0.5,0.6,1,1.2,1.5,1.8l0,1.2l0,0.1
		C41.9,19,41.7,19.1,41.5,19.1L41.5,19.1L41.5,19.1z"/>
	<path class="st0" d="M34.6,40.1c-0.2,0-0.4,0-0.6,0h-0.3v-1.8h0.1c0.2,0,0.5,0,0.7,0c0.2,0,0.5,0,0.7,0h0.1v1.8h-0.1
		C35.1,40.1,34.8,40.2,34.6,40.1L34.6,40.1z"/>
	<path class="st0" d="M30.6,6.3c-0.2,0-0.3-0.1-0.5-0.1c-0.2,0-0.3-0.1-0.5-0.1L29.3,6V4.1l0.2,0c0.3,0.1,0.7,0.1,1,0.2L31,4.5v1.9
		L30.6,6.3L30.6,6.3z"/>
	<path class="st0" d="M28.6,16c-0.5-0.1-1-0.3-1.5-0.4l-0.1,0v-2l0.1,0c0.5,0.1,1,0.2,1.5,0.3l0.1,0v2L28.6,16z"/>
	<path class="st0" d="M26.4,15.6c-0.5-0.1-1-0.1-1.5-0.1h-0.1v-1.9H25c0.5,0,1,0.1,1.5,0.1h0.1v2C26.6,15.6,26.4,15.6,26.4,15.6z"/>
	<path class="st0" d="M30.9,16.9c-0.5-0.2-0.9-0.4-1.5-0.6l-0.1,0v-2l0.2,0.1c0.5,0.2,1,0.4,1.5,0.6l0.1,0V17L30.9,16.9L30.9,16.9z"
		/>
	<path class="st0" d="M22.6,3.7h0.1c0.5,0,0.9,0,1.4,0h0.1l0.1,0.1v1.7h-0.3c-0.5,0-0.9,0-1.3,0h-0.1C22.6,5.5,22.6,3.7,22.6,3.7z"
		/>
	<path class="st0" d="M20.4,3.9h0.1c0.5-0.1,1-0.1,1.5-0.2h0.1v1.8H22c-0.5,0-1,0.1-1.5,0.2l-0.1,0L20.4,3.9L20.4,3.9z"/>
	<path class="st0" d="M28.7,5.8c-0.5-0.1-1-0.2-1.5-0.2h-0.1V3.8l0.1,0c0.5,0.1,1,0.1,1.5,0.2l0.1,0v1.8L28.7,5.8L28.7,5.8z"/>
	<path class="st0" d="M30.8,22.8c-0.5-0.4-1-0.8-1.5-1.1l-0.1,0v-2l0.2,0.1c0.5,0.2,1,0.6,1.5,0.9l0,0V23C31,23,30.8,22.8,30.8,22.8
		z"/>
	<path class="st0" d="M26.4,20.5c-0.5-0.1-1-0.2-1.5-0.2h-0.1v-1.8H25c0.5,0,1,0.1,1.5,0.2l0.1,0v1.8L26.4,20.5z"/>
	<path class="st0" d="M22.6,18.6h0.1c0.5-0.1,1-0.1,1.4-0.1h0.2v1.8c0,0-0.2,0-0.2,0c-0.5,0-0.9,0-1.4,0.1l-0.1,0V18.6z"/>
	<path class="st0" d="M33.1,7.1c-0.5-0.2-1-0.3-1.5-0.5l-0.1,0V4.7l0.2,0c0.5,0.2,1,0.3,1.5,0.5l0.1,0v1.9L33.1,7.1L33.1,7.1z"/>
	<path class="st0" d="M20.4,13.9L20.4,13.9c0.6-0.1,1.1-0.2,1.6-0.3l0.1,0v1.9H22c-0.5,0.1-1,0.2-1.5,0.3l-0.1,0V13.9L20.4,13.9z"/>
	<path class="st0" d="M13.7,5.8L13.7,5.8c0.6-0.2,1.1-0.4,1.6-0.6l0.2-0.1v1.9l-0.1,0c-0.5,0.2-1,0.4-1.5,0.6l-0.2,0.1V5.8z"/>
	<path class="st0" d="M33.1,18.2c-0.5-0.3-1-0.6-1.5-0.9l-0.1,0v-2.2l0.2,0.1c0.5,0.3,1,0.6,1.5,0.8l0.1,0v2.3L33.1,18.2z"/>
	<path class="st0" d="M37.5,15.1c-0.4-0.4-0.9-0.7-1.5-1.1l0,0v-2.1l0.2,0.1c0.6,0.4,1.1,0.7,1.5,1l0,0v2.3L37.5,15.1L37.5,15.1z"/>
	<path class="st0" d="M15.9,4.9L15.9,4.9c0.6-0.2,1.1-0.3,1.6-0.4l0.2,0v1.8l-0.1,0c-0.5,0.1-1,0.3-1.5,0.4l-0.2,0.1L15.9,4.9
		L15.9,4.9z"/>
	<path class="st0" d="M40.7,23.7l0.2,0.8c0.5,1.5,0.7,3.2,0.7,4.9c0,1-0.2,2-0.8,2.9l-0.2,0.4C40.7,32.6,40.7,23.7,40.7,23.7z"/>
</g>
</svg>
