<?xml version="1.0" encoding="utf-8"?>
<!-- Generator: Adobe Illustrator 27.8.1, SVG Export Plug-In . SVG Version: 6.00 Build 0)  -->
<svg version="1.1" id="Calque_2_00000151504758703321383260000017562722515947789211_"
	 xmlns="http://www.w3.org/2000/svg" xmlns:xlink="http://www.w3.org/1999/xlink" x="0px" y="0px" viewBox="0 0 48 48"
	 style="enable-background:new 0 0 48 48;" xml:space="preserve">
<style type="text/css">
	.st0{fill:#FFFFFF;}
</style>
<g id="Calque_1-2">
	<path class="st0" d="M38.9,22.2l-0.1-0.1v-2c-0.3-0.1-0.5-0.2-0.8-0.3l-0.2-0.1l0-2c-0.2-0.1-0.5-0.2-0.8-0.2l-0.2,0v-1
		c-0.3-0.1-0.5-0.1-0.8-0.2l-0.2,0v-1c-0.2,0-0.5-0.1-0.7-0.1l-0.2,0v-1c-0.2,0-0.5,0-0.8,0h-0.2v-1c-0.1,0-0.1,0-0.2,0l-0.3,0
		c-0.4,0-0.8,0.1-1.2,0.1l-0.3,0.1v-1c-0.1,0-0.1,0-0.2,0l-0.3,0.1c-0.4,0.1-0.8,0.2-1.2,0.3l-0.3,0.1v-0.9
		c-0.2,0.1-0.3,0.1-0.5,0.1c-0.9,0.3-1.9,0.7-3.1,1.2L26,13.6v-1c-0.6,0.3-1.2,0.6-1.9,0.8c-1,0.4-2,0.9-3,1.3v1l-0.2,0.1
		c-1.4,0.6-2.7,1-3.8,1.3v1l-0.2,0c-0.4,0.1-0.8,0.2-1.2,0.2c-0.2,0-0.4,0-0.5,0.1v1l-0.2,0c-0.2,0-0.5,0-0.7,0.1v1h-0.2
		c-0.2,0-0.5,0-0.8,0v1l-0.3,0c-0.2,0-0.5,0-0.7-0.1v1l-0.3,0c-0.2,0-0.5-0.1-0.7-0.1v1L10.9,23c-0.2-0.1-0.4-0.1-0.6-0.2v1
		l-0.3-0.1c-0.2-0.1-0.4-0.2-0.6-0.2v0.4v1.6l-0.4-0.2c-0.2-0.1-0.4-0.2-0.6-0.3v0.3l0,2v1.6l-0.4-0.2c-0.2-0.1-0.4-0.2-0.6-0.4v4.2
		v0.7c0.3,0.2,0.6,0.4,0.8,0.6l0.1,0.1v1.3v0.2v2.4c0.3,0.2,0.6,0.3,0.9,0.5l0.1,0.1v2c0.3,0.2,0.7,0.3,1,0.4v-0.4v-3.5
		c-0.3-0.1-0.5-0.2-0.8-0.3l-0.2-0.1v-8l0,0V28l0.2-0.4l0.2-0.4l0.4,0.5c0.1,0,0.2,0.1,0.3,0.1v-0.4v-1.5l0.3,0.1
		c0.2,0.1,0.4,0.1,0.7,0.2v-0.4v-1.5l0.3,0.1c0.2,0,0.4,0.1,0.7,0.1v-1l0.3,0c0.2,0,0.5,0,0.7,0v-1h0.3c0.2,0,0.5,0,0.7,0v-1l0.2,0
		c0.2,0,0.5,0,0.7-0.1v-0.5v-0.1v-1.3l0.7,0.8c0.2,0,0.5-0.1,0.7-0.1c0.2,0,0.4-0.1,0.6-0.1v-0.8l0.2-0.1V19l0.2,0
		c0.3-0.1,0.7-0.2,1-0.3c0.5-0.2,1-0.4,1.6-0.6v-0.8l0.2-0.1V17l0.2-0.1c0.3-0.1,0.6-0.3,1-0.4c0.3-0.1,0.6-0.2,0.9-0.4
		c0.5-0.2,0.9-0.4,1.4-0.6l1-0.4c0.4-0.2,0.8-0.4,1.2-0.5c0.6-0.2,1.2-0.5,1.7-0.7l0.3-0.1v1c0.5-0.2,1-0.4,1.4-0.5
		c0.4-0.1,0.8-0.2,1.2-0.4l0.3-0.1v1c0.1,0,0.3-0.1,0.5-0.1l0.3-0.1v0.2l0.2-0.1v0.8c0.2,0,0.3-0.1,0.5-0.1c0.4-0.1,0.8-0.1,1.2-0.1
		l0.3,0v1c0.2,0,0.5,0,0.7,0h0.2v1c0.3,0,0.5,0,0.8,0.1l0.2,0v1.1v0.3v0.6c0.2,0,0.5,0.1,0.8,0.1l0.2,0l0,1c0.3,0.1,0.5,0.1,0.8,0.2
		l0.2,0v3.9c0.3,0.1,0.5,0.2,0.8,0.3l0.2,0.1V28l-0.3-0.1c-0.2-0.1-0.4-0.2-0.6-0.2v2l-0.3-0.1c-0.2-0.1-0.5-0.1-0.7-0.2v1l-0.3-0.1
		c-1-0.2-2-0.2-3.1-0.2c-0.4,0-0.8,0.1-1.2,0.2l-0.3,0l0-1c-0.2,0-0.4,0.1-0.7,0.1l-0.3,0.1v-1c-0.2,0-0.4,0.1-0.6,0.2l-0.3,0.1
		v-3.5v-0.5c-0.2,0.1-0.4,0.1-0.7,0.2l-0.3,0.1v-1c-0.1,0-0.2,0.1-0.3,0.1l-0.4,0.5l-0.4-0.9l0.1-0.1v-0.2c-0.1,0.1-0.3,0.1-0.4,0.2
		l-0.3,0.1v-0.2l-0.2,0.1V23c-0.2,0.1-0.5,0.2-0.7,0.3l-0.5,0.2l0,0c-0.1,0-0.2,0.1-0.4,0.1L25,23.8v-1c-0.3,0.1-0.6,0.3-0.9,0.4
		c-0.5,0.2-1,0.4-1.5,0.6L22,24.2v1l-0.2,0.1c-0.3,0.1-0.6,0.2-0.9,0.4l-0.3,0.1c-0.2,0.1-0.4,0.2-0.6,0.2v0.4l0.5,0.4l-0.4,0.2
		c-0.2,0.1-0.4,0.1-0.6,0.2l-0.1,0h0c-0.1,0-0.2,0.1-0.4,0.1v1l-0.2,0.1c-0.3,0.1-0.5,0.2-0.8,0.3v0.6v0.2v7.1
		c0.2-0.1,0.4-0.1,0.7-0.2l0.3-0.1v1.9c0.2-0.1,0.4-0.2,0.6-0.2l0.3-0.1v1.6l0,0.4c0.1,0,0.2-0.1,0.3-0.1l0,0l0.1-0.1h0.2l0.8,0
		L21,40.1v0.2c0.2-0.1,0.4-0.2,0.6-0.2l0.3-0.1v1c0.2-0.1,0.4-0.2,0.6-0.3l0.4-0.2v1l1-0.4v1l0.4-0.2c0.4-0.2,0.8-0.3,1.2-0.5
		l0.3-0.2v1l0.4-0.2c0.4-0.2,0.8-0.3,1.2-0.5l0.3-0.1v1c0.9-0.3,1.7-0.6,2.5-0.8c0.2,0,0.4-0.1,0.6-0.2v-1c-0.1,0-0.3,0.1-0.4,0.1
		l-0.3,0.1v-0.2l-0.2,0.1v-0.8c-0.5,0.1-0.9,0.3-1.4,0.5c-0.4,0.2-0.8,0.3-1.2,0.5l-0.3,0.1v-1c-0.1,0-0.2,0.1-0.4,0.2
		c-0.4,0.2-0.8,0.3-1.2,0.5L25,40.5v-1c-0.2,0.1-0.4,0.2-0.7,0.3L24,40v-1l-1,0.4v-1c-0.2,0.1-0.4,0.2-0.7,0.3L22,38.9v-1
		c-0.2,0.1-0.4,0.2-0.6,0.3L21,38.3v-1.9c-0.2,0.1-0.4,0.2-0.6,0.2L20,36.8v-2.5v-0.4c-0.2,0.1-0.4,0.2-0.7,0.2L19,34.2v-2.5v-1.4
		l0.2-0.1c0.3-0.1,0.6-0.2,0.8-0.3v-2l0.2-0.1c0.3-0.1,0.5-0.2,0.8-0.3v-1l0.1-0.1c0.9-0.4,1.8-0.8,2.7-1.1l0.5-0.2
		c0.4-0.2,0.8-0.4,1.2-0.5l0.4-0.1v1c0.2-0.1,0.4-0.2,0.6-0.3l0.3-0.1v1c0.2-0.1,0.4-0.2,0.6-0.2l0.3-0.1v3.9
		c0.2-0.1,0.5-0.2,0.7-0.2l0.3-0.1v1.6l0,0.4c0.2-0.1,0.4-0.1,0.6-0.2l0.3-0.1v1c0.1,0,0.1,0,0.2,0l0.3-0.1c0.4-0.1,0.8-0.2,1.2-0.3
		l0.3-0.1l0,1c1.2-0.2,2.4-0.3,3.5-0.2c0.2,0,0.3,0,0.5,0v-1l0.3,0c0.5,0.1,1,0.2,1.5,0.4l0.1,0v-1l0.3,0.1c0.2,0.1,0.4,0.2,0.6,0.2
		v-1l0.4,0.2c0.2,0.1,0.4,0.2,0.6,0.3v-0.4v-7.5C39.4,22.5,39.1,22.4,38.9,22.2L38.9,22.2z"/>
	<path class="st0" d="M31.4,35.3c-0.4,0.1-0.8,0.2-1.2,0.3l-0.3,0.1v-1c-0.3,0.1-0.5,0.2-0.8,0.2l-0.4,0.2l0,0
		c-0.1,0-0.3,0.1-0.4,0.2L28,35.4v-1c-0.2,0.1-0.4,0.2-0.7,0.2L27,34.8v-1c-0.2,0.1-0.4,0.2-0.6,0.2L26,34.2v-2
		c-0.2,0.1-0.4,0.2-0.6,0.3L25,32.7v-3.6v-0.4l-1,0.4v-1c-0.4,0.1-0.7,0.3-1,0.5v4.9l0.5-0.2l0,0.5l0.2,0.4l-0.2,0.1v0.2l0.5-0.2
		v0.8l0.9-0.4l0,1c0.2-0.1,0.4-0.2,0.6-0.3l0.4-0.2v1c0.2-0.1,0.4-0.2,0.6-0.3l0.3-0.1v1c0.2-0.1,0.5-0.2,0.7-0.3l0.5-0.2v0
		c0.1,0,0.3-0.1,0.4-0.1l0.3-0.1v1c0.1,0,0.3-0.1,0.4-0.1c0.3-0.1,0.7-0.2,1-0.3c0.4-0.1,0.8-0.2,1.2-0.3l0.3-0.1v1
		c1.2-0.2,2.4-0.3,3.5-0.2c0.2,0,0.3,0,0.5,0v-1l0.3,0c0.2,0,0.5,0.1,0.7,0.1v-1c-0.2,0-0.4-0.1-0.6-0.1
		C34.8,34.8,33.2,34.9,31.4,35.3L31.4,35.3z"/>
	<path class="st0" d="M40.7,16.5v-1c-0.3-0.2-0.6-0.4-0.8-0.6l-0.1-0.1v-1c-0.3-0.2-0.6-0.3-0.9-0.5l-0.1-0.1v-1
		c-0.3-0.1-0.5-0.2-0.8-0.3l-0.2-0.1v-1c-0.3-0.1-0.5-0.2-0.8-0.2l-0.2-0.1v-1c-0.1,0-0.2-0.1-0.3-0.1c-0.1,0-0.2,0-0.3,0
		c-0.4-0.1-0.8-0.1-1.2-0.1l-0.2,0v-1c-0.1,0-0.2,0-0.2,0c-0.1,0-0.2,0-0.3,0c-0.4,0-0.8,0-1.2,0l-0.3,0v-1
		c-0.5,0.1-1.1,0.2-1.7,0.3l-0.3,0.1v-1c-1.9,0.5-3.8,1.2-5.5,2L25,9.1v-1c-0.3,0.1-0.6,0.3-0.9,0.4c-0.7,0.3-1.4,0.6-2.1,0.9v1
		l-0.1,0.1c-0.4,0.2-0.8,0.4-1.3,0.5l-0.1,0.1c-1,0.4-1.9,0.7-2.8,0.9c-0.2,0.1-0.4,0.1-0.6,0.1v1l-0.2,0c-0.4,0.1-0.8,0.2-1.2,0.2
		c-0.5,0.1-1,0.1-1.5,0.2v1h-0.2c-0.6,0-1.2,0-1.7-0.1v1l-0.3,0c-0.2,0-0.5-0.1-0.7-0.1v1l-0.3-0.1c-0.4-0.1-0.8-0.2-1.2-0.4
		c-0.1-0.1-0.3-0.1-0.4-0.2v1l-0.4-0.2c-0.2-0.1-0.4-0.2-0.6-0.3v1l-0.4-0.2c-0.2-0.1-0.4-0.2-0.6-0.4v0.3v1.7l-0.4-0.3
		c-0.2-0.1-0.4-0.3-0.6-0.5v1.2v0.6c0.3,0.3,0.7,0.6,1,0.8l0,0v-1l0.4,0.3c0.2,0.1,0.4,0.3,0.6,0.4v-1l0.4,0.2
		c0.2,0.1,0.4,0.2,0.6,0.3v-1l0.4,0.1c0.2,0.1,0.4,0.2,0.6,0.2v-1l0.3,0.1c0.2,0.1,0.4,0.1,0.7,0.2v-1l0.3,0.1
		c0.2,0,0.4,0.1,0.7,0.1v-1l0.3,0c0.4,0,0.8,0.1,1.2,0.1c0.2,0,0.3,0,0.5,0v-1l0.2,0c0.4,0,0.8-0.1,1.2-0.1c0.2,0,0.4-0.1,0.6-0.1
		v-1l0.2,0c0.4-0.1,0.8-0.2,1.2-0.3c0.3-0.1,0.7-0.2,1-0.3c0.2-0.1,0.4-0.1,0.6-0.2v-1l0.2-0.1c0.4-0.1,0.8-0.3,1.2-0.4
		c0.2-0.1,0.4-0.2,0.7-0.3c0.5-0.2,0.9-0.4,1.4-0.6l1.2-0.5c0.5-0.2,1.1-0.5,1.6-0.7c0.9-0.4,1.5-0.7,2.2-0.9l0.3-0.1v1
		c0.8-0.3,1.5-0.6,2.2-0.8l0.1,0l0.1,0.2l-0.1-0.2c0.4-0.1,0.8-0.2,1.2-0.3l0.3-0.1v1c0.3-0.1,0.5-0.1,0.8-0.1L33,9.5v0
		c0.2,0,0.3,0,0.5,0l0.3,0v1c0.3,0,0.5,0,0.8,0H35v0c0.2,0,0.4,0,0.6,0l0.2,0v1c0.3,0,0.5,0.1,0.8,0.1l0.2,0v1
		c0.3,0.1,0.5,0.1,0.8,0.2l0.2,0.1v1c0.2,0.1,0.4,0.1,0.6,0.2l0.2,0.1v0.2l0.2,0.1v0.8c0.3,0.1,0.6,0.3,0.8,0.4l0.1,0.1v1
		c0.3,0.2,0.6,0.4,0.9,0.5l0.1,0.1v1c0.3,0.2,0.7,0.5,1,0.8v-1.8c-0.3-0.3-0.6-0.5-0.9-0.7L40.7,16.5L40.7,16.5z"/>
	<polygon class="st0" points="28.4,37.7 28.4,37.7 28.4,37.7 	"/>
	<path class="st0" d="M13.2,38.2c0.2,0,0.5,0,0.7,0h0.2v2.9c0.2,0,0.5,0,0.7,0l0.3,0v1c0.2,0,0.4-0.1,0.7-0.1l0.3,0l0,0.5v1.4
		c0.2,0,0.5-0.1,0.7-0.1l0.3-0.1v1c0.2,0,0.4-0.1,0.7-0.2l0.3-0.1v1c0.2-0.1,0.4-0.1,0.7-0.2l0.3-0.1v1c0,0,0,0,0,0v-1l0.2-0.1
		c0.3-0.1,0.6-0.2,0.8-0.3v-1c-0.2,0.1-0.4,0.2-0.7,0.2l-0.3,0.1v-1c-0.2,0.1-0.4,0.1-0.6,0.2l-0.3,0.1v-1c-0.2,0.1-0.5,0.1-0.7,0.2
		l-0.3,0.1v-2c-0.2,0-0.5,0.1-0.7,0.2l-0.3,0.1v-2c-0.2,0-0.5,0.1-0.7,0.1l-0.3,0v-2.9c-0.2,0-0.5,0-0.7,0.1l-0.3,0v-5.8l0.2,0
		c0.2,0,0.5,0,0.7-0.1v-0.6v-2.4l0.2,0c0.3,0,0.5-0.1,0.8-0.1v-1l0.2,0c0.3,0,0.5-0.1,0.8-0.2v-1l0.2,0c0.3-0.1,0.5-0.1,0.8-0.2v-1
		l0.2-0.1c0.5-0.2,1-0.3,1.5-0.5l0.3-0.1v-1l0.2-0.1c1.2-0.5,2.4-1,3.6-1.5c0.5-0.2,1-0.4,1.5-0.6c0.4-0.2,0.8-0.3,1.2-0.5l0.3-0.1
		v1l0.4-0.2c0.4-0.2,0.8-0.3,1.2-0.5l0.3-0.1v1c0.2-0.1,0.5-0.2,0.8-0.2l0.4-0.1v0c0.2,0,0.3-0.1,0.5-0.1l0.3-0.1v1
		c0.2,0,0.5-0.1,0.7-0.1l0.3-0.1l0,2c0.2,0,0.4-0.1,0.7-0.1l0.3,0v3.4l0,0.5c0.2,0,0.5,0,0.7-0.1h0.3v1c0.3,0,0.7,0,1,0v-4
		c-0.2,0-0.5,0-0.7,0h-0.2l0-2c-0.2,0-0.4,0-0.7,0l-0.3,0l0-2c-0.2,0-0.5,0.1-0.7,0.1l-0.3,0v-1c-0.2,0-0.4,0.1-0.7,0.1l-0.3,0.1v-1
		c-0.3,0.1-0.5,0.1-0.8,0.2l-0.5,0.1l0,0c-0.1,0-0.3,0.1-0.4,0.1l-0.3,0.1v-1c-0.1,0-0.3,0.1-0.4,0.1c-0.6,0.2-1.3,0.5-2.2,0.9
		L26,18.5v-1c-0.6,0.3-1.2,0.6-1.9,0.8c-0.7,0.3-1.4,0.6-2.1,0.9v1l-0.1,0.1c-1.1,0.5-2,0.8-2.8,1.1v1l-0.2,0.1
		c-0.5,0.2-1,0.3-1.5,0.5L17.1,23v1l-0.2,0c-0.3,0.1-0.5,0.1-0.8,0.2v1l-0.2,0c-0.2,0-0.5,0.1-0.8,0.1v1l-0.2,0
		c-0.2,0-0.5,0-0.7,0.1v1.1l0,0v0.8h-0.2c-0.3,0-0.5,0-0.8,0v0.5V29L13.2,38.2L13.2,38.2z"/>
	<polygon class="st0" points="33.3,27.7 33.3,27.7 33.3,27.7 	"/>
	<polygon class="st0" points="30.4,34.1 30.4,34.1 30.4,34.1 	"/>
	<polygon class="st0" points="18.6,26.9 18.6,26.9 18.6,26.9 18.6,26.9 18.6,26.9 	"/>
	<polygon class="st0" points="26.5,20.8 26.5,20.8 26.5,20.8 	"/>
	<path class="st0" d="M14.6,10.6c0.2,0,0.4,0,0.5-0.1v-1l0.2,0c0.4,0,0.8-0.1,1.2-0.2c0.8-0.2,1.6-0.4,2.5-0.7v-1l0.2-0.1
		c0.4-0.1,0.8-0.3,1.2-0.4l0.1,0c1.1-0.4,2.3-0.9,3.4-1.4C25.4,5,27,4.3,28.6,3.8l0.3-0.1v1c1-0.3,1.8-0.6,2.6-0.7l0.3-0.1v1
		c1-0.2,1.8-0.2,2.7-0.2h0.2v1c0.5,0,1.1,0.1,1.6,0.2c0.2,0,0.3,0.1,0.5,0.1v-1c-0.3-0.1-0.5-0.1-0.8-0.2l-0.2,0v-1
		c-0.1,0-0.2,0-0.2,0l-0.3,0c-0.4,0-0.8,0-1.2,0h-0.2v-1c-0.2,0-0.3,0-0.5,0c-0.3,0-0.6,0.1-1,0.1c-0.4,0.1-0.8,0.1-1.2,0.2L30.9,3
		V2c-0.1,0-0.3,0.1-0.4,0.1l-0.2,0.1c-1.7,0.5-3.3,1.2-4.9,1.8L25,4.2v-1c-0.3,0.1-0.6,0.3-0.9,0.4c-0.7,0.3-1.4,0.6-2.1,0.9v1
		l-0.1,0.1c-1.7,0.7-3.7,1.5-5.8,1.9v1l-0.2,0c-0.3,0.1-0.6,0.1-0.9,0.1c-0.1,0-0.2,0-0.3,0c-0.2,0-0.4,0-0.5,0v1h-0.2
		c-0.3,0-0.6,0-0.9,0c-0.1,0-0.2,0-0.3,0c-0.2,0-0.3,0-0.5-0.1v1l-0.3,0c-0.2,0-0.5-0.1-0.7-0.1v1c0.7,0.2,1.3,0.2,2,0.3v-1h0.2
		C13.8,10.7,14.2,10.6,14.6,10.6L14.6,10.6z"/>
</g>
</svg>
