<?xml version="1.0" encoding="UTF-8"?>
<svg width="32px" height="32px" viewBox="0 0 32 32" version="1.1" xmlns="http://www.w3.org/2000/svg" xmlns:xlink="http://www.w3.org/1999/xlink">
    <!-- Generator: Sketch 46.2 (44496) - http://www.bohemiancoding.com/sketch -->
    <title>ic_fullscreen_active</title>
    <desc>Created with Sketch.</desc>
    <defs></defs>
    <g id="Symbols" stroke="none" stroke-width="1" fill="none" fill-rule="evenodd">
        <g id="ic_fullscreen_active" fill-rule="nonzero" fill="#E6195E">
            <g id="Group-3" transform="translate(5.000000, 5.000000)">
                <g id="Group-4">
                    <g id="Group-5">
                        <g id="Group" transform="translate(18.000000, 4.000000) rotate(180.000000) translate(-18.000000, -4.000000) translate(14.000000, 0.000000)">
                            <g id="Group-2">
                                <path d="M6.01599121,5.99865723 C5.9930026,6.00069391 3.99174121,6.00069391 0.0122070313,5.99865723 L0.0122070312,7.98779297 L8.00592041,7.98779297 L8.00592041,0.00592041016 L6.01599121,0.00592041016 C6.03897982,3.9990416 6.03897982,5.99662054 6.01599121,5.99865723 Z" id="Shape-Copy-3" transform="translate(4.009064, 3.996857) rotate(90.000000) translate(-4.009064, -3.996857) "></path>
                            </g>
                        </g>
                        <g id="Group-Copy" transform="translate(4.000000, 4.000000) rotate(90.000000) translate(-4.000000, -4.000000) ">
                            <g id="Group-2">
                                <path d="M6.01599121,5.99865723 C5.9930026,6.00069391 3.99174121,6.00069391 0.0122070313,5.99865723 L0.0122070312,7.98779297 L8.00592041,7.98779297 L8.00592041,0.00592041016 L6.01599121,0.00592041016 C6.03897982,3.9990416 6.03897982,5.99662054 6.01599121,5.99865723 Z" id="Shape-Copy-3" transform="translate(4.009064, 3.996857) rotate(90.000000) translate(-4.009064, -3.996857) "></path>
                            </g>
                        </g>
                    </g>
                    <g id="Group-5" transform="translate(11.000000, 18.000000) rotate(180.000000) translate(-11.000000, -18.000000) translate(0.000000, 14.000000)">
                        <g id="Group" transform="translate(18.000000, 4.000000) rotate(180.000000) translate(-18.000000, -4.000000) translate(14.000000, 0.000000)">
                            <g id="Group-2">
                                <path d="M6.01599121,5.99865723 C5.9930026,6.00069391 3.99174121,6.00069391 0.0122070313,5.99865723 L0.0122070312,7.98779297 L8.00592041,7.98779297 L8.00592041,0.00592041016 L6.01599121,0.00592041016 C6.03897982,3.9990416 6.03897982,5.99662054 6.01599121,5.99865723 Z" id="Shape-Copy-3" transform="translate(4.009064, 3.996857) rotate(90.000000) translate(-4.009064, -3.996857) "></path>
                            </g>
                        </g>
                        <g id="Group-Copy" transform="translate(4.000000, 4.000000) rotate(90.000000) translate(-4.000000, -4.000000) ">
                            <g id="Group-2">
                                <path d="M6.01599121,5.99865723 C5.9930026,6.00069391 3.99174121,6.00069391 0.0122070313,5.99865723 L0.0122070312,7.98779297 L8.00592041,7.98779297 L8.00592041,0.00592041016 L6.01599121,0.00592041016 C6.03897982,3.9990416 6.03897982,5.99662054 6.01599121,5.99865723 Z" id="Shape-Copy-3" transform="translate(4.009064, 3.996857) rotate(90.000000) translate(-4.009064, -3.996857) "></path>
                            </g>
                        </g>
                    </g>
                </g>
            </g>
        </g>
    </g>
</svg>