<svg width="32" height="32" viewBox="0 0 32 32" fill="none" xmlns="http://www.w3.org/2000/svg">
<path d="M20.6055 20.1913L9.10254 26.9003C8.87581 27.0325 8.59577 27.0338 8.36816 26.9033C8.14045 26.7724 8 26.5291 8 26.2665V25.1269L17.0449 16.9863L20.6055 20.1913ZM15.9482 15.9999L8 23.1533V8.84661L15.9482 15.9999ZM26.7031 15.3661C26.9284 15.4976 27.0673 15.7392 27.0674 15.9999C27.0674 16.2608 26.9284 16.5023 26.7031 16.6337L21.9355 19.415L18.1406 15.9999L21.9355 12.5849L26.7031 15.3661ZM8.36816 5.09759C8.59576 4.96687 8.87577 4.96743 9.10254 5.09954L20.6055 11.8095L17.0449 15.0136L8 6.87298V5.73333C8 5.47078 8.14051 5.22839 8.36816 5.09759Z" fill="currentColor"/>
</svg>
