<svg width="24" height="24" viewBox="0 0 24 24" fill="#E6195E" xmlns="http://www.w3.org/2000/svg">
<path fill-rule="evenodd" clip-rule="evenodd" d="M0 8.89092C0 5.27388 2.80539 2.41336 6.14133 2.50201C6.44479 2.51007 6.74346 2.57574 7.03452 2.662L10.2326 3.60982C10.7861 3.77384 11.36 3.87368 11.9372 3.87932C11.9669 3.87961 11.9967 3.87974 12.0264 3.87968C12.3421 3.87908 12.6531 3.81577 12.958 3.7334L17.0213 2.63545C17.2754 2.56682 17.5346 2.51377 17.7976 2.50396C21.1603 2.37849 24 5.25181 24 8.89092V16.5587C24 21.151 18.3649 22.8917 16.0578 19.0119C14.4134 16.2466 10.6564 16.1543 8.89392 18.8358L8.55283 19.3548C5.91687 23.3654 0 21.379 0 16.4834V8.89092ZM19.2 10.6706C19.8627 10.6706 20.4 10.1334 20.4 9.47063C20.4 8.80789 19.8627 8.27063 19.2 8.27063C18.5373 8.27063 18 8.80789 18 9.47063C18 10.1334 18.5373 10.6706 19.2 10.6706ZM16.8 14.2706C17.4627 14.2706 18 13.7333 18 13.0706C18 12.4079 17.4627 11.8706 16.8 11.8706C16.1372 11.8706 15.6 12.4079 15.6 13.0706C15.6 13.7333 16.1372 14.2706 16.8 14.2706ZM7.1999 8.12061C7.61412 8.12061 7.9499 8.45639 7.9499 8.87061V10.5206H9.59993C10.0141 10.5206 10.3499 10.8564 10.3499 11.2706C10.3499 11.6848 10.0141 12.0206 9.59993 12.0206H7.9499V13.6706C7.9499 14.0848 7.61412 14.4206 7.1999 14.4206C6.78569 14.4206 6.4499 14.0848 6.4499 13.6706V12.0206H4.79993C4.38571 12.0206 4.04993 11.6848 4.04993 11.2706C4.04993 10.8564 4.38571 10.5206 4.79993 10.5206H6.4499V8.87061C6.4499 8.45639 6.78569 8.12061 7.1999 8.12061Z" fill="#E6195E"/>
</svg>
