<svg width="32" height="32" viewBox="0 0 32 32" fill="none" xmlns="http://www.w3.org/2000/svg">
<path fill-rule="evenodd" clip-rule="evenodd" d="M5.5 13.2182C5.5 9.98189 7.95472 7.42248 10.8737 7.5018C11.1392 7.50901 11.4005 7.56777 11.6552 7.64495L14.4535 8.49299C14.9378 8.63975 15.44 8.72908 15.945 8.73413C15.971 8.73439 15.9971 8.7345 16.0231 8.73445C16.2993 8.73391 16.5715 8.67727 16.8383 8.60357L20.3936 7.62119C20.616 7.55978 20.8428 7.51232 21.0729 7.50354C24.0153 7.39128 26.5 9.96214 26.5 13.2182V20.0788C26.5 24.1877 21.5693 25.7452 19.5506 22.2738C18.1117 19.7996 14.8243 19.717 13.2822 22.1162L12.9837 22.5806C10.6773 26.169 5.5 24.3917 5.5 20.0115V13.2182ZM22.3 14.8105C22.8799 14.8105 23.35 14.3299 23.35 13.7369C23.35 13.1439 22.8799 12.6632 22.3 12.6632C21.7201 12.6632 21.25 13.1439 21.25 13.7369C21.25 14.3299 21.7201 14.8105 22.3 14.8105ZM20.2 18.0316C20.7799 18.0316 21.25 17.5508 21.25 16.9579C21.25 16.365 20.7799 15.8842 20.2 15.8842C19.62 15.8842 19.15 16.365 19.15 16.9579C19.15 17.5508 19.62 18.0316 20.2 18.0316ZM11.7999 12.529C12.1624 12.529 12.4562 12.8294 12.4562 13.2V14.6763H13.8999C14.2623 14.6763 14.5562 14.9768 14.5562 15.3474C14.5562 15.718 14.2623 16.0184 13.8999 16.0184H12.4562V17.4947C12.4562 17.8653 12.1624 18.1658 11.7999 18.1658C11.4375 18.1658 11.1437 17.8653 11.1437 17.4947V16.0184H9.69994C9.3375 16.0184 9.04369 15.718 9.04369 15.3474C9.04369 14.9768 9.3375 14.6763 9.69994 14.6763H11.1437V13.2C11.1437 12.8294 11.4375 12.529 11.7999 12.529Z" fill="currentColor"/>
</svg>
