<svg width="32" height="32" viewBox="0 0 32 32" fill="none" xmlns="http://www.w3.org/2000/svg">
<path fill-rule="evenodd" clip-rule="evenodd" d="M25.9996 12.6613L22.5069 15.3198V13.5741H17.9628C16.7286 13.5741 15.7243 14.8041 15.7243 16.3126C15.7243 17.4026 15.3715 18.3897 14.8087 19.1753C14.0616 20.2167 12.933 20.8953 11.6559 20.8953H6.00046V19.0653H11.6559C12.8902 19.0653 13.8944 17.8382 13.8944 16.3283C13.8944 15.2369 14.2458 14.2513 14.8101 13.4641C15.5572 12.4242 16.6843 11.7456 17.9628 11.7456H22.5069V10L25.9996 12.6613ZM13.954 12.5856C13.2997 12.0699 12.5154 11.7456 11.6555 11.7456H6V13.5741H11.6555C12.1926 13.5741 12.6812 13.8127 13.0654 14.2041C13.254 13.6927 13.4968 13.2042 13.8197 12.7527C13.8442 12.7192 13.8702 12.6879 13.8963 12.6566L13.8963 12.6566L13.8963 12.6566C13.9157 12.6333 13.9351 12.61 13.954 12.5856ZM15.665 20.0546C16.3192 20.5717 17.1021 20.896 17.9635 20.896H22.5076V22.5373L25.9988 19.8775L22.5076 17.219V19.0661H17.9635C17.4263 19.0661 16.9378 18.8275 16.5535 18.4375C16.3649 18.9475 16.1221 19.4375 15.7993 19.8875C15.7747 19.921 15.7487 19.9523 15.7227 19.9836L15.7227 19.9836L15.7227 19.9836C15.7033 20.0069 15.6839 20.0302 15.665 20.0546Z" fill="currentColor"/>
</svg>
