<svg width="32" height="32" viewBox="0 0 32 32" fill="none" xmlns="http://www.w3.org/2000/svg">
<path fill-rule="evenodd" clip-rule="evenodd" d="M20.328 20.1087C21.1177 19.3282 21.5118 18.3178 21.5118 17.0777V15.5722C21.5118 14.3382 21.1177 13.3278 20.328 12.5427C19.5383 11.7576 18.5136 11.3642 17.2541 11.3642H14.0334V21.281H17.2541C18.5136 21.281 19.5383 20.8907 20.328 20.1087ZM11.7677 21.281H10.1094V11.3642H11.7677V21.281ZM7.68618 8H23.3138C23.6925 8 24 8.30542 24 8.68642V24.2827C24 24.6606 23.6925 24.9676 23.3138 24.9676H7.68618C7.30755 24.9676 7 24.6606 7 24.2827V8.68642C7 8.30542 7.30755 8 7.68618 8ZM15.6918 12.6928H17.2063C18.0301 12.6928 18.6761 12.9612 19.1474 13.4964C19.6188 14.0301 19.8537 14.7166 19.8537 15.5557V17.0751C19.8537 17.9234 19.6188 18.6145 19.1474 19.1497C18.6761 19.6834 18.0301 19.9518 17.2063 19.9518H15.6918V12.6928Z" fill="currentColor"/>
</svg>
