<?xml version="1.0" encoding="UTF-8"?>
<svg width="32px" height="32px" viewBox="0 0 32 32" version="1.1" xmlns="http://www.w3.org/2000/svg" xmlns:xlink="http://www.w3.org/1999/xlink">
    <!-- Generator: Sketch 46.2 (44496) - http://www.bohemiancoding.com/sketch -->
    <title>ic_id_active</title>
    <desc>Created with Sketch.</desc>
    <defs>
        <polygon id="path-1" points="11.039035 22.3626917 0 22.3626917 0 0.508242992 11.039035 0.508242992 22.07807 0.508242992 22.07807 22.3626917"></polygon>
    </defs>
    <g id="Symbols" stroke="none" stroke-width="1" fill="none" fill-rule="evenodd">
        <g id="ic_id_active">
            <g id="Page-1" transform="translate(5.000000, 4.000000)">
                <path d="M12.7307271,7.27519349 L10.7866444,7.27519349 L10.7866444,16.6126337 L12.5397712,16.6126337 C13.8246782,16.6126337 14.8236908,16.2365339 15.5389665,15.4833178 C16.2531634,14.7301017 16.6102618,13.657709 16.6102618,12.2671562 L16.6102618,11.5708633 C16.6102618,10.2189369 16.2725826,9.16585742 15.599382,8.41670725 C14.9251024,7.66654059 13.9681649,7.28637483 12.7307271,7.27519349" id="Fill-1" fill="#E6195E"></path>
                <g id="Group-5" transform="translate(0.000000, 0.508243)">
                    <mask id="mask-2" fill="white">
                        <use xlink:href="#path-1"></use>
                    </mask>
                    <g id="Clip-4"></g>
                    <path d="M18.1440477,11.7953034 C18.1440477,12.9175039 17.9253198,13.9024788 17.486837,14.7471787 C17.0493811,15.5918785 16.4250309,16.2403966 15.6127595,16.6927328 C14.8004881,17.1450691 13.8547208,17.3768279 12.7744307,17.3880092 L9.44627455,17.3880092 L9.44627455,5.4829254 L12.8411787,5.4829254 C13.8875814,5.4829254 14.8128109,5.71163474 15.6168671,6.17006992 C16.4198964,6.6285051 17.041166,7.27905613 17.4796487,8.12375599 C17.9171046,8.96845584 18.1389132,9.93919995 18.1440477,11.0349718 L18.1440477,11.7953034 Z M4.96183826,17.3880092 L6.54735913,17.3880092 L6.54735913,5.4829254 L4.96183826,5.4829254 L4.96183826,17.3880092 Z M21.0511783,0.508242992 L1.02678906,0.508242992 C0.459944816,0.508242992 -0.000102689175,0.963628713 -0.000102689175,1.52472898 L-0.000102689175,21.3462057 C-0.000102689175,21.9073059 0.459944816,22.3626917 1.02678906,22.3626917 L21.0511783,22.3626917 C21.6180225,22.3626917 22.07807,21.9073059 22.07807,21.3462057 L22.07807,1.52472898 C22.07807,0.963628713 21.6180225,0.508242992 21.0511783,0.508242992 L21.0511783,0.508242992 Z" id="Fill-3" fill="#E6195E" mask="url(#mask-2)"></path>
                </g>
            </g>
        </g>
    </g>
</svg>