<?xml version="1.0" encoding="UTF-8"?>
<svg width="32px" height="32px" viewBox="0 0 32 32" version="1.1" xmlns="http://www.w3.org/2000/svg" xmlns:xlink="http://www.w3.org/1999/xlink">
    <!-- Generator: Sketch 46.2 (44496) - http://www.bohemiancoding.com/sketch -->
    <title>ic_icon_power_inactive copy</title>
    <desc>Created with Sketch.</desc>
    <defs></defs>
    <g id="Symbols" stroke="none" stroke-width="1" fill="none" fill-rule="evenodd">
        <g id="ic_icon_power_inactive-copy" fill="#FFFFFF">
            <path d="M22.4401572,8.40079046 L20.8659817,9.97292099 C22.6175291,11.3768856 23.7371892,13.5353843 23.7371892,15.9571955 C23.7371892,20.2387895 20.2673516,23.7016808 15.9771689,23.7016808 C11.6869863,23.7016808 8.21714865,20.2387895 8.21714865,15.9571955 C8.21714865,13.5353843 9.33680872,11.3768856 11.0772704,9.96075109 L9.51418061,8.40079046 C7.36243785,10.2262763 6,12.926889 6,15.9571955 C6,21.4568864 10.466446,25.9143909 15.9771689,25.9143909 C21.4867833,25.9143909 25.9543379,21.4568864 25.9543379,15.9571955 C25.9543379,12.926889 24.5896829,10.2262763 22.4401572,8.40079046 L22.4401572,8.40079046 Z M14.8685946,17.0635505 L17.0857433,17.0635505 L17.0857433,6 L14.8685946,6 L14.8685946,17.0635505 Z" id="Fill-1-Copy-2"></path>
        </g>
    </g>
</svg>