<svg width="32" height="32" viewBox="0 0 32 32" fill="none" xmlns="http://www.w3.org/2000/svg">
<path fill-rule="evenodd" clip-rule="evenodd" d="M14.5399 22.8132L23.3212 11.5926C23.3737 12.0018 23.3999 12.4259 23.3999 12.865C23.3999 14.5883 22.7629 16.3483 21.4887 18.145C20.2145 19.9417 18.2849 21.7933 15.6999 23.7C15.2974 23.4031 14.9107 23.1075 14.5399 22.8132ZM12.985 24.8L11.2632 27H23.3999V24.8H12.985ZM9.91119 18.145C9.98015 18.2422 10.051 18.3396 10.1238 18.4372L13.7746 13.7723C13.5915 13.4519 13.4999 13.0944 13.4999 12.7C13.4999 12.095 13.7154 11.5771 14.1462 11.1462C14.577 10.7154 15.0949 10.5 15.6999 10.5C15.9027 10.5 16.0956 10.5242 16.2788 10.5726L19.8113 6.05871C18.6425 5.3529 17.2721 5 15.6999 5C13.4266 5 11.5749 5.73792 10.1449 7.21375C8.71494 8.68958 7.99994 10.5733 7.99994 12.865C7.99994 14.5883 8.63702 16.3483 9.91119 18.145ZM8.89273 26.996L24.6801 6.61233L23.0989 5.38766L7.31152 25.7714L8.89273 26.996Z" fill="white"/>
</svg>
