<?xml version="1.0" encoding="UTF-8"?>
<svg id="Calque_1" data-name="Calque 1" xmlns="http://www.w3.org/2000/svg" version="1.1" viewBox="0 0 64 64">
  <defs>
    <style>
      .cls-1 {
        fill: #e6195e;
        stroke-width: 0px;
      }
    </style>
  </defs>
  <path class="cls-1" d="M54,22.9l-8.5,7.9c.8.6,1.3,1.5,1.3,2.6,0,1.8-1.4,3.2-3.2,3.2s-2.1-.6-2.7-1.5l-9.9,9.2h14c1.1,0,2,.9,2,2s-.9,2-2,2h-18.3l-9.2,8.6h35.5c5.2,0,9.5-4.2,9.5-9.5v-15.2c0-4.9-3.7-8.9-8.4-9.4ZM54.9,49.6c-1.8,0-3.2-1.4-3.2-3.2s1.4-3.2,3.2-3.2,3.2,1.4,3.2,3.2-1.4,3.2-3.2,3.2ZM54.9,36.6c-1.8,0-3.2-1.4-3.2-3.2s1.4-3.2,3.2-3.2,3.2,1.4,3.2,3.2-1.4,3.2-3.2,3.2Z"/>
  <path class="cls-1" d="M29.3,33.4c0-1.8,1.4-3.2,3.2-3.2s.4,0,.5,0l7.9-7.4h-6.8v-3.6c0-1.1.9-2,2-2h1.4c3.4,0,6.1-2.7,6.1-6.1v-6.1h-4.1v6.1c0,1.1-.9,2-2,2h-1.4c-3.4,0-6.1,2.7-6.1,6.1v3.6H11c-5.2,0-9.5,4.2-9.5,9.5v15.2c0,3.3,1.7,6.3,4.4,8l23.4-21.8c0,0,0-.2,0-.3ZM10,49.6c-1.8,0-3.2-1.4-3.2-3.2s1.4-3.2,3.2-3.2,3.2,1.4,3.2,3.2-1.4,3.2-3.2,3.2ZM10,36.6c-1.8,0-3.2-1.4-3.2-3.2s1.4-3.2,3.2-3.2,3.2,1.4,3.2,3.2-1.4,3.2-3.2,3.2ZM21.2,36.6c-1.8,0-3.2-1.4-3.2-3.2s1.4-3.2,3.2-3.2,3.2,1.4,3.2,3.2-1.4,3.2-3.2,3.2Z"/>
  <polygon class="cls-1" points="7 63.4 4.3 60.5 56.8 11.5 58.1 13 59.5 14.4 7 63.4"/>
</svg>