<svg width="32" height="32" viewBox="0 0 32 32" fill="none" xmlns="http://www.w3.org/2000/svg">
<path d="M24.375 25.8L6 7.425L7.425 6L25.8 24.375L24.375 25.8ZM12.525 19.275V17.275H18.7L20.7 19.275H12.525ZM9.525 16.275V14.275H11.525V16.275H9.525ZM12.525 16.275V14.275H14.525V16.275H12.525ZM21.525 16.275V14.275H23.525V16.275H21.525ZM9.525 13.275V11.275H11.525V13.275H9.525ZM18.525 13.275V11.275H20.525V13.275H18.525ZM21.525 13.275V11.275H23.525V13.275H21.525ZM25.925 21.7L24.525 20.275V10.275H14.55L12.55 8.275H24.525C25.075 8.275 25.5458 8.47083 25.9375 8.8625C26.3292 9.25417 26.525 9.725 26.525 10.275V20.3C26.525 20.5833 26.4708 20.8417 26.3625 21.075C26.2542 21.3083 26.1083 21.5167 25.925 21.7ZM8.525 22.275C7.975 22.275 7.50417 22.0792 7.1125 21.6875C6.72083 21.2958 6.525 20.825 6.525 20.275V10.275C6.525 9.725 6.72083 9.25417 7.1125 8.8625C7.50417 8.47083 7.975 8.275 8.525 8.275H9.7L11.7 10.275H8.525V20.275H21.7L23.7 22.275H8.525ZM15.55 11.275H17.525V13.25L15.55 11.275ZM18.525 14.275H20.525V16.25L18.525 14.275Z" fill="currentColor"/>
</svg>
