<?xml version="1.0" encoding="UTF-8"?>
<svg id="Calque_1" data-name="Calque 1" xmlns="http://www.w3.org/2000/svg" version="1.1" viewBox="0 0 64 64">
  <defs>
    <style>
      .cls-1 {
        fill: #3d3c39;
        stroke-width: 0px;
      }
    </style>
  </defs>
  <path class="cls-1" d="M53,22.9h-19v-3.6c0-1.1.9-2,2-2h1.4c3.4,0,6.1-2.7,6.1-6.1v-6.1h-4.1v6.1c0,1.1-.9,2-2,2h-1.4c-3.4,0-6.1,2.7-6.1,6.1v3.6H11c-5.2,0-9.5,4.2-9.5,9.5v15.2c0,5.2,4.2,9.5,9.5,9.5h42c5.2,0,9.5-4.2,9.5-9.5v-15.2c0-5.2-4.2-9.5-9.5-9.5ZM43.7,30.2c1.8,0,3.2,1.4,3.2,3.2s-1.4,3.2-3.2,3.2-3.2-1.4-3.2-3.2,1.4-3.2,3.2-3.2ZM32.5,30.2c1.8,0,3.2,1.4,3.2,3.2s-1.4,3.2-3.2,3.2-3.2-1.4-3.2-3.2,1.4-3.2,3.2-3.2ZM21.2,30.2c1.8,0,3.2,1.4,3.2,3.2s-1.4,3.2-3.2,3.2-3.2-1.4-3.2-3.2,1.4-3.2,3.2-3.2ZM10,49.6c-1.8,0-3.2-1.4-3.2-3.2s1.4-3.2,3.2-3.2,3.2,1.4,3.2,3.2-1.4,3.2-3.2,3.2ZM10,36.6c-1.8,0-3.2-1.4-3.2-3.2s1.4-3.2,3.2-3.2,3.2,1.4,3.2,3.2-1.4,3.2-3.2,3.2ZM45.1,48.4h-25.2c-1.1,0-2-.9-2-2s.9-2,2-2h25.2c1.1,0,2,.9,2,2s-.9,2-2,2ZM54.9,49.6c-1.8,0-3.2-1.4-3.2-3.2s1.4-3.2,3.2-3.2,3.2,1.4,3.2,3.2-1.4,3.2-3.2,3.2ZM54.9,36.6c-1.8,0-3.2-1.4-3.2-3.2s1.4-3.2,3.2-3.2,3.2,1.4,3.2,3.2-1.4,3.2-3.2,3.2Z"/>
</svg>