<svg width="32" height="32" viewBox="0 0 32 32" fill="none" xmlns="http://www.w3.org/2000/svg">
<path d="M15.7 23.7C13.115 21.7933 11.1854 19.9417 9.91125 18.145C8.63708 16.3483 8 14.5883 8 12.865C8 10.5733 8.715 8.68958 10.145 7.21375C11.575 5.73792 13.4267 5 15.7 5C17.9733 5 19.825 5.73792 21.255 7.21375C22.685 8.68958 23.4 10.5733 23.4 12.865C23.4 14.5883 22.7629 16.3483 21.4887 18.145C20.2146 19.9417 18.285 21.7933 15.7 23.7ZM15.7 14.9C16.305 14.9 16.8229 14.6846 17.2537 14.2537C17.6846 13.8229 17.9 13.305 17.9 12.7C17.9 12.095 17.6846 11.5771 17.2537 11.1462C16.8229 10.7154 16.305 10.5 15.7 10.5C15.095 10.5 14.5771 10.7154 14.1462 11.1462C13.7154 11.5771 13.5 12.095 13.5 12.7C13.5 13.305 13.7154 13.8229 14.1462 14.2537C14.5771 14.6846 15.095 14.9 15.7 14.9ZM8 27V24.8H23.4V27H8Z" fill="#E8EAED"/>
</svg>
