<?xml version="1.0" encoding="UTF-8"?>
<svg width="32px" height="32px" viewBox="0 0 32 32" version="1.1" xmlns="http://www.w3.org/2000/svg" xmlns:xlink="http://www.w3.org/1999/xlink">
    <!-- Generator: Sketch 46.2 (44496) - http://www.bohemiancoding.com/sketch -->
    <title>ic_more_active_black</title>
    <desc>Created with Sketch.</desc>
    <defs></defs>
    <g id="Symbols" stroke="none" stroke-width="1" fill="none" fill-rule="evenodd">
        <g id="ic_more_active_black">
            <g id="more" transform="translate(16.000000, 16.000000) scale(-1, -1) rotate(90.000000) translate(-16.000000, -16.000000) translate(10.000000, 4.000000)">
                <polygon id="bounds" transform="translate(6.000000, 12.000000) scale(1, -1) translate(-6.000000, -12.000000) " points="12 0 0 0 0 24 12 24"></polygon>
                <path d="M6,16 C7.1,16 8,16.9 8,18 C8,19.1 7.1,20 6,20 C4.9,20 4,19.1 4,18 C4,16.9 4.9,16 6,16 L6,16 Z M6,14 C4.9,14 4,13.1 4,12 C4,10.9 4.9,10 6,10 C7.1,10 8,10.9 8,12 C8,13.1 7.1,14 6,14 L6,14 Z M6,8 C4.9,8 4,7.1 4,6 C4,4.9 4.9,4 6,4 C7.1,4 8,4.9 8,6 C8,7.1 7.1,8 6,8 L6,8 Z" id="Shape" fill="#000000" transform="translate(6.000000, 12.000000) scale(1, -1) translate(-6.000000, -12.000000) "></path>
            </g>
        </g>
    </g>
</svg>