<svg width="32" height="32" viewBox="0 0 32 32" fill="none" xmlns="http://www.w3.org/2000/svg">
<path fill-rule="evenodd" clip-rule="evenodd" d="M25.6346 17.0539C25.8067 17.1956 25.8911 17.3855 25.8911 17.622C25.8911 17.8508 25.8003 18.036 25.6203 18.173C25.4387 18.3099 25.1774 18.38 24.8349 18.38C24.4271 18.38 24.1085 18.2959 23.8791 18.1247C23.6513 17.9551 23.5366 17.6874 23.5366 17.3232H22.3115L22.3035 17.3465C22.2892 17.9691 22.5377 18.45 23.0459 18.7955C23.5541 19.1395 24.1515 19.3107 24.8349 19.3107C25.5311 19.3107 26.0903 19.1597 26.5156 18.8562C26.9394 18.5527 27.1512 18.1387 27.1512 17.6127C27.1512 17.1115 26.9728 16.7038 26.616 16.3956C26.2591 16.0874 25.735 15.8384 25.042 15.6485C24.5593 15.5022 24.22 15.359 24.0224 15.2267C23.8265 15.0929 23.7277 14.9232 23.7277 14.7147C23.7277 14.4859 23.8185 14.3007 24.0017 14.1544C24.1865 14.0096 24.4462 13.9365 24.7839 13.9365C25.1344 13.9365 25.4068 14.0221 25.5996 14.198C25.7939 14.3738 25.8911 14.6042 25.8911 14.8874H27.113L27.1194 14.8625C27.1353 14.338 26.925 13.8945 26.4901 13.5381C26.0568 13.1801 25.4944 12.9995 24.8046 12.9995C24.1244 12.9995 23.5636 13.1599 23.1255 13.4789C22.6875 13.7964 22.4676 14.2089 22.4676 14.7116C22.4676 15.2127 22.6588 15.6096 23.0411 15.8991C23.4235 16.187 23.989 16.4376 24.7361 16.6493C25.1631 16.7738 25.4642 16.9092 25.6346 17.0539ZM13.4131 16.0504H12.1705V14.0364H13.4131C13.7652 14.0364 14.0328 14.1329 14.2129 14.3259C14.3913 14.5173 14.4821 14.7617 14.4821 15.0543C14.4821 15.3453 14.3913 15.5835 14.2113 15.7702C14.0297 15.957 13.7636 16.0504 13.4131 16.0504ZM12.1705 19.2223V16.9967H13.4131C14.1332 16.9967 14.7019 16.8192 15.1161 16.4644C15.5287 16.1064 15.7358 15.6333 15.7358 15.0465C15.7358 14.4613 15.5287 13.9866 15.1161 13.6271C14.7019 13.2691 14.1332 13.0886 13.4131 13.0886H10.9104V19.2223H12.1705ZM17.9229 15.8224H19.0094C19.363 15.8224 19.6259 15.7492 19.8011 15.6029C19.9748 15.4582 20.0624 15.2403 20.0624 14.9539C20.0624 14.6738 19.9748 14.4496 19.8011 14.2847C19.6259 14.1197 19.371 14.0372 19.0317 14.0372H17.9229V15.8224ZM17.9229 16.7702V19.2231H16.6628V13.0878H19.0317C19.747 13.0878 20.3077 13.2481 20.7108 13.5672C21.1138 13.8847 21.3162 14.3298 21.3162 14.8994C21.3162 15.2169 21.2317 15.4893 21.0629 15.7181C20.8924 15.9453 20.6439 16.1274 20.3157 16.2691C20.6869 16.3749 20.9545 16.5554 21.1154 16.8044C21.2779 17.0535 21.3608 17.3632 21.3608 17.7321V18.1834C21.3608 18.3531 21.3831 18.532 21.4309 18.7188C21.4786 18.9056 21.5599 19.0441 21.6746 19.1328V19.2231H20.3778C20.2615 19.1328 20.1867 18.9818 20.1532 18.7733C20.1182 18.5616 20.1006 18.3608 20.1006 18.1741V17.7383C20.1006 17.4332 20.0146 17.1951 19.8442 17.0255C19.6737 16.8558 19.4315 16.7702 19.1209 16.7702H17.9229ZM8.95533 19.0278C9.35041 18.8394 9.64195 18.6246 9.82834 18.385V16.0722H7.45625V16.9235H8.56981V18.0566C8.47741 18.1437 8.342 18.2169 8.16517 18.276C7.98674 18.3336 7.74938 18.3616 7.45625 18.3616C7.04205 18.3616 6.71388 18.2184 6.46854 17.9274C6.2248 17.6379 6.10373 17.2581 6.10373 16.7928V15.5041C6.10373 15.0465 6.22003 14.673 6.4558 14.3835C6.69317 14.0924 7.00382 13.9477 7.38775 13.9477C7.75256 13.9477 8.03135 14.0426 8.22093 14.2325C8.4105 14.4224 8.51564 14.6792 8.53795 15.0045H9.72479L9.73275 14.9796C9.72479 14.3882 9.51769 13.9103 9.10986 13.5461C8.70363 13.1819 8.11738 12.9999 7.3527 12.9999C6.6167 12.9999 6.01611 13.2333 5.54775 13.7002C5.08098 14.1687 4.84839 14.7741 4.84839 15.515V16.7959C4.84839 17.5398 5.09054 18.1453 5.57642 18.6122C6.06231 19.0776 6.68998 19.311 7.45625 19.311C8.06162 19.311 8.56025 19.2161 8.95533 19.0278Z" fill="white"/>
</svg>
