<svg width="32" height="32" viewBox="0 0 32 32" fill="none" xmlns="http://www.w3.org/2000/svg">
<path d="M19.8604 12.1128H21.2246L23.2334 17.8545L25.2422 12.1128H26.6064L23.7812 19.9331H22.6855L19.8604 12.1128ZM19.1245 12.1128H20.4834L20.7305 17.7095V19.9331H19.1245V12.1128ZM25.9834 12.1128H27.3477V19.9331H25.7363V17.7095L25.9834 12.1128Z" fill="white"/>
<path d="M16.0874 17.8867C16.0874 17.7471 16.0659 17.6217 16.0229 17.5107C15.9836 17.3962 15.9084 17.2923 15.7974 17.1992C15.6864 17.1025 15.5306 17.0076 15.3301 16.9146C15.1296 16.8215 14.87 16.7248 14.5513 16.6245C14.1968 16.5099 13.8602 16.381 13.5415 16.2378C13.2264 16.0946 12.9471 15.9281 12.7036 15.7383C12.4637 15.5449 12.2739 15.3211 12.1343 15.0669C11.9982 14.8127 11.9302 14.5173 11.9302 14.1807C11.9302 13.8548 12.0018 13.5594 12.145 13.2944C12.2882 13.0259 12.4888 12.7967 12.7466 12.6069C13.0044 12.4136 13.3088 12.265 13.6597 12.1611C14.0142 12.0573 14.4027 12.0054 14.8252 12.0054C15.4017 12.0054 15.9048 12.1092 16.3345 12.3169C16.7642 12.5246 17.0972 12.8092 17.3335 13.1709C17.5734 13.5326 17.6934 13.9461 17.6934 14.4116H16.0928C16.0928 14.1825 16.0444 13.9819 15.9478 13.8101C15.8547 13.6346 15.7114 13.4967 15.5181 13.3965C15.3283 13.2962 15.0884 13.2461 14.7983 13.2461C14.519 13.2461 14.2863 13.2891 14.1001 13.375C13.9139 13.4574 13.7743 13.5701 13.6812 13.7134C13.5881 13.853 13.5415 14.0106 13.5415 14.186C13.5415 14.3185 13.5737 14.4385 13.6382 14.5459C13.7062 14.6533 13.8065 14.7536 13.939 14.8467C14.0715 14.9398 14.2344 15.0275 14.4277 15.1099C14.6211 15.1922 14.8449 15.2728 15.0991 15.3516C15.5252 15.4805 15.8994 15.6255 16.2217 15.7866C16.5475 15.9478 16.8197 16.1286 17.0381 16.3291C17.2565 16.5296 17.4212 16.757 17.5322 17.0112C17.6432 17.2655 17.6987 17.5537 17.6987 17.876C17.6987 18.2161 17.6325 18.5205 17.5 18.7891C17.3675 19.0576 17.1759 19.285 16.9253 19.4712C16.6746 19.6574 16.3757 19.7988 16.0283 19.8955C15.681 19.9922 15.2925 20.0405 14.8628 20.0405C14.4761 20.0405 14.0947 19.9904 13.7188 19.8901C13.3428 19.7863 13.0008 19.6305 12.6929 19.4229C12.3885 19.2152 12.145 18.9502 11.9624 18.6279C11.7798 18.3057 11.6885 17.9243 11.6885 17.4839H13.3052C13.3052 17.7274 13.3428 17.9333 13.418 18.1016C13.4932 18.2699 13.5988 18.4059 13.7349 18.5098C13.8745 18.6136 14.0392 18.6888 14.229 18.7354C14.4224 18.7819 14.6336 18.8052 14.8628 18.8052C15.1421 18.8052 15.3713 18.7658 15.5503 18.687C15.7329 18.6082 15.8672 18.499 15.9531 18.3594C16.0426 18.2197 16.0874 18.0622 16.0874 17.8867Z" fill="white"/>
<path d="M10.3862 15.8457V18.9448C10.2645 19.0916 10.0765 19.251 9.82227 19.4229C9.56803 19.5911 9.2404 19.7362 8.83936 19.8579C8.43831 19.9797 7.95312 20.0405 7.38379 20.0405C6.87891 20.0405 6.41878 19.9582 6.00342 19.7935C5.58805 19.6252 5.22998 19.3799 4.9292 19.0576C4.632 18.7354 4.40283 18.3415 4.2417 17.876C4.08057 17.4069 4 16.8716 4 16.27V15.7812C4 15.1797 4.07699 14.6444 4.23096 14.1753C4.38851 13.7062 4.6123 13.3105 4.90234 12.9883C5.19238 12.666 5.53792 12.4207 5.93896 12.2524C6.34001 12.0841 6.78581 12 7.27637 12C7.95671 12 8.5153 12.111 8.95215 12.333C9.389 12.5514 9.72201 12.8558 9.95117 13.2461C10.1839 13.6328 10.3271 14.0768 10.3809 14.5781H8.81787C8.77848 14.3132 8.70329 14.0822 8.59229 13.8853C8.48128 13.6883 8.32194 13.5343 8.11426 13.4233C7.91016 13.3123 7.64518 13.2568 7.31934 13.2568C7.05078 13.2568 6.81087 13.3123 6.59961 13.4233C6.39193 13.5308 6.21647 13.6901 6.07324 13.9014C5.93001 14.1126 5.8208 14.374 5.74561 14.6855C5.67041 14.9971 5.63281 15.3587 5.63281 15.7705V16.27C5.63281 16.6782 5.6722 17.0399 5.75098 17.355C5.82975 17.6665 5.94613 17.9297 6.1001 18.1445C6.25765 18.3558 6.45101 18.5151 6.68018 18.6226C6.90934 18.73 7.17611 18.7837 7.48047 18.7837C7.7347 18.7837 7.94596 18.7622 8.11426 18.7192C8.28613 18.6763 8.42399 18.6243 8.52783 18.5635C8.63525 18.499 8.71761 18.4382 8.7749 18.3809V16.9951H7.30322V15.8457H10.3862Z" fill="white"/>
</svg>
