<svg width="32" height="32" viewBox="0 0 32 32" fill="none" xmlns="http://www.w3.org/2000/svg">
<path d="M10.2626 21C9.0235 21 7.973 20.5636 7.11104 19.6909C6.24909 18.8182 5.81812 17.7545 5.81812 16.5C5.81812 15.2455 6.24909 14.1818 7.11104 13.3091C7.973 12.4364 9.0235 12 10.2626 12C10.7609 12 11.239 12.0886 11.6969 12.2659C12.1548 12.4432 12.5656 12.6955 12.9292 13.0227L14.303 14.2909L13.0908 15.3955L11.8383 14.25C11.6228 14.0591 11.3804 13.9091 11.111 13.8C10.8417 13.6909 10.5589 13.6364 10.2626 13.6364C9.48141 13.6364 8.81475 13.9159 8.26256 14.475C7.71037 15.0341 7.43428 15.7091 7.43428 16.5C7.43428 17.2909 7.71037 17.9659 8.26256 18.525C8.81475 19.0841 9.48141 19.3636 10.2626 19.3636C10.5589 19.3636 10.8417 19.3091 11.111 19.2C11.3804 19.0909 11.6228 18.9409 11.8383 18.75L18.1009 13.0227C18.4646 12.6955 18.8754 12.4432 19.3333 12.2659C19.7912 12.0886 20.2693 12 20.7676 12C22.0067 12 23.0572 12.4364 23.9191 13.3091C24.7811 14.1818 25.2121 15.2455 25.2121 16.5C25.2121 17.7545 24.7811 18.8182 23.9191 19.6909C23.0572 20.5636 22.0067 21 20.7676 21C20.2693 21 19.7912 20.9114 19.3333 20.7341C18.8754 20.5568 18.4646 20.3045 18.1009 19.9773L16.7272 18.7091L17.9393 17.6045L19.1919 18.75C19.4073 18.9409 19.6498 19.0909 19.9191 19.2C20.1885 19.3091 20.4713 19.3636 20.7676 19.3636C21.5488 19.3636 22.2154 19.0841 22.7676 18.525C23.3198 17.9659 23.5959 17.2909 23.5959 16.5C23.5959 15.7091 23.3198 15.0341 22.7676 14.475C22.2154 13.9159 21.5488 13.6364 20.7676 13.6364C20.4713 13.6364 20.1885 13.6909 19.9191 13.8C19.6498 13.9091 19.4073 14.0591 19.1919 14.25L12.9292 19.9773C12.5656 20.3045 12.1548 20.5568 11.6969 20.7341C11.239 20.9114 10.7609 21 10.2626 21Z" fill="white"/>
</svg>
