<svg width="32" height="32" viewBox="0 0 32 32" fill="none" xmlns="http://www.w3.org/2000/svg">
<path d="M16 24.9955L4.5 12.2936C6.03242 10.5633 7.79221 9.24888 9.77026 8.35022C11.7529 7.45157 13.8264 7 16 7C18.1736 7 20.2744 7.45157 22.2525 8.35022C24.2305 9.24888 25.9812 10.5633 27.5 12.2936L15.9955 25L16 24.9955ZM10.0567 15.4143C10.9025 14.7437 11.8302 14.2206 12.8351 13.8405C13.8401 13.4605 14.895 13.2727 16 13.2727C17.105 13.2727 18.1554 13.4605 19.1649 13.8405C20.1744 14.2206 21.0975 14.7437 21.9433 15.4143L24.7216 12.3428C23.4757 11.301 22.1115 10.5052 20.6337 9.94635C19.1558 9.38748 17.6097 9.11475 15.9955 9.11475C14.3812 9.11475 12.8351 9.39195 11.3573 9.94635C9.8794 10.5007 8.51522 11.301 7.26928 12.3428L10.0476 15.4143H10.0567Z" fill="currentColor"/>
</svg>
