<svg width="32" height="32" viewBox="0 0 32 32" fill="none" xmlns="http://www.w3.org/2000/svg">
<path fill-rule="evenodd" clip-rule="evenodd" d="M23.4152 21.1142C24.1222 20.7678 24.6423 20.3699 24.9755 19.9241V15.6609H20.7353V17.2294H22.724V19.3201C22.5601 19.4818 22.3185 19.615 21.9994 19.7234C21.6803 19.8317 21.2607 19.8868 20.7353 19.8868C19.9948 19.8868 19.4077 19.6186 18.9704 19.0821C18.5332 18.5492 18.3146 17.8494 18.3146 16.9932V14.6182C18.3146 13.7745 18.5261 13.0835 18.9475 12.5506C19.3671 12.0142 19.9225 11.7459 20.6119 11.7459C21.2642 11.7459 21.7596 11.92 22.0999 12.2699C22.4384 12.6199 22.6288 13.0942 22.6711 13.6963H24.7904L24.8062 13.6484C24.7904 12.5577 24.4201 11.6731 23.692 11.0052C22.9656 10.3355 21.9183 9.99982 20.5502 9.99982C19.2349 9.99982 18.1594 10.4297 17.3255 11.293C16.4898 12.1545 16.0719 13.2682 16.0719 14.6342V16.9967C16.0719 18.368 16.5056 19.4853 17.3748 20.3451C18.2423 21.2048 19.3636 21.6329 20.7353 21.6329C21.8161 21.6329 22.7082 21.4588 23.4152 21.1142ZM10.551 14.8536H9.28683V16.5553H10.551C11.1257 16.5553 11.563 16.6921 11.8574 16.9674C12.1536 17.2463 12.2999 17.6797 12.2999 18.2748C12.2999 18.7704 12.1518 19.1629 11.8504 19.4525C11.5506 19.742 11.1398 19.8859 10.6215 19.8859C10.1472 19.8859 9.75757 19.7456 9.44903 19.4667C9.14049 19.1843 8.9871 18.8272 8.9871 18.3938H6.8044L6.78854 18.4418C6.76385 19.456 7.12529 20.2412 7.87283 20.7989C8.62038 21.3549 9.51603 21.632 10.5598 21.632C11.7252 21.632 12.6825 21.3354 13.4318 20.7439C14.1776 20.1506 14.5514 19.337 14.5514 18.3014C14.5514 17.6922 14.3892 17.1539 14.063 16.6939C13.7369 16.232 13.2626 15.891 12.6402 15.6672C13.1797 15.4185 13.6046 15.0739 13.9132 14.6316C14.2199 14.1893 14.3751 13.7203 14.3751 13.23C14.3751 12.1945 14.0295 11.3987 13.3384 10.8374C12.6473 10.2796 11.7199 10.0007 10.5598 10.0007C9.51603 10.0007 8.64154 10.2867 7.93807 10.8604C7.23283 11.436 6.89785 12.166 6.92782 13.0506L6.94369 13.0986H9.12462C9.12462 12.6936 9.2692 12.3685 9.55658 12.1199C9.84396 11.8694 10.2001 11.7468 10.6215 11.7468C11.1081 11.7468 11.4819 11.8836 11.7393 12.1572C11.9967 12.4325 12.1236 12.7984 12.1236 13.2531C12.1236 13.7558 11.9967 14.1484 11.7393 14.4308C11.4819 14.7115 11.0869 14.8536 10.551 14.8536Z" fill="white"/>
</svg>
