<svg width="32" height="32" viewBox="0 0 32 32" fill="none" xmlns="http://www.w3.org/2000/svg">
<path fill-rule="evenodd" clip-rule="evenodd" d="M23.4221 21.0533C24.1256 20.7105 24.6422 20.3143 24.9754 19.872V15.6302H20.7581V17.1916H22.7363V19.2716C22.5723 19.4315 22.3325 19.563 22.0152 19.6731C21.6978 19.7797 21.28 19.8347 20.7581 19.8347C20.0211 19.8347 19.4375 19.5665 19.0021 19.0336C18.5683 18.5025 18.3515 17.808 18.3515 16.9553V14.5928C18.3515 13.7562 18.5595 13.0687 18.9791 12.5358C19.397 12.003 19.9506 11.7383 20.6364 11.7383C21.2835 11.7383 21.7772 11.9124 22.1139 12.2605C22.4524 12.6069 22.6411 13.0794 22.6834 13.678H24.792L24.8061 13.6301C24.792 12.543 24.4218 11.6672 23.6989 11.0011C22.9761 10.3332 21.9341 9.99927 20.573 9.99927C19.2665 9.99927 18.1963 10.4291 17.3659 11.2871C16.5355 12.1433 16.1212 13.2517 16.1212 14.6124V16.9589C16.1212 18.3249 16.5514 19.4351 17.4153 20.2895C18.2792 21.1439 19.3935 21.5702 20.7581 21.5702C21.8318 21.5702 22.7204 21.3979 23.4221 21.0533ZM6.78784 17.6161L11.4177 10.1627H13.6745V17.2306H14.9386V18.9679H13.6745V21.4085H11.4406V18.9679H6.88657L6.78784 17.6161ZM11.3948 13.1593L11.2203 13.4773L8.87184 17.2306H11.4407V13.1753L11.3948 13.1593Z" fill="white"/>
</svg>
