<svg width="32" height="32" viewBox="0 0 32 32" fill="none" xmlns="http://www.w3.org/2000/svg">
<path fill-rule="evenodd" clip-rule="evenodd" d="M7.26367 15.6L8.94824 16.0173C9.08984 15.8555 9.26562 15.7113 9.47559 15.5848C9.69043 15.4584 9.99316 15.3951 10.3838 15.3951C10.6719 15.3951 10.9233 15.4432 11.1382 15.5393C11.3579 15.6354 11.5386 15.772 11.6802 15.9491C11.8218 16.1261 11.9268 16.336 11.9951 16.5789C12.0635 16.8217 12.0977 17.0923 12.0977 17.3908C12.0977 17.6892 12.0684 17.9675 12.0098 18.2255C11.9561 18.4784 11.8706 18.701 11.7534 18.8932C11.6362 19.0804 11.4824 19.2271 11.292 19.3333C11.1016 19.4396 10.8721 19.4927 10.6035 19.4927C10.3154 19.4927 10.064 19.432 9.84912 19.3106C9.63428 19.1892 9.46094 19.0172 9.3291 18.7946C9.20215 18.5669 9.12402 18.2963 9.09473 17.9827H7C7.00977 18.4936 7.11475 18.9489 7.31494 19.3485C7.52002 19.7431 7.79102 20.0795 8.12793 20.3577C8.46973 20.636 8.85303 20.8459 9.27783 20.9875C9.70752 21.1292 10.1519 21.2 10.6108 21.2C11.2261 21.2 11.7583 21.1014 12.2075 20.9041C12.6567 20.7068 13.0303 20.4361 13.3281 20.0921C13.626 19.7431 13.8481 19.3485 13.9946 18.9084C14.1411 18.4632 14.2144 17.9953 14.2144 17.5046C14.2144 16.9229 14.1411 16.4018 13.9946 15.9415C13.8481 15.4811 13.6333 15.0916 13.3501 14.7729C13.0718 14.4542 12.7324 14.2114 12.332 14.0444C11.9316 13.8775 11.4727 13.794 10.9551 13.794C10.5986 13.794 10.2764 13.8446 9.98828 13.9458C9.7002 14.0419 9.48535 14.133 9.34375 14.219L9.60742 11.768H13.8628V10H7.87158L7.26367 15.6ZM23.6466 20.6239C24.3501 20.2944 24.8666 19.9137 25.1999 19.4886V15.4118H20.9826V16.9124H22.9607V18.9116C22.7968 19.0652 22.557 19.1916 22.2396 19.2974C21.9223 19.3998 21.5044 19.4528 20.9826 19.4528C20.2456 19.4528 19.662 19.195 19.2265 18.6828C18.7928 18.1724 18.5759 17.5048 18.5759 16.6854V14.4148C18.5759 13.6107 18.784 12.95 19.2036 12.4379C19.6215 11.9257 20.1751 11.6713 20.8609 11.6713C21.508 11.6713 22.0016 11.8387 22.3384 12.1733C22.6769 12.5062 22.8655 12.9603 22.9078 13.5356H25.0165L25.0306 13.4895C25.0165 12.4447 24.6462 11.6031 23.9234 10.9629C23.2005 10.321 22.1585 10 20.7974 10C19.491 10 18.4208 10.4131 17.5904 11.2377C16.76 12.0606 16.3456 13.1259 16.3456 14.4336V16.6888C16.3456 18.0016 16.7758 19.0686 17.6397 19.8898C18.5037 20.711 19.6179 21.1207 20.9826 21.1207C22.0563 21.1207 22.9449 20.9551 23.6466 20.6239Z" fill="white"/>
</svg>
