<svg width="32" height="32" viewBox="0 0 32 32" fill="none" xmlns="http://www.w3.org/2000/svg">
<path fill-rule="evenodd" clip-rule="evenodd" d="M8 10.1875C8 8.42709 9.42709 7 11.1875 7H21.8125C23.5729 7 25 8.42709 25 10.1875V20.8125C25 22.5729 23.5729 24 21.8125 24H11.1875C9.42709 24 8 22.5729 8 20.8125V10.1875ZM11.1875 9.125C10.6007 9.125 10.125 9.6007 10.125 10.1875V20.8125C10.125 21.3993 10.6007 21.875 11.1875 21.875H21.8125C22.3993 21.875 22.875 21.3993 22.875 20.8125V10.1875C22.875 9.6007 22.3993 9.125 21.8125 9.125H11.1875Z" fill="currentColor"/>
</svg>
