<?xml version="1.0" encoding="UTF-8"?>
<svg width="32px" height="32px" viewBox="0 0 32 32" version="1.1" xmlns="http://www.w3.org/2000/svg" xmlns:xlink="http://www.w3.org/1999/xlink">
    <!-- Generator: Sketch 46.2 (44496) - http://www.bohemiancoding.com/sketch -->
    <title>ic_pixelperfect_active_black</title>
    <desc>Created with Sketch.</desc>
    <defs></defs>
    <g id="Symbols" stroke="none" stroke-width="1" fill="none" fill-rule="evenodd">
        <g id="ic_pixelperfect_active_black">
            <polygon id="Fill-1" fill="#000000" points="14.121818 18.1471127 12.5479309 18.1471127 12.560909 13.8615015 11.0129781 14.2700257 11 12.9325474 13.9778793 12 14.121818 12"></polygon>
            <rect id="Rectangle" stroke="#000000" stroke-width="2" x="6" y="7.97454834" width="20" height="16" rx="2"></rect>
            <polygon id="Fill-8" fill="#000000" points="7.00605774 3.08705395 2.97643361 3.08705395 1.05298742 3.08705395 1.05298742 7.97454834 2.97643361 7.97454834 2.97643361 5.00658558 7.00605774 5.00658558"></polygon>
            <polygon id="Fill-8" fill="#000000" transform="translate(27.976535, 26.443747) rotate(180.000000) translate(-27.976535, -26.443747) " points="30.9530703 24 26.9234462 24 25 24 25 28.8874944 26.9234462 28.8874944 26.9234462 25.8856633 30.9530703 25.8856633"></polygon>
            <circle id="Oval-2" fill="#000000" cx="16.5" cy="14.5" r="1"></circle>
            <circle id="Oval-2-Copy" fill="#000000" cx="16.5" cy="17.5" r="1"></circle>
            <polygon id="Fill-1-Copy" fill="#000000" points="21.121818 19.1471127 19.5479309 19.1471127 19.560909 14.8615015 18.0129781 15.2700257 18 13.9325474 20.9778793 13 21.121818 13"></polygon>
        </g>
    </g>
</svg>