<?xml version="1.0" encoding="UTF-8"?>
<svg width="32px" height="32px" viewBox="0 0 32 32" version="1.1" xmlns="http://www.w3.org/2000/svg" xmlns:xlink="http://www.w3.org/1999/xlink">
    <!-- Generator: Sketch 46.2 (44496) - http://www.bohemiancoding.com/sketch -->
    <title>ic_rotation_active</title>
    <desc>Created with Sketch.</desc>
    <defs></defs>
    <g id="Symbols" stroke="none" stroke-width="1" fill="none" fill-rule="evenodd">
        <g id="ic_rotation_active" stroke="#E6195E" stroke-width="0.45" fill="#E6195E">
            <g id="Page-1-Copy-8" transform="translate(3.000000, 3.000000)">
                <path d="M8.119036,23.1991975 C4.58855093,21.535979 2.06214877,18.1004609 1.67347152,14.0406958 L0.0539829521,14.0406958 C0.604609064,20.6935697 6.16485313,25.9208277 12.9559085,25.9208277 L13.6684835,25.8873473 L9.55498252,21.7735817 L8.119036,23.1991975 Z M16.0113436,22.885994 L3.03384191,9.90316992 L9.90047342,3.03537369 L22.8779751,16.0171178 L16.0113436,22.885994 Z M11.044912,1.89056098 C10.4079132,1.25335391 9.38223708,1.25335391 8.75603483,1.89056098 L1.88940332,8.75835721 C1.25240449,9.39664429 1.25240449,10.4215757 1.88940332,11.0490626 L14.866905,24.0308067 C15.5039038,24.6669338 16.5295799,24.6669338 17.1557822,24.0308067 L24.0224137,17.1608505 C24.6594125,16.5236434 24.6594125,15.497632 24.0224137,14.8712251 L11.044912,1.89056098 Z M17.792781,2.72217021 C21.3232661,4.39510878 23.8496682,7.81982679 24.2383455,11.8806719 L25.8578341,11.8806719 C25.3072079,5.22671801 19.7469639,0.000540005994 12.9559085,0.000540005994 L12.2433335,0.0318603536 L16.3568345,4.14670602 L17.792781,2.72217021 Z" id="Fill-1"></path>
            </g>
        </g>
    </g>
</svg>