<svg width="32" height="32" viewBox="0 0 32 32" fill="none" xmlns="http://www.w3.org/2000/svg">
<path d="M17.4333 24.0708L8.92917 15.5667C8.51389 15.1514 8.30625 14.6639 8.30625 14.1042C8.30625 13.5444 8.51389 13.0569 8.92917 12.6417L13.6417 7.92917C14.0569 7.51389 14.5444 7.30625 15.1042 7.30625C15.6639 7.30625 16.1514 7.51389 16.5667 7.92917L25.0708 16.4333C25.4861 16.8486 25.6938 17.3361 25.6938 17.8958C25.6938 18.4556 25.4861 18.9431 25.0708 19.3583L20.3583 24.0708C19.9431 24.4861 19.4556 24.6938 18.8958 24.6938C18.3361 24.6938 17.8486 24.4861 17.4333 24.0708ZM18.8958 22.5L23.5 17.8958L15.1042 9.5L10.5 14.1042L18.8958 22.5ZM17 29C15.2125 29 13.5288 28.6615 11.949 27.9844C10.3691 27.3073 8.98785 26.3774 7.80521 25.1948C6.62257 24.0122 5.69271 22.6309 5.01562 21.051C4.33854 19.4712 4 17.7875 4 16H6.16667C6.16667 17.2819 6.38333 18.5097 6.81667 19.6833C7.25 20.8569 7.85035 21.9132 8.61771 22.8521C9.38507 23.791 10.3014 24.5899 11.3667 25.249C12.4319 25.908 13.5965 26.3729 14.8604 26.6438L12.0167 23.8L13.5333 22.2833L19.925 28.675C19.4556 28.7833 18.9726 28.8646 18.476 28.9188C17.9795 28.9729 17.4875 29 17 29ZM27.8333 16C27.8333 14.7181 27.6167 13.4903 27.1833 12.3167C26.75 11.1431 26.1497 10.0868 25.3823 9.14792C24.6149 8.20903 23.6986 7.41007 22.6333 6.75104C21.5681 6.09201 20.4035 5.62708 19.1396 5.35625L21.9833 8.2L20.4667 9.71667L14.075 3.325C14.5444 3.21667 15.0274 3.13542 15.524 3.08125C16.0205 3.02708 16.5125 3 17 3C18.7875 3 20.4712 3.33854 22.051 4.01562C23.6309 4.69271 25.0122 5.62257 26.1948 6.80521C27.3774 7.98785 28.3073 9.3691 28.9844 10.949C29.6615 12.5288 30 14.2125 30 16H27.8333Z" fill="currentColor"/>
</svg>
