<svg width="32" height="32" viewBox="0 0 32 32" fill="none" xmlns="http://www.w3.org/2000/svg">
<path d="M8 8L10 12.001H13L11 8H13L15 12.001H18L16 8H18L20 12.001H23L21 8H24C24.55 8 25.0208 8.19697 25.4125 8.58682C25.8042 8.97666 26 9.44858 26 9.99846V22.0015C26 22.5514 25.8042 23.0233 25.4125 23.4132C25.0208 23.803 24.55 24 24 24H8C7.45 24 6.97917 23.803 6.5875 23.4132C6.19583 23.0233 6 22.5514 6 22.0015V9.99846C6 9.44858 6.19583 8.97666 6.5875 8.58682C6.97917 8.19697 7.45 8 8 8Z" fill="currentColor"/>
</svg>
