<svg width="32" height="32" viewBox="0 0 32 32" fill="none" xmlns="http://www.w3.org/2000/svg">
<path d="M16 21.5C17.25 21.5 18.31 21.06 19.19 20.19C20.07 19.32 20.5 18.25 20.5 17C20.5 15.75 20.06 14.69 19.19 13.81C18.32 12.93 17.25 12.5 16 12.5C14.75 12.5 13.69 12.94 12.81 13.81C11.93 14.68 11.5 15.75 11.5 17C11.5 18.25 11.94 19.31 12.81 20.19C13.68 21.07 14.75 21.5 16 21.5ZM16 19.5C15.3 19.5 14.71 19.26 14.225 18.775C13.74 18.29 13.5 17.7 13.5 17C13.5 16.3 13.74 15.71 14.225 15.225C14.71 14.74 15.3 14.5 16 14.5C16.7 14.5 17.29 14.74 17.775 15.225C18.26 15.71 18.5 16.3 18.5 17C18.5 17.7 18.26 18.29 17.775 18.775C17.29 19.26 16.7 19.5 16 19.5ZM8 25C7.45 25 6.98 24.805 6.59 24.415C6.2 24.025 6 23.55 6 23V11C6 10.45 6.195 9.98 6.59 9.585C6.98 9.195 7.45 9 8 9H11.15L13 7H19L20.85 9H24C24.55 9 25.02 9.195 25.415 9.585C25.805 9.975 26 10.45 26 11V23C26 23.55 25.805 24.02 25.415 24.415C25.025 24.805 24.55 25 24 25H8Z" fill="currentColor"/>
</svg>
