<?xml version="1.0" encoding="UTF-8"?>
<svg width="32px" height="32px" viewBox="0 0 32 32" version="1.1" xmlns="http://www.w3.org/2000/svg" xmlns:xlink="http://www.w3.org/1999/xlink">
    <!-- Generator: Sketch 46.2 (44496) - http://www.bohemiancoding.com/sketch -->
    <title>ic_sound_inactive</title>
    <desc>Created with Sketch.</desc>
    <defs></defs>
    <g id="Symbols" stroke="none" stroke-width="1" fill="none" fill-rule="evenodd">
        <g id="ic_sound_inactive" fill-rule="nonzero" fill="#FFFFFF">
            <g id="ic_volume_up_48px" transform="translate(5.000000, 5.000000)">
                <path d="M0,7.33333333 L0,14.6666667 L4.88888889,14.6666667 L11,20.7777778 L11,1.22222222 L4.88888889,7.33333333 L0,7.33333333 Z M16.5,11 C16.5,8.84277778 15.2533333,6.97888889 13.4444444,6.08055556 L13.4444444,15.9255556 C15.2533333,15.0211111 16.5,13.1572222 16.5,11 Z M13.4444444,0.281111111 L13.4444444,2.805 C16.9766667,3.85611111 19.5555556,7.12555556 19.5555556,11 C19.5555556,14.8744444 16.9766667,18.1438889 13.4444444,19.195 L13.4444444,21.7188889 C18.3394444,20.6066667 22,16.2372222 22,11 C22,5.76277778 18.3394444,1.39333333 13.4444444,0.281111111 Z" id="Shape"></path>
            </g>
        </g>
    </g>
</svg>