<?xml version="1.0" encoding="UTF-8"?>
<svg width="38px" height="38px" viewBox="0 0 38 38" version="1.1" xmlns="http://www.w3.org/2000/svg" xmlns:xlink="http://www.w3.org/1999/xlink">
    <!-- Generator: Sketch 46.2 (44496) - http://www.bohemiancoding.com/sketch -->
    <title>ic_textandcall_inactive</title>
    <desc>Created with Sketch.</desc>
    <defs></defs>
    <g id="Symbols" stroke="none" stroke-width="1" fill="none" fill-rule="evenodd">
        <g id="ic_textandcall_inactive" fill="#FFFFFF">
            <path d="M22.5264582,7.66720425 L24.0115554,7.66720425 L24.0115554,6.01860101 L22.5264582,6.01860101 L22.5264582,7.66720425 Z M25.4966525,7.66720425 L26.9817496,7.66720425 L26.9817496,6.01860101 L25.4966525,6.01860101 L25.4966525,7.66720425 Z M28.4645931,7.66720425 L29.9496902,7.66720425 L29.9496902,6.01860101 L28.4645931,6.01860101 L28.4645931,7.66720425 Z M18.8170958,1.89834374 L18.8170958,11.7874615 C18.8170958,12.6980709 19.4818965,13.4335631 20.3021929,13.4335631 L30.691112,13.4335631 L33.6613062,16.7282679 L33.6545456,1.89834374 C33.6545456,0.987734364 32.9965056,0.249740499 32.1762091,0.249740499 L20.3021929,0.249740499 C19.4818965,0.249740499 18.8170958,0.987734364 18.8170958,1.89834374 L18.8170958,1.89834374 Z" id="Fill-20"></path>
            <path d="M12.2073996,30.3022586 L19.3173865,30.3022586 L19.3173865,29.4441844 L12.2073996,29.4441844 L12.2073996,30.3022586 Z M21.5123555,16.7982218 L21.5123555,27.4753669 L9.84115985,27.4753669 L9.84115985,9.31571447 L16.5928305,9.31571447 L16.5928305,6.94412741 L8,6.94412741 L8,31.8833167 L23.3535154,31.8833167 L23.3535154,16.7982218 L21.5123555,16.7982218 Z" id="Fill-21"></path>
        </g>
    </g>
</svg>