<?xml version="1.0" encoding="UTF-8"?>
<svg width="38px" height="38px" viewBox="0 0 38 38" version="1.1" xmlns="http://www.w3.org/2000/svg" xmlns:xlink="http://www.w3.org/1999/xlink">
    <!-- Generator: Sketch 46.2 (44496) - http://www.bohemiancoding.com/sketch -->
    <title>ic_textandcall_active</title>
    <desc>Created with Sketch.</desc>
    <defs></defs>
    <g id="Symbols" stroke="none" stroke-width="1" fill="none" fill-rule="evenodd">
        <g id="ic_textandcall_active" fill="#E6195E">
            <g id="Group-2-Copy-2" transform="translate(8.000000, 0.000000)">
                <path d="M14.5264582,7.66720425 L16.0115554,7.66720425 L16.0115554,6.01860101 L14.5264582,6.01860101 L14.5264582,7.66720425 Z M17.4966525,7.66720425 L18.9817496,7.66720425 L18.9817496,6.01860101 L17.4966525,6.01860101 L17.4966525,7.66720425 Z M20.4645931,7.66720425 L21.9496902,7.66720425 L21.9496902,6.01860101 L20.4645931,6.01860101 L20.4645931,7.66720425 Z M10.8170958,1.89834374 L10.8170958,11.7874615 C10.8170958,12.6980709 11.4818965,13.4335631 12.3021929,13.4335631 L22.691112,13.4335631 L25.6613062,16.7282679 L25.6545456,1.89834374 C25.6545456,0.987734364 24.9965056,0.249740499 24.1762091,0.249740499 L12.3021929,0.249740499 C11.4818965,0.249740499 10.8170958,0.987734364 10.8170958,1.89834374 L10.8170958,1.89834374 Z" id="Fill-20"></path>
                <path d="M4.20739956,30.3022586 L11.3173865,30.3022586 L11.3173865,29.4441844 L4.20739956,29.4441844 L4.20739956,30.3022586 Z M13.5123555,16.7982218 L13.5123555,27.4753669 L1.84115985,27.4753669 L1.84115985,9.31571447 L8.59283048,9.31571447 L8.59283048,6.94412741 L0,6.94412741 L0,31.8833167 L15.3535154,31.8833167 L15.3535154,16.7982218 L13.5123555,16.7982218 Z" id="Fill-21"></path>
            </g>
        </g>
    </g>
</svg>