<svg width="32" height="32" viewBox="0 0 32 32" fill="none" xmlns="http://www.w3.org/2000/svg">
<path d="M14.9954 27V24.9909C12.9026 24.7565 11.1069 23.89 9.60845 22.3916C8.10997 20.8931 7.24353 19.0974 7.00913 17.0046H5V14.9954H7.00913C7.24353 12.9026 8.10997 11.1069 9.60845 9.60845C11.1069 8.10997 12.9026 7.24353 14.9954 7.00913V5H17.0046V7.00913C19.0974 7.24353 20.8931 8.10997 22.3916 9.60845C23.89 11.1069 24.7565 12.9026 24.9909 14.9954H27V17.0046H24.9909C24.7565 19.0974 23.89 20.8931 22.3916 22.3916C20.8931 23.89 19.0974 24.7565 17.0046 24.9909V27H14.9954ZM16 23.032C17.9422 23.032 19.5997 22.3455 20.9726 20.9726C22.3455 19.5997 23.032 17.9422 23.032 16C23.032 14.0578 22.3455 12.4003 20.9726 11.0274C19.5997 9.65449 17.9422 8.96804 16 8.96804C14.0578 8.96804 12.4003 9.65449 11.0274 11.0274C9.65449 12.4003 8.96804 14.0578 8.96804 16C8.96804 17.9422 9.65449 19.5997 11.0274 20.9726C12.4003 22.3455 14.0578 23.032 16 23.032ZM16 20.0183C14.895 20.0183 13.949 19.6248 13.1621 18.8379C12.3752 18.051 11.9817 17.105 11.9817 16C11.9817 14.895 12.3752 13.949 13.1621 13.1621C13.949 12.3752 14.895 11.9817 16 11.9817C17.105 11.9817 18.051 12.3752 18.8379 13.1621C19.6248 13.949 20.0183 14.895 20.0183 16C20.0183 17.105 19.6248 18.051 18.8379 18.8379C18.051 19.6248 17.105 20.0183 16 20.0183ZM16 18.0091C16.5525 18.0091 17.0255 17.8124 17.4189 17.4189C17.8124 17.0255 18.0091 16.5525 18.0091 16C18.0091 15.4475 17.8124 14.9745 17.4189 14.581C17.0255 14.1876 16.5525 13.9909 16 13.9909C15.4475 13.9909 14.9745 14.1876 14.581 14.581C14.1876 14.9745 13.9909 15.4475 13.9909 16C13.9909 16.5525 14.1876 17.0255 14.581 17.4189C14.9745 17.8124 15.4475 18.0091 16 18.0091Z" fill="white"/>
</svg>
