<svg width="32" height="32" viewBox="0 0 32 32" fill="none" xmlns="http://www.w3.org/2000/svg">
<g id="icon/network">
<path id="Vector" d="M16 27C14.4783 27 13.0483 26.7113 11.71 26.1337C10.3717 25.5562 9.2075 24.7725 8.2175 23.7825C7.2275 22.7925 6.44375 21.6283 5.86625 20.29C5.28875 18.9517 5 17.5217 5 16C5 14.4783 5.28875 13.0483 5.86625 11.71C6.44375 10.3717 7.2275 9.2075 8.2175 8.2175C9.2075 7.2275 10.3717 6.44375 11.71 5.86625C13.0483 5.28875 14.4783 5 16 5C17.5217 5 18.9517 5.28875 20.29 5.86625C21.6283 6.44375 22.7925 7.2275 23.7825 8.2175C24.7725 9.2075 25.5562 10.3717 26.1337 11.71C26.7113 13.0483 27 14.4783 27 16C27 17.5217 26.7113 18.9517 26.1337 20.29C25.5562 21.6283 24.7725 22.7925 23.7825 23.7825C22.7925 24.7725 21.6283 25.5562 20.29 26.1337C18.9517 26.7113 17.5217 27 16 27ZM14.9 24.745V22.6C14.295 22.6 13.7771 22.3846 13.3462 21.9538C12.9154 21.5229 12.7 21.005 12.7 20.4V19.3L7.42 14.02C7.365 14.35 7.31458 14.68 7.26875 15.01C7.22292 15.34 7.2 15.67 7.2 16C7.2 18.2183 7.92875 20.1617 9.38625 21.83C10.8438 23.4983 12.6817 24.47 14.9 24.745ZM22.49 21.94C23.2417 21.115 23.8146 20.1938 24.2087 19.1762C24.6029 18.1587 24.8 17.1 24.8 16C24.8 14.2033 24.3004 12.5625 23.3013 11.0775C22.3021 9.5925 20.9683 8.52 19.3 7.86V8.3C19.3 8.905 19.0846 9.42292 18.6537 9.85375C18.2229 10.2846 17.705 10.5 17.1 10.5H14.9V12.7C14.9 13.0117 14.7946 13.2729 14.5837 13.4838C14.3729 13.6946 14.1117 13.8 13.8 13.8H11.6V16H18.2C18.5117 16 18.7729 16.1054 18.9838 16.3162C19.1946 16.5271 19.3 16.7883 19.3 17.1V20.4H20.4C20.8767 20.4 21.3075 20.5421 21.6925 20.8263C22.0775 21.1104 22.3433 21.4817 22.49 21.94Z" fill="#E8EAED"/>
</g>
</svg>
