<?xml version="1.0" encoding="utf-8"?>
<!-- Generator: Adobe Illustrator 21.0.2, SVG Export Plug-In . SVG Version: 6.00 Build 0)  -->
<svg version="1.0" id="Calque_1" xmlns="http://www.w3.org/2000/svg" xmlns:xlink="http://www.w3.org/1999/xlink" x="0px" y="0px"
	 viewBox="0 0 48 48" enable-background="new 0 0 48 48" xml:space="preserve">
<path fill="#3C3C39" d="M18,20.5l11-19C27.4,1.2,25.7,1,24,1C18.5,1,13.4,2.9,9.4,6.2l8.4,14.6L18,20.5z M45.9,17.1
	C43.8,10.4,38.7,5,32.1,2.5l-8.4,14.6H45.9z M46.5,19.4H29.3l0.7,1.1l11,19C44.7,35.4,47,30,47,24C47,22.4,46.8,20.9,46.5,19.4z
	 M16,24L7,8.5C3.3,12.6,1,18,1,24c0,1.6,0.2,3.1,0.5,4.6h17.2L16,24z M2,30.9C4.1,37.6,9.3,43,15.8,45.5l8.4-14.6H2z M28,30.9
	l-9,15.5c1.6,0.4,3.3,0.6,5,0.6c5.5,0,10.6-1.9,14.5-5.2l-8.4-14.6L28,30.9z"/>
</svg>
