<svg width="15" height="19" viewBox="0 0 15 19" fill="none" xmlns="http://www.w3.org/2000/svg">
<path d="M2.8125 16.15H4.6875V14.25H2.8125V16.15ZM2.8125 12.35H4.6875V8.55H2.8125V12.35ZM6.5625 16.15H8.4375V12.35H6.5625V16.15ZM6.5625 10.45H8.4375V8.55H6.5625V10.45ZM10.3125 16.15H12.1875V14.25H10.3125V16.15ZM10.3125 12.35H12.1875V8.55H10.3125V12.35ZM1.875 19C1.35938 19 0.917969 18.814 0.550781 18.4419C0.183594 18.0698 0 17.6225 0 17.1V5.7L5.625 0H13.125C13.6406 0 14.082 0.186042 14.4492 0.558125C14.8164 0.930208 15 1.3775 15 1.9V17.1C15 17.6225 14.8164 18.0698 14.4492 18.4419C14.082 18.814 13.6406 19 13.125 19H1.875Z" fill="white"/>
</svg>
