<svg width="32" height="32" viewBox="0 0 32 32" fill="none" xmlns="http://www.w3.org/2000/svg">
<path d="M8.15945 13.5209C8.07067 13.4765 8.01927 13.4025 8.00526 13.299C7.99124 13.1905 8.00526 13.0968 8.04731 13.0129C9.00517 11.563 10.2247 10.4386 11.7152 9.64948C13.2057 8.8604 14.799 8.46093 16.4952 8.46093C18.1913 8.46093 19.7472 8.84067 21.2284 9.60016C22.7096 10.3596 23.9384 11.4545 24.9103 12.8748C24.9851 12.9932 25.0131 13.1017 24.9944 13.1905C24.9757 13.2792 24.9337 13.3631 24.8589 13.4272C24.7841 13.4962 24.7 13.5258 24.5972 13.5209C24.4944 13.5209 24.4103 13.4518 24.3402 13.3335C23.4478 12.0118 22.3077 11.0008 20.9153 10.2906C19.5229 9.58043 18.0511 9.22042 16.4905 9.21055C14.9205 9.21055 13.4534 9.56564 12.0797 10.2807C10.7106 10.9958 9.57988 12.0167 8.68744 13.3483C8.59866 13.4666 8.50521 13.5357 8.41176 13.5603C8.31831 13.5801 8.22954 13.5653 8.1501 13.516L8.15945 13.5209ZM19.3968 25.9784C17.6679 25.5691 16.2896 24.711 15.2523 23.4041C14.215 22.0972 13.6963 20.5239 13.6963 18.6893C13.6963 17.8805 13.9673 17.195 14.514 16.6279C15.0607 16.0657 15.7195 15.7845 16.4952 15.7845C17.2708 15.7845 17.9296 16.0607 18.481 16.6081C19.0323 17.1556 19.308 17.8312 19.308 18.6351C19.308 19.2318 19.5136 19.7349 19.9294 20.1442C20.3453 20.5535 20.8406 20.7557 21.4106 20.7557C21.9806 20.7557 22.4479 20.5535 22.8497 20.1442C23.2562 19.7349 23.4572 19.2318 23.4572 18.6351C23.4572 16.6673 22.775 15.0201 21.4059 13.6886C20.0369 12.357 18.3969 11.6912 16.4811 11.6912C14.5654 11.6912 12.9254 12.3669 11.5657 13.7182C10.206 15.0694 9.52849 16.7314 9.52849 18.7091C9.52849 19.222 9.57054 19.7891 9.65931 20.3957C9.74809 21.0023 9.90696 21.6434 10.1406 22.3092C10.1826 22.4374 10.1826 22.541 10.1453 22.615C10.1079 22.689 10.0518 22.7481 9.9677 22.7876C9.86958 22.832 9.77145 22.8369 9.66866 22.8123C9.56586 22.7876 9.49111 22.7038 9.44438 22.5657C9.26683 22.0232 9.12198 21.4264 9.00517 20.7656C8.88836 20.1047 8.82761 19.4143 8.82761 18.6943C8.82761 16.5539 9.58455 14.7144 11.0984 13.1757C12.6123 11.632 14.4066 10.8627 16.4905 10.8627C18.6071 10.8627 20.42 11.6123 21.9246 13.1165C23.4291 14.6207 24.1814 16.4602 24.1814 18.64C24.1814 19.434 23.9104 20.1097 23.373 20.6768C22.8357 21.239 22.1769 21.5201 21.4059 21.5201C20.635 21.5201 19.9434 21.244 19.3921 20.6965C18.8361 20.1491 18.5604 19.4784 18.5604 18.6943C18.5604 18.0926 18.3595 17.5797 17.953 17.1605C17.5465 16.7413 17.0605 16.5342 16.4905 16.5342C15.9204 16.5342 15.4392 16.7413 15.028 17.1605C14.6168 17.5797 14.4112 18.0877 14.4112 18.6943C14.4112 20.3858 14.8785 21.8062 15.8176 22.9503C16.7568 24.0994 18.009 24.8786 19.579 25.2929C19.7005 25.3176 19.7752 25.3669 19.8126 25.4507C19.85 25.5346 19.8593 25.6184 19.8453 25.7121C19.822 25.8206 19.7752 25.9044 19.7051 25.9538C19.6351 26.0031 19.5323 26.0129 19.3921 25.9834L19.3968 25.9784ZM11.0284 8.18475C10.9069 8.24394 10.8087 8.26366 10.734 8.23407C10.6592 8.20448 10.5985 8.15023 10.5518 8.07626C10.5097 8.02694 10.4957 7.9431 10.505 7.82474C10.5144 7.70638 10.5611 7.62747 10.6405 7.58802C11.5377 7.05046 12.4862 6.65099 13.4861 6.39454C14.486 6.13809 15.4859 6 16.4952 6C17.5184 6 18.5183 6.12822 19.4996 6.38961C20.4808 6.64606 21.4199 7.0258 22.3171 7.51897C22.4292 7.56829 22.4946 7.6472 22.5133 7.75076C22.532 7.85433 22.518 7.9431 22.4759 8.02201C22.4292 8.10092 22.3591 8.1601 22.275 8.20941C22.1909 8.2538 22.0928 8.24887 21.99 8.18969C21.1443 7.74583 20.2518 7.40061 19.322 7.14909C18.3922 6.89757 17.4483 6.77428 16.4905 6.77428C15.5326 6.77428 14.5841 6.89264 13.6636 7.12443C12.7432 7.35622 11.8647 7.71131 11.0237 8.18969L11.0284 8.18475ZM14.0514 25.6283C13.1497 24.6518 12.4581 23.6063 11.9815 22.4868C11.5049 21.3673 11.2666 20.1047 11.2666 18.6943C11.2666 17.2049 11.7759 15.9374 12.7899 14.8968C13.8038 13.8562 15.0373 13.3384 16.4905 13.3384C17.9436 13.3384 19.1725 13.8513 20.2051 14.8771C21.2424 15.9029 21.761 17.1556 21.761 18.64C21.761 18.7682 21.733 18.8718 21.6769 18.9507C21.6209 19.0296 21.5321 19.0691 21.4106 19.0691C21.2798 19.0691 21.1817 19.0296 21.1162 18.9507C21.0508 18.8718 21.0181 18.7682 21.0181 18.64C21.0181 17.3528 20.5742 16.2728 19.6818 15.3999C18.794 14.522 17.7287 14.0831 16.4858 14.0831C15.2429 14.0831 14.1869 14.5319 13.3085 15.4245C12.4301 16.3172 11.9909 17.4071 11.9909 18.6943C11.9909 20.0456 12.2011 21.2094 12.6217 22.1909C13.0422 23.1723 13.701 24.1537 14.5935 25.1302C14.6822 25.2239 14.7243 25.3176 14.7196 25.4063C14.7196 25.4951 14.6869 25.574 14.6308 25.6431C14.5748 25.722 14.4813 25.7664 14.3598 25.7762C14.2383 25.7861 14.1309 25.7368 14.0421 25.6283H14.0514ZM21.4106 23.8972C19.9621 23.8972 18.7193 23.4238 17.682 22.4818C16.6447 21.5399 16.1307 20.2626 16.1307 18.6499C16.1307 18.5315 16.1634 18.4329 16.2241 18.354C16.2849 18.2751 16.3737 18.2405 16.4858 18.2405C16.5979 18.2405 16.6867 18.28 16.7475 18.354C16.8082 18.4329 16.8409 18.5315 16.8409 18.6499C16.8409 20.0456 17.2941 21.1453 18.2053 21.9492C19.1164 22.7531 20.1864 23.1525 21.4199 23.1525C21.5601 23.1525 21.7283 23.1378 21.9152 23.1131C22.1021 23.0884 22.289 23.0687 22.4759 23.0539C22.5787 23.049 22.6675 23.0736 22.7376 23.1377C22.8077 23.2019 22.8404 23.2709 22.8357 23.3498C22.8404 23.4534 22.8264 23.5372 22.7843 23.6013C22.7423 23.6654 22.6815 23.7098 22.5927 23.7345C22.3498 23.8183 22.1161 23.8627 21.8965 23.8775C21.6769 23.8923 21.5181 23.8972 21.4199 23.8972H21.4106Z" fill="currentColor"/>
</svg>
