<svg width="32" height="32" viewBox="0 0 32 32" fill="none" xmlns="http://www.w3.org/2000/svg">
<path d="M11.8125 22.15H13.6875V20.25H11.8125V22.15ZM11.8125 18.35H13.6875V14.55H11.8125V18.35ZM15.5625 22.15H17.4375V18.35H15.5625V22.15ZM15.5625 16.45H17.4375V14.55H15.5625V16.45ZM19.3125 22.15H21.1875V20.25H19.3125V22.15ZM19.3125 18.35H21.1875V14.55H19.3125V18.35ZM10.875 25C10.3594 25 9.91797 24.814 9.55078 24.4419C9.18359 24.0698 9 23.6225 9 23.1V11.7L14.625 6H22.125C22.6406 6 23.082 6.18604 23.4492 6.55813C23.8164 6.93021 24 7.3775 24 7.9V23.1C24 23.6225 23.8164 24.0698 23.4492 24.4419C23.082 24.814 22.6406 25 22.125 25H10.875Z" fill="currentColor"/>
</svg>
