<svg width="32" height="32" viewBox="0 0 32 32" fill="none" xmlns="http://www.w3.org/2000/svg">
<path fill-rule="evenodd" clip-rule="evenodd" d="M9.8 25C9.305 25 8.88125 24.8238 8.52875 24.4713C8.17625 24.1188 8 23.695 8 23.2V10.6C8 10.105 8.17625 9.68125 8.52875 9.32875C8.88125 8.97625 9.305 8.8 9.8 8.8H13.5575C13.7225 8.275 14.045 7.84375 14.525 7.50625C15.005 7.16875 15.53 7 16.1 7C16.7 7 17.2362 7.16875 17.7087 7.50625C18.1812 7.84375 18.5 8.275 18.665 8.8H22.4C22.895 8.8 23.3188 8.97625 23.6713 9.32875C24.0238 9.68125 24.2 10.105 24.2 10.6V23.2C24.2 23.695 24.0238 24.1188 23.6713 24.4713C23.3188 24.8238 22.895 25 22.4 25H9.8ZM22.4 23.2V10.6H20.6V13.3H11.6V10.6H9.8V23.2H22.4ZM16.1 10.6C16.355 10.6 16.5688 10.5138 16.7413 10.3413C16.9137 10.1687 17 9.955 17 9.7C17 9.445 16.9137 9.23125 16.7413 9.05875C16.5688 8.88625 16.355 8.8 16.1 8.8C15.845 8.8 15.6313 8.88625 15.4588 9.05875C15.2863 9.23125 15.2 9.445 15.2 9.7C15.2 9.955 15.2863 10.1687 15.4588 10.3413C15.6313 10.5138 15.845 10.6 16.1 10.6ZM12 16H20V17H12V16ZM20 19H12V20H20V19Z" fill="currentColor"/>
</svg>
