<svg width="32" height="32" viewBox="0 0 32 32" fill="none" xmlns="http://www.w3.org/2000/svg">
<path d="M10 20H18V19.45C18 18.7167 17.6333 18.125 16.9 17.675C16.1667 17.225 15.2 17 14 17C12.8 17 11.8333 17.225 11.1 17.675C10.3667 18.125 10 18.7167 10 19.45V20ZM14 16C14.55 16 15.0208 15.8042 15.4125 15.4125C15.8042 15.0208 16 14.55 16 14C16 13.45 15.8042 12.9792 15.4125 12.5875C15.0208 12.1958 14.55 12 14 12C13.45 12 12.9792 12.1958 12.5875 12.5875C12.1958 12.9792 12 13.45 12 14C12 14.55 12.1958 15.0208 12.5875 15.4125C12.9792 15.8042 13.45 16 14 16ZM8 24C7.45 24 6.97917 23.8042 6.5875 23.4125C6.19583 23.0208 6 22.55 6 22V10C6 9.45 6.19583 8.97917 6.5875 8.5875C6.97917 8.19583 7.45 8 8 8H20C20.55 8 21.0208 8.19583 21.4125 8.5875C21.8042 8.97917 22 9.45 22 10V14.5L26 10.5V21.5L22 17.5V22C22 22.55 21.8042 23.0208 21.4125 23.4125C21.0208 23.8042 20.55 24 20 24H8Z" fill="currentColor"/>
</svg>
