<?xml version="1.0" encoding="UTF-8"?>
<svg width="38px" height="32px" viewBox="0 0 38 32" version="1.1" xmlns="http://www.w3.org/2000/svg" xmlns:xlink="http://www.w3.org/1999/xlink">
    <!-- Generator: Sketch 46.2 (44496) - http://www.bohemiancoding.com/sketch -->
    <title>ic_diskIO_active_black</title>
    <desc>Created with Sketch.</desc>
    <defs>
        <polygon id="path-1" points="19.1146778 19.3899614 29.8459981 19.3899614 29.8459981 0.27522973 1.33946538e-14 0.27522973 1.33946538e-14 19.3899614 19.1146778 19.3899614 19.1146778 0.275283591 -5.38610038e-05 0.275283591 -5.38610038e-05 19.3900153 19.1146778 19.3900153"></polygon>
        <polygon id="path-3" points="8.30159653 0.0702949786 8.30159653 13.1317975 0.457069238 13.1317975 0.457069238 0.0702949786 8.30159653 0.0702949786"></polygon>
    </defs>
    <g id="Symbols" stroke="none" stroke-width="1" fill="none" fill-rule="evenodd">
        <g id="ic_diskIO_active_black">
            <g id="Group" transform="translate(8.000000, 5.000000)">
                <g id="Group-2">
                    <g id="Page-1" transform="translate(1.000000, 1.000000)">
                        <g id="Group-3" transform="translate(0.000000, 0.263273)">
                            <mask id="mask-2" fill="white">
                                <use xlink:href="#path-1"></use>
                            </mask>
                            <g id="Clip-2"></g>
                        </g>
                        <g id="Group-6" transform="translate(20.544402, 3.494933)">
                            <mask id="mask-4" fill="white">
                                <use xlink:href="#path-3"></use>
                            </mask>
                            <g id="Clip-5"></g>
                        </g>
                    </g>
                    <path d="M11.00031,13.7502325 C9.48090958,13.7502325 8.24976753,12.5197103 8.24976753,10.99969 C8.24976753,9.48028967 9.48090958,8.24976753 11.00031,8.24976753 C12.5190904,8.24976753 13.7502325,9.48028967 13.7502325,10.99969 C13.7502325,12.5197103 12.5190904,13.7502325 11.00031,13.7502325 M11.00031,0 C4.92208853,0 0,4.92270844 0,10.99969 C0,17.0772916 4.92208853,22 11.00031,22 C17.0779115,22 22,17.0772916 22,10.99969 C22,4.92270844 17.0779115,0 11.00031,0" id="Fill-1" fill="#000000"></path>
                </g>
                <path d="M29.8137798,11.6086198 L27.0991042,11.6086198 L28.6696919,6.86001026 C28.6908787,6.79460749 28.6438993,6.72828355 28.5586914,6.70295149 C28.4739442,6.67808002 28.3763006,6.70156974 28.3288606,6.75914261 L23.3177187,12.8664717 C23.2836356,12.9083848 23.283175,12.95997 23.3158764,13.0023437 C23.3490384,13.0447173 23.4107565,13.0705099 23.4780016,13.0705099 L26.1912954,13.0705099 L24.62255,17.6947622 C24.6004421,17.7592438 24.6469609,17.8264889 24.7312476,17.8518209 C24.7547373,17.8587297 24.7791482,17.8624143 24.8030985,17.8624143 C24.8657378,17.8624143 24.9269953,17.838464 24.9615391,17.7970116 L29.9731415,11.8140398 C30.0076852,11.7721268 30.0090669,11.7200809 29.9763656,11.6772467 C29.9432036,11.6348731 29.8810249,11.6086198 29.8137798,11.6086198 Z" id="Fill-4" fill="#000000"></path>
            </g>
        </g>
    </g>
</svg>