<svg width="32" height="32" viewBox="0 0 32 32" fill="none" xmlns="http://www.w3.org/2000/svg">
<path fill-rule="evenodd" clip-rule="evenodd" d="M7 13.7932C7 11.0804 9.10404 8.93502 11.606 9.00151C11.8336 9.00755 12.0576 9.0568 12.2759 9.1215L14.6744 9.83236C15.0896 9.95538 15.52 10.0303 15.9529 10.0345C15.9752 10.0347 15.9975 10.0348 16.0198 10.0348C16.2566 10.0343 16.4898 9.98683 16.7185 9.92505L19.766 9.10159C19.9565 9.05011 20.1509 9.01033 20.3482 9.00297C22.8702 8.90887 25 11.0639 25 13.7932V19.544C25 22.9882 20.7737 24.2938 19.0434 21.3839C17.8101 19.3099 14.9923 19.2407 13.6704 21.2518L13.4146 21.6411C11.4377 24.649 7 23.1592 7 19.4875V13.7932ZM21.4 15.1279C21.897 15.1279 22.3 14.725 22.3 14.228C22.3 13.7309 21.897 13.328 21.4 13.328C20.903 13.328 20.5 13.7309 20.5 14.228C20.5 14.725 20.903 15.1279 21.4 15.1279ZM19.6 17.8279C20.097 17.8279 20.5 17.425 20.5 16.9279C20.5 16.4309 20.097 16.0279 19.6 16.0279C19.1029 16.0279 18.7 16.4309 18.7 16.9279C18.7 17.425 19.1029 17.8279 19.6 17.8279ZM12.3999 13.2155C12.7106 13.2155 12.9624 13.4673 12.9624 13.778V15.0154H14.1999C14.5106 15.0154 14.7624 15.2673 14.7624 15.5779C14.7624 15.8886 14.5106 16.1404 14.1999 16.1404H12.9624V17.3779C12.9624 17.6886 12.7106 17.9404 12.3999 17.9404C12.0893 17.9404 11.8374 17.6886 11.8374 17.3779V16.1404H10.5999C10.2893 16.1404 10.0374 15.8886 10.0374 15.5779C10.0374 15.2673 10.2893 15.0154 10.5999 15.0154H11.8374V13.778C11.8374 13.4673 12.0893 13.2155 12.3999 13.2155Z" fill="currentColor"/>
</svg>
