<svg width="32" height="32" viewBox="0 0 32 32" fill="none" xmlns="http://www.w3.org/2000/svg">
<path d="M18.75 20.5H20.25V19H21C21.2833 19 21.5208 18.9042 21.7125 18.7125C21.9042 18.5208 22 18.2833 22 18V14C22 13.7167 21.9042 13.4792 21.7125 13.2875C21.5208 13.0958 21.2833 13 21 13H18C17.7167 13 17.4792 13.0958 17.2875 13.2875C17.0958 13.4792 17 13.7167 17 14V18C17 18.2833 17.0958 18.5208 17.2875 18.7125C17.4792 18.9042 17.7167 19 18 19H18.75V20.5ZM10 19H11.5V17H13.5V19H15V13H13.5V15.5H11.5V13H10V19ZM18.5 17.5V14.5H20.5V17.5H18.5ZM8 24C7.45 24 6.97917 23.8042 6.5875 23.4125C6.19583 23.0208 6 22.55 6 22V10C6 9.45 6.19583 8.97917 6.5875 8.5875C6.97917 8.19583 7.45 8 8 8H24C24.55 8 25.0208 8.19583 25.4125 8.5875C25.8042 8.97917 26 9.45 26 10V22C26 22.55 25.8042 23.0208 25.4125 23.4125C25.0208 23.8042 24.55 24 24 24H8ZM8 22H24V10H8V22Z" fill="currentColor"/>
</svg>
