<svg width="32" height="32" viewBox="0 0 32 32" fill="none" xmlns="http://www.w3.org/2000/svg">
<path d="M7 24C6.45 24 5.97917 23.8042 5.5875 23.4125C5.19583 23.0208 5 22.55 5 22V10C5 9.45 5.19583 8.97917 5.5875 8.5875C5.97917 8.19583 6.45 8 7 8H25C25.55 8 26.0208 8.19583 26.4125 8.5875C26.8042 8.97917 27 9.45 27 10V22C27 22.55 26.8042 23.0208 26.4125 23.4125C26.0208 23.8042 25.55 24 25 24H7ZM7 22H25V10H7V22ZM12 21H20V19H12V21ZM9 17.5H11V15.5H9V17.5ZM13 17.5H15V15.5H13V17.5ZM17 17.5H19V15.5H17V17.5ZM21 17.5H23V15.5H21V17.5ZM9 14H11V12H9V14ZM13 14H15V12H13V14ZM17 14H19V12H17V14ZM21 14H23V12H21V14Z" fill="currentColor"/>
</svg>
