<svg width="32" height="32" viewBox="0 0 32 32" fill="none" xmlns="http://www.w3.org/2000/svg">
<path d="M16 24C14.8933 24 13.8533 23.79 12.88 23.37C11.9067 22.95 11.06 22.38 10.34 21.66C9.62 20.94 9.05 20.0933 8.63 19.12C8.21 18.1467 8 17.1067 8 16C8 14.88 8.21 13.8367 8.63 12.87C9.05 11.9033 9.62 11.06 10.34 10.34L11.46 11.46C10.8733 12.0467 10.4167 12.7267 10.09 13.5C9.76333 14.2733 9.6 15.1067 9.6 16C9.6 17.7867 10.22 19.3 11.46 20.54C12.7 21.78 14.2133 22.4 16 22.4C17.7867 22.4 19.3 21.78 20.54 20.54C21.78 19.3 22.4 17.7867 22.4 16C22.4 15.1067 22.2367 14.2733 21.91 13.5C21.5833 12.7267 21.1267 12.0467 20.54 11.46L21.66 10.34C22.38 11.06 22.95 11.9033 23.37 12.87C23.79 13.8367 24 14.88 24 16C24 17.1067 23.79 18.1467 23.37 19.12C22.95 20.0933 22.38 20.94 21.66 21.66C20.94 22.38 20.0933 22.95 19.12 23.37C18.1467 23.79 17.1067 24 16 24ZM15.2 16.8V8H16.8V16.8H15.2Z" fill="currentColor"/>
</svg>
