<svg width="32" height="32" viewBox="0 0 32 32" fill="none" xmlns="http://www.w3.org/2000/svg">
<path d="M16 21.5C17.25 21.5 18.3125 21.0625 19.1875 20.1875C20.0625 19.3125 20.5 18.25 20.5 17C20.5 15.75 20.0625 14.6875 19.1875 13.8125C18.3125 12.9375 17.25 12.5 16 12.5C14.75 12.5 13.6875 12.9375 12.8125 13.8125C11.9375 14.6875 11.5 15.75 11.5 17C11.5 18.25 11.9375 19.3125 12.8125 20.1875C13.6875 21.0625 14.75 21.5 16 21.5ZM16 19.5C15.3 19.5 14.7083 19.2583 14.225 18.775C13.7417 18.2917 13.5 17.7 13.5 17C13.5 16.3 13.7417 15.7083 14.225 15.225C14.7083 14.7417 15.3 14.5 16 14.5C16.7 14.5 17.2917 14.7417 17.775 15.225C18.2583 15.7083 18.5 16.3 18.5 17C18.5 17.7 18.2583 18.2917 17.775 18.775C17.2917 19.2583 16.7 19.5 16 19.5ZM8 25C7.45 25 6.97917 24.8042 6.5875 24.4125C6.19583 24.0208 6 23.55 6 23V11C6 10.45 6.19583 9.97917 6.5875 9.5875C6.97917 9.19583 7.45 9 8 9H11.15L13 7H19L20.85 9H24C24.55 9 25.0208 9.19583 25.4125 9.5875C25.8042 9.97917 26 10.45 26 11V23C26 23.55 25.8042 24.0208 25.4125 24.4125C25.0208 24.8042 24.55 25 24 25H8ZM8 23H24V11H19.95L18.125 9H13.875L12.05 11H8V23Z" fill="white"/>
</svg>
