<svg width="32" height="32" viewBox="0 0 32 32" fill="none" xmlns="http://www.w3.org/2000/svg">
<path d="M23.0667 24C21.2148 24 19.3852 23.5963 17.5778 22.7889C15.7704 21.9815 14.1259 20.837 12.6444 19.3556C11.163 17.8741 10.0185 16.2296 9.21111 14.4222C8.4037 12.6148 8 10.7852 8 8.93333C8 8.66667 8.08889 8.44444 8.26667 8.26667C8.44444 8.08889 8.66667 8 8.93333 8H12.5333C12.7407 8 12.9259 8.07037 13.0889 8.21111C13.2519 8.35185 13.3481 8.51852 13.3778 8.71111L13.9556 11.8222C13.9852 12.0593 13.9778 12.2593 13.9333 12.4222C13.8889 12.5852 13.8074 12.7259 13.6889 12.8444L11.5333 15.0222C11.8296 15.5704 12.1815 16.1 12.5889 16.6111C12.9963 17.1222 13.4444 17.6148 13.9333 18.0889C14.3926 18.5481 14.8741 18.9741 15.3778 19.3667C15.8815 19.7593 16.4148 20.1185 16.9778 20.4444L19.0667 18.3556C19.2 18.2222 19.3741 18.1222 19.5889 18.0556C19.8037 17.9889 20.0148 17.9704 20.2222 18L23.2889 18.6222C23.4963 18.6815 23.6667 18.7889 23.8 18.9444C23.9333 19.1 24 19.2741 24 19.4667V23.0667C24 23.3333 23.9111 23.5556 23.7333 23.7333C23.5556 23.9111 23.3333 24 23.0667 24Z" fill="currentColor"/>
</svg>
